<?xml version="1.0" encoding="utf-8"?>
<!-- Generator: Adobe Illustrator 19.0.0, SVG Export Plug-In . SVG Version: 6.00 Build 0)  -->
<svg version="1.1" xmlns="http://www.w3.org/2000/svg" xmlns:xlink="http://www.w3.org/1999/xlink" x="0px" y="0px"
	 viewBox="0 0 1080 540" style="enable-background:new 0 0 1080 540;" xml:space="preserve">
<style type="text/css">
	.st0{display:none;}
	.st1{display:inline;}
	.st2{fill:#2E3192;}
	.st3{fill:#00A651;}
	.st4{fill:none;stroke:#FFFFFF;stroke-miterlimit:10;}
</style>
<g id="Layer_1" class="st0">
	<g id="XMLID_1_" class="st1">
		<g id="XMLID_4_" transform="scale(1.2) translate(0 4.64684)">
			<path id="XMLID_331_" class="st2" d="M652.2,230.2l-0.6-2l-1.4-1.7l-2.3-0.1l-0.4,0.5l0.2,0.9l-0.5,1l-0.7-0.4l-0.7,0.4l-1.2-0.4
				l-0.4-2l-0.8-1.9l0.4-1.5l-0.2-0.5l-1.1-0.5l0.3-0.5l1.5-0.9l0-0.7l-1.6-1.2l0.6-1.1l1.6,0.9l1,0.2l0.2,1.5l0.3,0.4l5.6,0.6
				l-0.8,1.6l-1.2,0.3l-0.8,1.5l0.1,0.5l1.4,1.4l0.7-0.2l0.4-1.4l1.2,3.8l0,1.2l-0.3-0.2L652.2,230.2L652.2,230.2z"/>
			<path id="XMLID_330_" class="st2" d="M429.3,143.9l1.9,0.2l2.1-0.6l2.6,2l-0.2,1.7l-0.7,0.4l-0.2,1.2l-1.7-1.1l-1.4,0.2l-2.7-2.7
				l-1.2-0.2l-0.2-0.5L429.3,143.9L429.3,143.9z"/>
			<path id="XMLID_329_" class="st2" d="M421.4,247.7l-0.1,1l0.3,1.2l1.4,1.7l0.1,1.1l0.3,0.4l2.6,0.5l0,1.3l-0.4,0.5l-1.1,0.2
				l-0.7,1.2l-0.6,0.2l-3.2-0.3L419,257l-5.4-0.1l-0.4,0.4l0.2,2.7l-1.2-0.4l-1.2,0.1l-0.9,0.6l-2.3-1.7l-0.1-1.1l0.6-1l0-0.9l1.9-2
				l0.4-1.8l0.4-0.4l1.3,0.3l1.1-0.5l0.5-0.7l1.8-1.1l0.6-0.8l2.2-1l1.2-0.3l0.7,0.5L421.4,247.7L421.4,247.7z"/>
			<path id="XMLID_328_" class="st2" d="M491.7,168.1l-0.9,0.9l-0.9,2.2l0.5,1.3l-1.6-0.2l-2.6,1l-0.3,1.5l-1.8,0.2l-2-1l-1.9,0.8
				l-1.4-0.1l-0.2-1.6l-1.1-1v-0.8l1.2-1.6l0-0.6l-1.1-1.2l-0.1-0.9l0.9,1l0.9-0.2l1.9,0.5l3.7,0.2l1.4-0.8l2.7-0.7L491.7,168.1
				L491.7,168.1z"/>
			<path id="XMLID_327_" class="st2" d="M463.5,163.5l2.1,0.5l1.7,0l1.5,0.7l-0.4,0.8l0.1,0.5l1,1l-0.3,1l-1.8,1.2l-0.4,1.4
				l-1.7-0.9l-0.9-1.2l-2.1-1.8l-1.6-2.2l0.2-0.6l0.5,0.4l0.6-0.1l0.4-0.5L463.5,163.5L463.5,163.5z"/>
			<path id="XMLID_326_" class="st2" d="M707.9,273.6l0.7-0.7l1.4-0.9l-0.2,1.6l-0.8-0.1l-0.6,0.6L707.9,273.6L707.9,273.6z"/>
			<path id="XMLID_325_" class="st2" d="M263.5,340.9l-3.1-0.2l-0.4,0.2l-0.7,1.5l-1.3-1.5l-3.3-0.6l-2.4,2.4l-1.3,0.3l-0.9-3.3
				l-1.3-2.9l0.7-2.4l-0.1-0.4l-1.2-1l-0.4-1.9l-1.1-1.6l1.5-2.6l-1-2.3l0.5-1.1l-0.3-0.7l0.9-1.3l0.2-3.8l0.5-1.2l-1.8-3.4l2.5,0.1
				l0.8-0.9l3.4-1.9l2.7-0.4l-0.2,1.4l0.3,1.1l-0.1,2l2.7,2.3l2.9,0.5l0.9,0.9l1.8,0.6l1,0.7l1.7,0.1l1.2,0.6l0.6,2.7l-0.7,0.5l1,3
				l0.4,0.3l4.3,0.1l-0.3,1.2l0.3,1l1.4,0.9l0.5,1.4l-0.4,1.9l-0.7,1.1l0.1,1.4l-2.7-1.7l-2.4,0l-4.4,0.8l-1.5,2.5l-0.1,1.5
				L263.5,340.9L263.5,340.9z"/>
			<path id="XMLID_321_" class="st2" d="M781.7,166.8l1.8,0.7l1.6-1l0.4,2.4l-3.4,0.8l-2.2,2.9l-3.6-1.9l-0.6,0.2l-1.3,3.1l-2.2,0
				l-0.3-2.5l1.1-2l2.5-0.2l0.4-0.3l1.3-6l2.5,2.7L781.7,166.8L781.7,166.8z M774.1,187.3l-0.9,2.2l0.4,1.5l-1.1,1.8l-3,1.3
				l-4.6,0.3l-3.3,3l-1.3-0.8l-0.1-1.9l-0.5-0.4l-4.4,0.6l-3,1.3l-2.9,0.1l-0.4,0.3l0.1,0.4l2.3,1.9l-1.5,4.3l-1.3,0.9l-0.8-0.7
				l0.6-2.3l-0.2-0.5l-1.5-0.8l-0.7-1.4l2.1-0.8l1.3-1.7l2.5-1.4l1.8-1.9l4.8-0.8l2.6,0.6l0.4-0.2l2.4-4.7l1.3,1.1l0.5,0l5.1-4
				l1.7-3.7l-0.4-3.4l0.9-1.6l2.1-0.4l1.2,3.7l-0.1,2.2l-2.2,2.8L774.1,187.3L774.1,187.3z M758.3,196.2l0.2,0.6l-1,1.2l-1.2-0.7
				l-1.3,0.7l-0.7,1.5l-1-0.5l0-0.9l1.1-1.4l1.6,0.1l0.9-1L758.3,196.2L758.3,196.2z"/>
			<path id="XMLID_320_" class="st2" d="M495.5,295.6l-1.1-3l1.1-0.1l0.6-1.2l0.8,0.1l0.7,1.8L495.5,295.6L495.5,295.6z"/>
			<path id="XMLID_319_" class="st2" d="M429.6,255.8l-0.1,0.8l0.5,1.3l-0.4,0.9l0.2,0.8l-1.8,2.1l-0.6,1.8l-0.1,5.4l-1.4,0.2
				l-0.5-1.4l0.1-5.7l-0.5-0.7l-0.2-1.4l-1.5-1.5l0.2-0.9l0.9-0.4l0.4-0.9l1.3-0.4l1.2-1.3h0.6L429.6,255.8L429.6,255.8z"/>
			<path id="XMLID_318_" class="st2" d="M650.7,213.8l0.8,0.7l-0.1,1.1l-3.8-0.1l-1.6,0.4l-1.9-0.9l1.5-2l1.1-0.6l1.6,0.6l1.3,0.1
				L650.7,213.8L650.7,213.8z"/>
			<path id="XMLID_317_" class="st2" d="M228,239.3l-0.8,0.4l-2.3-1.1l0.8-0.2l2.1,0.3l1.2,0.6L228,239.3L228,239.3z"/>
			<path id="XMLID_316_" class="st2" d="M484,330.2l2.3,4l2.8,2.9l1,0.3l0.8,2.4l2.1,0.6l1,0.8l-3,1.6l-2.3,2l-1.5,2.7l-1.5,0.5
				L485,350l-1.3,0.5l-1.9-0.1l-1.2-0.7l-1.4-0.3L478,350l-0.8,1.4l-2.3,1.9l-1.4,0.2l-0.4-0.6l0.2-1.8l-1.5-2.5l-0.6-0.4V341
				l2.1-0.1l0.4-0.4l0.1-8.9l5.2-0.9l0.8,0.9l0.5,0.1l1.5-1L484,330.2L484,330.2z"/>
			<path id="XMLID_315_" class="st2" d="M259.7,275.1l3.2,0.7l0.7-0.5l4.6-1.3l1.1-1.1l0-0.6l0.6-0.1l0.3,0.3l-0.3,0.9l0.2,0.5
				l0.7,0.3l0.4,0.8l-0.6,0.9l-0.4,2.1l0.8,2.6l1.7,1.4l1.4,0.2l3.2-1.7l3.2,0.3l0.7-0.8l-0.3-0.9l1.9-0.1l2.4,1l1.1-0.6l0.8,0.8
				l1.2-0.2l1.2-1.1l0.8-1.9l1.4-2.1l0.4-0.1l1.9,5.5l1.3,0.6l0.1,1.3l-1.8,1.9l0,0.6l1,0.9l4.1,0.4l0.1,2.2l0.7,0.3l1.7-1.5l7,2.3
				l1,1.2l-0.4,1.2l0.5,0.5l2.8-0.7l4.8,1.3l3.8-0.1l3.6,2l3.3,2.9l1.9,0.7l2.1,0.1l0.7,0.6l1.2,4.5l-1,4l-4.7,5.1l-1.6,2.9
				l-1.7,2.1l-0.8,0.3l-0.7,2l0.2,4.8l-0.9,5.5l-0.8,1.1l-0.4,3.4l-2.6,3.5l-0.4,2.5l-1.9,1l-0.7,1.5l-2.5,0l-3.9,1l-1.8,1.2
				l-2.9,0.8l-3,2.2l-2.2,2.8l-0.4,2l0.4,1.6l-0.4,2.6l-0.5,1.2l-1.8,1.5l-2.8,4.8l-3.8,3.4l-1.2,2.7l-1.2,1.2l-0.4-0.8l1-1.1l0-0.5
				l-1.5-2l-4.6-3.3h-1l-2.4-2h-0.8l5.3-5.5l3.8-2.6l0.2-2.5l-1.4-1.8l-0.9,0.1l0.6-2.3l0-1.5l-1.1-0.8l-1.8,0.3l-0.4-3.1l-0.5-1
				l-1.9-0.9l-1.2,0.5L276,341l0.2-3.2l-0.6-1.3l0.7-0.7l-0.2-1.3l0.7-1.1l0.4-2l-0.6-1.8l-1.4-0.9l-0.2-0.8l0.3-1.4l-0.4-0.5
				l-4.5-0.1l-0.7-2.2l0.6-0.4l0-1.1l-0.5-0.9l-0.3-1.7l-1.5-0.8l-1.6,0l-1.1-0.7l-1.6-0.5l-1.1-1l-2.7-0.4l-2.5-2.1l0.1-4.4
				l-0.5-0.5l-3.5,0.5l-3.4,1.9l-0.6,0.7l-2.9-0.2l-1.5,0.4l-0.7-0.2l0.2-3.5l-0.6-0.3l-1.9,1.4l-1.9-0.1l-0.8-1.2l-1.4-0.3l0.2-1
				l-1.4-1.5l-0.9-1.9l0.6-0.6v-0.8l1.3-0.6l0.2-0.4l-0.2-1.2l0.6-0.9l0.2-1l2.7-1.6l2-0.5l0.4-0.4l2.1,0.1l0.4-0.3l1.2-8l-0.4-1.6
				l-1.1-1l0-1.3l1.9-0.4l0.1-1l-0.3-0.4l-1.1-0.2l0-0.8l4.5,0.1l0.8-0.7l0.8,1.8l0.8,0.1l1.2,1.1l2.3-0.1l0.7-0.8l2.8-1l0.5-1.1
				l1.6-0.6l0.2-0.5l-0.5-0.8l-1.8-0.2L259.7,275.1L259.7,275.1z"/>
			<path id="XMLID_312_" class="st2" d="M226,223.8l-0.5-1.2l-0.8-0.8l0.4-1.1l1,2L226,223.8z M225.2,216.4l-1.9,0.3l0-0.2l0.7-0.1
				L225.2,216.4L225.2,216.4z"/>
			<path id="XMLID_311_" class="st2" d="M493.9,128.1l0.3,0.7l0.5,0.2l1.2-0.4l2.1,0.7l0.2,1.3l-0.5,1.2l1.6,2.3l0.9,0.6l0.2,0.8
				l1.6,0.6l0.4,0.5l-0.5,0.4l-1.9-0.1l-0.7,0.4l-0.1,0.5l1,2.7l-1.9,0.3l-0.9,1l-0.1,1.2l-2.7,0l-0.5-0.6l-0.5-0.1l-0.8,0.5
				l-0.9-0.4l-1.9-0.1l-2.8-0.8l-2.6-0.3l-2,0.1l-1.5,0.9l-0.7,0.1l-0.1-1.2l-0.6-1.2l1.4-0.9l0-1.4l-0.7-1.4l-0.1-1l2.2,0l2.7-1.3
				l0.8-2l1.9-1l0.2-0.4l-0.2-1.3l3.8-1.8L493.9,128.1L493.9,128.1z"/>
			<path id="XMLID_310_" class="st2" d="M197.6,244.4l0.1-4.5l0.7-0.1l0.7-1.3l0.3,0.3l-0.4,1.3l0.2,0.6l-0.3,2.3L197.6,244.4
				L197.6,244.4z"/>
			<path id="XMLID_296_" class="st2" d="M491.6,115l2.6-1.9l0-0.7L492,111l7.3-6.8l1-2.1l-0.1-0.5l-3.5-2.5l0.9-2.7l-2.1-2.8
				l1.6-3.7l-2.8-4.5l2.2-3l-0.1-0.6l-3.7-2.7l0.3-2.5l1.8-0.4l4.3-1.8l2.4-1.5l4.1,2.6l6.8,1l9.4,4.9l1.8,1.9l0.1,2.5l-2.6,2
				l-3.9,1.1l-11.1-3.1l-2.1,0.5l-0.1,0.7l3.9,2.9l0.3,5.9l0.3,0.4l5.1,2.2l0.6-0.3l0.3-1.9l-1.4-1.8l1.1-1.1l6.1,2.4l2.1-1l0.2-0.6
				l-1.5-2.7l5.4-3.8l2.1,0.2l2.3,1.4l0.6-0.2l1.5-2.9l-0.1-0.4l-1.9-2.3l1.1-2.3l-1.3-2.3l5.9,1.2l1,1.8l-2.6,0.4l-0.3,0.4l0,2.4
				l2.5,1.8l3.9-0.9l0.9-2.8l13.7-5.7l1,0.1l-1.9,2.1l0.2,0.7l3.1,0.5l2-1.5l4.6-0.1l3.6-1.7L571,80l0.6,0l2.9-2.9l0-0.6l-2.4-2.3
				l0.9-1l7.2,1.3l3.4,1.4l9.1,5l0.5-0.1l1.7-2.3l-0.1-0.5l-2.4-2.2l-0.1-0.8l-0.3-0.4l-2.5-0.4l0.6-1.9l-1.3-3.5l-0.1-1.2l4.5-4.1
				l1.7-4.3l1.6-0.8l6.2,1.2l0.4,2.2l-2.3,3.6l0.1,0.5l1.5,1.4l0.8,3l-0.6,6l2.7,2.8l-1,2.6l-4.9,6l0.2,0.6l2.9,0.6l0.4-0.2l0.9-1.4
				l2.6-1l0.9-2.2l2.1-2l0.1-0.5l-1.4-2.3l1.1-2.7l-0.3-0.6l-2.5-0.3l-0.5-2.1l1.9-4.4l-0.1-0.4l-3-3.4l4.1-2.9l0.2-0.4l-0.5-2.9
				l0.5-0.1l1.1,2.3l-1,4.4l0.3,0.5l2.7,0.8l0.5-0.5l-1-3l3.8-1.7l5-0.2l4.5,2.6l0.5-0.1l0.1-0.5l-2.2-3.8l-0.2-4.7l4-0.9l6,0.2
				l5.5-0.6l0.3-0.7l-1.8-2.3l2.6-2.9l2.9-0.2l4.8-2.5l6.6-0.7l1-1.4l6.3-0.5l2.3,1.1l5.5-2.7l4.5,0.1l0.4-0.3l0.7-2.2l2.3-2.1
				l5.7-2.1l3.2,1.3l-2.5,0.9l-0.3,0.4l0.3,0.4l5.4,0.8l0.6,2.3l0.6,0.3l2.2-1.2l7.1,0.1l5.5,2.5l1.8,1.7l-0.5,2.2l-9.2,4.2l-2,1.5
				l0.2,0.7l6.8,1.9l2.2-0.8l1.1,2.7l0.7,0.1l1-1.2l3.8-0.7l7.7,0.8l0.5,2l0.4,0.3l10.5,0.7l0.4-0.4l0.1-3.2l4.9,0.8l4,0l3.8,2.4
				l1,2.7l-1.4,1.8l0,0.5l3.2,3.6l4.1,2l0.5-0.2l2.2-4.5l4,1.9L761,65l4.7,1.4l2.1-1.3l3.9,0.6l0.4-0.6l-1.7-4l2.9-1.8l22.3,3
				l2.2,2.8l6.6,3.5l10.3-0.8l4.8,0.7l1.9,1.7l-0.3,3.1l0.3,0.4l3.1,1.3l3.6-0.9l4.4-0.1l4.8,0.9l4.6-0.5l4.2,3.8l0.4,0.1l3.1-1.4
				l0.2-0.6l-1.9-2.6l0.9-1.5l7.7,1.2l5.2-0.3l7.1,2.1l9.6,5.2l6.4,4.1l-0.2,2.4l1.9,1.4l0.6-0.4l-0.5-2.5l6.2,0.6l4.4,3.5l-2,1.4
				l-4,0.4l-0.4,0.4l-0.1,3.8l-0.7,0.6l-2.1-0.1l-1.9-1.4l-3.1-1.1l-0.8-1.9l-2.7-0.7l-2.6,0.5l-1-1.1l0.5-1.3l-0.5-0.5l-3,1
				l-0.2,0.6l1,1.7l-1.2,1.5l-3,1.7l-3.1-0.3l-0.4,0.2l0.1,0.5l2.2,2.1l1.5,3.2l1.2,1.1l0.2,1.3l-0.4,0.7l-4.6-0.8l-7,2.9l-2.2,0.4
				l-7.6,5.1l-0.8,1.5l-3.6-2.4l-6.3,2.8l-0.9-1.2l-0.5-0.1l-2.3,1.5l-3.2-0.5l-0.4,0.3l-0.8,2.4l-3.1,3.8l0.1,1.5l0.3,0.4l2.5,0.7
				l-0.3,4.5l-2,0.1l-0.4,0.3l-1.1,2.9l0.8,1.5l-3.9,1.6l-1.1,4l-3.5,0.8l-0.3,0.3l-0.7,3.3l-3.1,2.7l-0.7-1.7l-2.4-12.5l1.2-4.7
				l2-2.1l0.2-1.6l3.8-0.9l4.5-4.6l4.3-3.8l4.5-3l2.2-5.6l-0.4-0.5l-3,0.3l-1.8,3.3l-5.9,3.9l-1.9-4.3l-0.5-0.2l-6.5,1.3l-6.5,6.5
				l0,0.6l1.6,1.7l-8.3,1.2l0.2-2.2l-0.3-0.4l-3.9-0.6l-3.3,1.8l-7.6-0.6l-8.5,1.2l-17.7,15.4l0.2,0.7l3.7,0.4l1.4,2.2l2.4,0.8
				l1.9-1.7l2.4,0.2l3.4,3.5l0.1,2.6l-2,3.4l-0.2,3.9l-1.1,5.1l-3.7,4.5l-0.9,2.2l-8.3,8.9l-3.2,1.7l-1.3,0l-1.5-1.4l-0.5,0
				l-2.3,1.5l0.4-3.7l-0.6-2.5l1.8-0.9l2.9,0.5l0.4-0.2l1.7-3l0.9-3.5l1-1.2l1.3-2.9l-0.5-0.6l-4.1,1l-2.2,1.3h-3.4l-1.1-2.9l-3-2.3
				l-4.3-1.1l-1.8-5.1l-2.7-5l-2.3-1.3l-3.8-1l-3.4,0.1l-3.2,0.6l-2.2,1.8l0.1,0.7l1.2,0.7l0,1.4l-1.3,1.1l-2.3,3.5l0,1.4l-3.2,1.8
				l-2.8-1.2l-3,0.2l-1.4-1.1l-1.5-0.4l-3.9,2.3l-3.2,0.5l-2.3,0.8l-3.1-0.5l-2.2,0l-1.5-1.6l-2.6-1.6l-2.6-0.4l-5.5,1l-3.2-1.3
				l-0.7-2.6l-5.2-1.2l-2.8-1.4l-0.5,0.1l-2.6,3.5l0.8,2.1l-2.1,1.9l-3.4-0.8l-2.4-0.1l-1.8-1.5l-2.5-0.1l-2.4-1l-3.9,1.6l-4.7,2.8
				l-3.3,0.8l-1.6-1.9l-3,0.4l-1.1-1.3l-1.6-0.6l-1.3-1.9l-1.4-0.6l-3.7,0.8l-3.3-1.8l-0.5,0.1l-1,1.3l-5.3-8.1l-3-2.5l0.7-0.8
				l0-0.5l-0.5-0.1l-6.2,3.2l-1.8,0.2l0.2-1.4l-0.3-0.4l-3.2-1.2l-2.5,0.7l-0.7-3.2l-0.3-0.3l-4.5-0.8l-2.5,1.5l-6.2,1.3l-1.3,0.9
				l-9.5,1.3l-1.2,1.2l0,0.5l1.5,1.9l-1.9,0.7l-0.2,0.6l0.3,0.6l-2.1,1.4l0,0.7l3.8,2.1l-0.4,1l-3.2-0.1l-0.9,0.9l-3.1-1.6l-4,0.1
				l-2.7,1.4l-8.3-3.6l-4.1,0.1l-5.4,3.7l-0.4,2l-2-1.5l-0.6,0.1l-2,3.6l0.6,0.9l-1.3,2.2l0.1,0.5l2.1,2.2l2,0l1.4,1.8l-0.2,1.5
				l0.3,0.4l0.8,0.3l-0.8,1.3l-2.5,0.6l-2.5,3.2v0.5l2.2,2.8l-0.2,2.2l2.5,3.2l-1.6,1.6l-0.7-0.1l-1.6-1.7l-2.3-0.8l-0.9-1.3
				l-2.3-0.6l-1.5,0.4l-0.4-0.5l-3.5-1.5l-5.8-1l-0.5,0.2l-2.9-2.3l-2.9-1.2l-1.5-1.3l1.3-0.4l2.1-2.6l-0.1-0.6l-0.9-0.8l3.1-1.1
				l0.3-0.4l-0.1-0.7l-0.5-0.4l-1.7,0.4l0-0.7l1-0.7l2.7-0.5l0.4-1.3L521,152l0.9-1.5l0-1.2l-0.3-0.4l-3.7-1.1l-1.4,0l-1.4-1.4
				l-2.2,0.4l-2.8-1l0-0.6l-0.9-1.4l-2-0.3l-0.1-0.5l0.5-0.5l0-0.5L506,140l-3.6,0l-0.9,0.7l-0.5-0.1l-1-2.8l2.2,0l1-0.7l0.1-0.6
				l-0.9-1l-1.4-0.5l-0.1-0.7l-1-0.6l-1.4-2l0.5-1l-0.5-2l-2.5-0.8l-1.2,0.3l-0.5-0.8l-2.5-0.8l-0.7-1.9l-0.2-1.7l-1-0.9l0.9-1.2
				l-0.7-3.2l1.7-2L491.6,115L491.6,115z M749.7,170.6l-0.6,0.4l-0.1,0.2l0-0.5L749.7,170.6z M872.6,65.5l2.2-0.1l3.2,1.2l-2.4,1.1
				l-5.6,0.5l-0.3-0.8L872.6,65.5L872.6,65.5z M798,48.2l-2,1.4l-3.8-0.4l-4.3-1.8l0.4-1L798,48.2L798,48.2z M784.3,45.8l-1.6,3.1
				l-9-0.1l-4.1,1.1l-4.5-3l1.2-3l3.1-0.9l6.5,0.2L784.3,45.8L784.3,45.8z M778.8,134.8l-0.6-0.9l0.3-0.1L778.8,134.8L778.8,134.8z
				 M778.9,135.3l0.9,3.5l-0.1,3.4l1.1,3.4l2.2,5l-2.9-0.8l-0.5,0.3l-1.5,4.7l2.4,3.5l0,1.1l-1.2-1.2l-0.6,0.1l-1.1,1.6l-0.3-1.6
				l0.3-3.1l-0.3-3.4l0.6-2.5l0.1-4.4l-1.5-3.4l0.2-4.3l2.2-1.5L778.9,135.3L778.9,135.3z M772.5,56.3l1.8-1.4l2.9-0.4l3.3,1.7
				l0.1,0.6l-3.3,0L772.5,56.3L772.5,56.3z M684.2,30.7l-13,1.9l4-6.4l1.8-0.6l1.7,0.3l6,3L684.2,30.7z M671.2,27.6l-5.1,0.6
				l-6.9-1.6l-4-2.1l-2.1-4.2l-2.6-0.9l5.7-3.5l5.2-1.3l4.7,2.9l5.6,5.4L671.2,27.6L671.2,27.6z M564.4,68.7l-0.6,0.2l-7.9-0.6
				l-0.9-2l-4.3-1.2l-0.3-1.9l2.3-0.9l0.3-0.4l-0.1-2.4l4.8-4l-0.2-0.7l-1.5-0.4l5.3-3.8l0.2-0.4l-0.6-1.9l5.3-2.5l8.2-3.3l8.3-1
				l4.4-1.9l4.6-0.6l1.4,1.6l-1.3,1.3l-16.5,4.9l-8,4.9l-7.8,9.6l0.7,4.1L564.4,68.7L564.4,68.7z M549,18.1l-5.5,1.2l-0.6,1
				l-2.6,0.8l-2.1-1.1l1.1-1.4L539,18l-2.3-0.1l1.7-0.4l3.5-0.1l0.4,1.3l0.7,0.2l1.4-1.3l2.2-0.9l2.9,1L549,18.1L549,18.1z
				 M477.4,133l-4.1,0.1l-2.6-0.3l0.3-0.9l3.2-1l3.2,1L477.4,133L477.4,133z"/>
			<path id="XMLID_295_" class="st2" d="M497.1,288.3l0.7,1l-0.1,1.1l-1.6,0l-1,1.4l-0.8-0.1l0.5-1.2l0.1-1.3l0.4-0.4l0.7,0.1
				L497.1,288.3L497.1,288.3z"/>
			<path id="XMLID_294_" class="st2" d="M469.5,163.9l0.4-0.5l0-0.5l-1.2-1.6l1.4-0.6l1.3,0.1l1.2,1.1l0.5,1.1l1.3,0.6l0.4,1.4
				l1.5,0.9l0.8-0.3l0.2,0.7l-0.5,0.8l0.2,1.1l1.1,1.2l-0.8,0.8l-0.4,1.5l-1.2,0.1l0.2-0.6l-0.4-0.5l-2.1-1.6l-0.9,0.1l-0.5,0.9
				l-2.1-1.4l0.5-1.6l-1.1-1.4l0.5-1.1L469.5,163.9L469.5,163.9z"/>
			<path id="XMLID_293_" class="st2" d="M735.1,308.1l-0.1-1l4.5-0.9l-2.8,1.3L735.1,308.1L735.1,308.1z"/>
			<path id="XMLID_290_" class="st2" d="M553.2,173.7l0,0.3l-0.1-0.2L553.2,173.7z M556.1,172.6l0.5-0.1l1.5,0.7l2.1,2.4l4.1-0.2
				l0.4-0.5l-0.3-1.2l1.9-0.9l1.9-1.6l2.9,1.4l0.4,2.5l1.2,0.7l2.6-0.1l0.6,0.4l1.3,3.1l4.5,3.4l2.7,1.5l3.1,1.1l0,1.1l-1.3-0.8
				l-0.6,0.2l-0.3,0.8l-2.2,0.8l-0.5,2.1l-1.2,0.7l-1.9,0.4l-0.7,1.3l-1.6,0.3l-2.2-0.9l-0.2-2.2l-0.4-0.4l-1.7-0.1l-2.8-2.5
				l-2.1-0.4l-2.8-1.5l-1.8-0.3l-1.2,0.5l-1.6-0.1l-2,1.7l-1.7,0.4l-0.4-1.6l0.4-3l-0.2-0.4l-1.7-0.8l0.5-1.7l-0.3-0.5l-1.2-0.1
				l0.4-1.6l2.2,0.6l2.2-1l0.1-0.7l-1.8-1.7L556.1,172.6L556.1,172.6z"/>
			<path id="XMLID_289_" class="st2" d="M598,178.7l-2.5-0.4l-0.5,0.3l-0.2,1.7l0.4,0.5l2.6-0.2l3.2,1l4.4-0.4l0.6,2.4l0.5,0.3
				l0.7-0.2l1.1,0.5l0.2,2.1l-3.8-0.2l-1.8,1.3l-1.8,0.7l-0.6-0.6l0.2-2.2l-0.6-0.5l-0.1-0.9l-1.4-0.7l-0.5,0.1l-1.1,1l-0.6,1.5
				l-1.3-0.1l-1,1.2l-0.9-0.4l-1.9,0.7l1.3-2.8l-0.5-2.2l-1.7-0.8l0.3-0.7l2.2,0l1.2-1.6l0.8-1.8l2.4-0.5l-0.3,1L598,178.7
				L598,178.7z"/>
			<path id="XMLID_288_" class="st2" d="M487.6,154.1l0.6,0.2l2.9,4l-0.2,2.7l0.5,1.4l1.3,0.8l1.4-0.4l0.8,0.4l0,0.3l-0.8,0.5
				l-0.6-0.2l-0.5,0.3l-0.6,3.3l-1-0.2l-2.1-1.1l-3,0.7l-1.3,0.8l-3.5-0.2l-1.9-0.5l-0.9,0.2l-0.8-1.3l0.3-0.3l-0.1-0.6l-1.1-0.3
				l-0.6,0.5l-1.1-0.6l-0.4-1.4l-1.4-0.7l-0.4-1l-0.8-0.8l1.5-0.5l2.7-4.2l2.4-1.2l3,0.3l1.5,0.7l0.8-0.5l1.8-0.3l0.8-0.7H487.6
				L487.6,154.1z"/>
			<path id="XMLID_287_" class="st2" d="M386.1,253.6l-0.3,0.8l0.2,0.6l-2.2,0.6l-0.9,1l-1-0.8l-1.1-0.2l-0.5-1.1l-0.7-0.5l2.4-0.5
				L386.1,253.6z"/>
			<path id="XMLID_286_" class="st2" d="M194.7,249.8l-2.5-0.4l-1-0.5l-1.1-0.9l0.3-1l-0.2-0.7l1-1.7l3,0l0.4-0.4l-0.2-1.3l-1.7-1.4
				l0.5-0.4v-1.1l3.9,0l-0.2,4.5l0.4,0.4l1.5,0.4l-1.5,1l-0.4,0.7l0.1,0.6L194.7,249.8L194.7,249.8z"/>
			<path id="XMLID_282_" class="st2" d="M487.2,174.5l-0.6,1.4l-0.4,0.2l-2.8-0.4l-3,0.8l-0.2,0.7l1.3,1.2l-0.6,0.2h-1.1l-1.2-1.4
				l-0.6,0l-0.5,1l0.6,1.8l1,1.2l-0.6,0.4l-0.1,0.6l2.5,2.1l0,0.9l-1.8-0.6l-0.5,0.6l0.5,1l-1.1,0.2l-0.3,0.5l0.8,2l-1,0l-1.8-1.1
				l-1.4-4.2l-2.2-3l-0.1-0.6l1-1.3l0.2-1l0.9-0.7l0-0.5l1.3-0.2l1-0.6l1.2,0.1l0.7-0.6h2.3l1.8-0.8l1.9,1l2.3-0.3l0.4-0.4l0-0.8
				L487.2,174.5L487.2,174.5z M480.6,192.1l0.6,0.4l-0.7-0.1L480.6,192.1L480.6,192.1z M482.6,192.7l2.5,0.1l0.2,0.3l-2,0.1
				L482.6,192.7L482.6,192.7z"/>
			<path id="XMLID_281_" class="st2" d="M448.8,279.7l0,2.2h-4.1l0.7-2.3L448.8,279.7z"/>
			<path id="XMLID_280_" class="st2" d="M277.1,270.1l-0.3,1.8l-1.3,0.6l-0.2,0.5l-0.3,2l1.1,1.8l0.8,0.2l0.3,1.3l1.1,1.6l-1.2-0.2
				l-1.1,0.7l-1.8,0.5l-0.4,0.5l-0.9-0.1l-1.3-1l-0.8-2.3l0.4-1.9l0.7-1.2l-0.6-1.2l-0.7-0.4l0.1-1.2l-0.9-0.7l-1.1,0.1l-1.3-1.5
				l0.5-0.7l0-0.8l2-0.9l0.1-0.6l-0.7-0.8l0.1-0.6l1.7-1.2l1.4,0.8l1.4,1.5l0.1,1.2l0.4,0.4l0.8,0.1L277.1,270.1L277.1,270.1z"/>
			<path id="XMLID_279_" class="st2" d="M521.9,168.8l5.3,0.9l4.1,2l1.4-0.4l2.1,0.6l0.7,1.1l1.1,0.6l-0.1,0.6l1,1.3l-1-0.1
				l-1.8-0.8l-0.9,0.5l-3.2,0.4l-2.3-1.4l-2.3,0.1l0.2-1l-0.8-2.3l-1.5-1.1l-1.4-0.4L521.9,168.8L521.9,168.8z"/>
			<path id="XMLID_276_" class="st2" d="M412.6,118.5l-2.2,3.2v0.5l5.1-0.3l-0.5,2.4l-2.2,3.1l0.3,0.6l2.4,0.2l2.3,4.3l1.8,0.7
				l2.2,5.1l2.9,0.8l-0.2,1.6l-1.2,0.9l-0.1,0.5l0.8,1.4l-1.9,1.4l-3.3,0l-4.1,0.9l-1-0.6l-0.5,0.1l-1.5,1.4l-2.1-0.3l-1.9,1.2
				l-0.6-0.3l3.2-3l2.2-0.7l0.3-0.4l-0.3-0.4l-3.7-0.5l-0.4-0.8l2.2-0.9l0.2-0.6l-1.3-1.7l0.4-1.7l3.4,0.3l0.4-0.3l0.4-2l-1.8-2.5
				l-3.1-0.7l-0.4-0.6l0.8-1.4l0-0.5l-0.8-1l-0.6,0l-0.7,0.8l-0.1-2.3l-1.2-1.9l0.9-3.5l1.8-2.7l1.9,0.3L412.6,118.5L412.6,118.5z
				 M406.2,132.7l-1,1.8l-1.6-0.6l-1.2,0l0.4-1.5l-0.4-1.4l1.5-0.1L406.2,132.7L406.2,132.7z"/>
			<path id="XMLID_275_" class="st2" d="M453.3,279.6l-0.1,1l0.7,1.3l2.4,0.2l-1,2.6l1.2,1.8l0.3,1.8l-0.3,1.5l-0.6,0.9l-1.8-0.1
				l-1.2-1.1l-0.7,0.2l-0.2,0.8l-1.4,0.3l-1,0.7l-0.1,0.5l0.8,1.4l-1.3,1l-3.9-4.3l-1.4-2.5l0.1-0.6l0.5-0.8l1.1-3.5l4.2-0.1
				l0.4-0.4l0-2.7l2.4,0.2L453.3,279.6L453.3,279.6z"/>
			<path id="XMLID_274_" class="st2" d="M391.7,254.1l0.5,0.8l1.1-0.3l1,0.7l1.1,0.2l2.3-1.2l0.6,0.4l1.1,1.6l-0.5,1.4l0.8,0.3
				l-0.1,0.5l0.5,0.7l-0.4,1.4l1.1,2.6l-1,0.7l0,1.4l-0.7-0.1l-1.1,1l-0.2-0.3l0.1-1.1l-1.1-1.5l-1.8,0.2l-0.4-2l-1.6-2.2h-2
				l-1.3,0.5l-2,2.2l-1.9-2.2l-1.2-0.8l-0.3-1.1l-0.8-0.9l0.7-0.7l0.8,0l1.6-0.8l0.2-1.9l2.7,0.6l0.9-0.3L391.7,254.1L391.7,254.1z"
				/>
			<path id="XMLID_271_" class="st2" d="M379.2,251.4l0.1-0.4l2.4-0.1l0.7-0.6l0.5,0l0.8,0.5l-1-0.3l-1.9,0.9L379.2,251.4
				L379.2,251.4z M383.9,250.9l0.9,0.1l0.8-0.2l-0.6,0.3L383.9,250.9L383.9,250.9z"/>
			<path id="XMLID_270_" class="st2" d="M352.9,0.8l14.7,4.7l-3.7,1.9l-23,0.9l-0.4,0.3l0.1,0.4l1.6,1.2l8.8-0.7l7.5,2.1l4.9-1.8
				l1.7,1.7l-2.5,3.2l0,0.5l0.5,0.2l6.4-2.2l12.1-2.3l7.3,1.1l1.1,2l-9.8,4l-1.4,1.3l-7.9,1l-0.4,0.4l0.4,0.4l5.1,0.2l-2.5,3.6
				l-2.1,3.8l0.1,6.1l2.6,3.1l-3.2,0.2l-4.1,1.7l-0.1,0.7l4.5,2.7l0.5,3.8l-2.3,0.4l-0.3,0.6l2.8,3.7l-4.8,0.3l-0.4,0.3l0.2,0.4
				l2.6,1.8l-0.6,1.2l-3.3,0.7l-3.5,0l-0.3,0.7l3,3.1l0,1.3l-4.4-1.7l-1.7,1.4l0.2,0.7l3.3,1.2l3.1,2.7l0.8,3.2l-3.9,0.8l-4.9-4.3
				l-0.5,0l-0.2,0.4l0.8,2.9l-2.7,2.2l-0.1,0.4l0.4,0.3l8.7,0.3l-12.3,6.7l-7.3,1.5l-2.9,0.1l-2.7,1.8l-3.4,4.4l-5.2,2.8l-1.7,0.2
				l-7.1,2.1l-2.2,2.5l-0.1,3l-1.2,2.5l-4,3.1l-0.1,0.4l1,2.9l-2.3,6.5l-3.1,0.2l-3.8-3.1l-4.9,0l-2.3-1.9l-1.7-3.8l-4.3-4.8
				l-1.2-2.5l-0.4-3.8l-3.3-3.6l0.8-2.9l-1.6-1.7l2.3-4.6l3.8-1.7l1-2l0.5-3.5l-0.6-0.4l-4.2,2.2l-2.1,0.6l-2.7-1.3l-0.2-2.7
				l0.9-2.1l2-0.1l5.1,1.2l0.5-0.2l-0.1-0.5l-6.6-4.5l-2.7,0.6l-1.6-0.9l2.6-4l0-0.5l-1.5-1.7l-5-8.5l-3.1-2l0-1.9l-0.2-0.4l-6.9-3
				l-5.4-0.4l-12.7,0.6l-2.8-1.6l-3.7-2.8l5.7-1.5l5-0.3l0.4-0.4l-0.4-0.4l-10.7-1.4l-5.3-2.1l0.3-1.5l18.4-5.3l1.2-2.3l-0.3-0.6
				l-6.2-1.9l1.7-1.8l8.6-4l3.6-0.6l0.3-0.5l-0.9-2.3l5.5-1.5l7.7-1l7.6-0.1l3,1.9l6.5-3.3l5.8,2.2l3.6,0.5l5.2,1.9l0.5-0.2
				l-0.2-0.5l-5.7-3.1l0.3-2.1l8.1-3.6l8.7,0.3l3.4-2.3l8.7-0.6L352.9,0.8L352.9,0.8z"/>
			<path id="XMLID_269_" class="st2" d="M420.5,257.5l0,0.7l1,1.2l0.2,3.7l0.6,1l-0.5,2.1l0.2,1.4l1,2.2l-7,2.8l-1.8-0.6l0-0.9l-1-2
				l0.6-2.7l1.1-2.3l-1-6.5l5,0.1l0.9-0.4L420.5,257.5L420.5,257.5z"/>
			<path id="XMLID_268_" class="st2" d="M568.3,230.9l-0.9,1.7l-1.2,0l-0.6,0.8l-0.4,1.5l0.3,1.6l-1.2,0.1l-1.6,1l-0.8,1.7l-1.6,0.1
				l-1,0.7l-0.2,1.2l-0.9,0.5l-1.5-0.2l-2.4,0.9l-2.5-5.4l7.4-2.7l1.7-5.2l-1.1-2.1l0.1-0.8l0.7-1l0.1-1.1l0.9-0.4l-0.1-2.1l0.7,0
				l1,1.6l1.5,1.1l3.3,0.8l1.7,2.3l0.8,0.4l-1.2,2.4L568.3,230.9L568.3,230.9z"/>
			<path id="XMLID_267_" class="st2" d="M448.1,188.2l-1,1.3l0,1.3l0.8,0.9l-0.3,2.1l-1.5,1.3l-0.1,0.4l0.5,1.5l1.4,0.3l0.5,1.1
				l0.9,0.5l-0.1,1.7l-3.5,2.6l-0.1,2.4L445,206l-1-4.5l-1.5-1.3l-0.2-0.8l-1.9-1.6l-0.2-1.8l1.5-1.6l0.6-2.3l-0.4-2.8l0.4-1.2
				l2.5-1.1l1.3,0.3l-0.1,1.1l0.6,0.4L448.1,188.2L448.1,188.2z"/>
			<path id="XMLID_266_" class="st2" d="M518.8,201.3l-5.1,1.6l-0.2,0.7l2.2,2.4l-0.9,1.1l-1.7,0.3l-1.7,1.8l-2.3-0.4l1.2-4.3
				l0.6-4.1l2.8,0.9l4.5-2.7L518.8,201.3L518.8,201.3z"/>
			<path id="XMLID_263_" class="st2" d="M455.6,162.7l1.1,0.1l-0.8,0.9L455.6,162.7L455.6,162.7z M457,162.8l0.6-0.4l1.7,0.5
				l0.4-0.4l0-0.6l0.9-0.5l0.2-1.1l1.6-0.7l2.6,1.7l2.1,0.6l0.9-0.3l1.1,1.6l-0.5,0.6l-1.1-0.6l-1.7,0l-2.1-0.5l-1.3,0.1l-0.6,0.5
				l-0.6-0.5l-0.6,0.2l-0.5,1.7l1.8,2.4l2.8,2.8l-1.2-0.9l-2.2-0.9l-1.7-1.8l0.1-0.6l-1.1-1.2l-0.3-1.3L457,162.8L457,162.8z"/>
			<path id="XMLID_259_" class="st2" d="M236.7,238.4l-1.2,0.4l-0.9-0.6l0.1-0.2L236.7,238.4L236.7,238.4z M237.2,238.4l1.1,0.1
				l-0.1,0L237.2,238.4L237.2,238.4z M238.9,238.5l0.8-0.5l0.1-0.6l-1-1l0-0.8l-0.3-0.4l-0.9-0.3l3.2,0.5l0,1.8l-0.5,0.3l-0.1,0.6
				l0.5,0.7L238.9,238.5z"/>
			<path id="XMLID_258_" class="st2" d="M462.1,157.8l0.7-1.6l-0.1-0.4h0.6l0.4-0.3l0.1-0.7l1.8,0.9l2.3-0.4l0.4-0.7l3.5-0.8
				l0.7-0.8l0.6-0.1l2.6,0.9l0.7-0.2l1,0.7l0.1,0.4l-1.4,0.7l-2.6,4.1l-1.8,0.5l-1.7-0.1l-2.7,1.2l-1.9-0.5l-2.5-1.7L462.1,157.8
				L462.1,157.8z"/>
			<path id="XMLID_257_" class="st2" d="M199.2,249.5l-1.7-1.2l0.1-0.9l3-2.1l2.4,0.3l1.3-0.1l1.1-0.5l1.3,0.3l1.1-0.3l1.4,0.4
				l2.2,1.4l-2.4,0.9l-1.2-0.4l-0.9,1.3l-1.3,1l-1-0.2l-0.4,0.5l-1,0.1l-0.4,0.4l0,0.9l-0.5,0.6l-0.3,0l-0.3-0.6l-0.7-0.3l0.1-0.7
				l-0.5-0.7l-0.9-0.3L199.2,249.5L199.2,249.5z"/>
			<path id="XMLID_256_" class="st2" d="M255.9,238.7l-0.3,0.3l-2.8,0.1l-0.1-0.6l2-0.1L255.9,238.7L255.9,238.7z"/>
			<path id="XMLID_253_" class="st2" d="M509.3,203l0.1-0.1L509.3,203L509.3,203L509.3,203z M509.5,202.9l0-0.6l-0.3-0.2l0.3-1.1
				l0.2,0.1L509.5,202.9z"/>
			<path id="XMLID_252_" class="st2" d="M401.8,187.3l-0.6,0.5l-1.1-0.4l-0.9,0.2l0.3-1.8l-0.2-1.8l-1.3-0.6l-0.5-0.8l0.2-1.7l1-1.2
				l0.7-2.9l0-1.4l-0.6-1.9l1.3-0.9l0.8,1.4l3.1-0.3l0.5,1l-1.1,0.9l0,2.2l-0.4,0.6l-0.1,1.1l-0.8,0.2l-0.3,0.6l0.9,1.6l-0.6,1.8
				l0.8,1.1l-1.1,1.5L401.8,187.3L401.8,187.3z"/>
			<path id="XMLID_251_" class="st2" d="M274.6,336.3l0.7,1.5l-0.2,3.5l0.3,0.4l2.6,0.5l1.1-0.5l1.4,0.6l0.4,0.6l0.5,3.4l1.3,0.4
				l1-0.4l0.5,0.3v1.2l-1.2,5.3L281,355l-1.8,0.4l-4.7-1l2.2-3.6l-0.3-1.5l-2.8-1.3l-3-1.9l-2.1-0.4l-4.3-4.1l0.9-2.9l0.1-1.4l1.1-2
				l4.1-0.7l2.2,0l2.1,1.2L274.6,336.3L274.6,336.3z"/>
			<path id="XMLID_250_" class="st2" d="M213.4,263.7l0.3-1.5l-0.4-0.3l0-0.5l0.4-0.1l0.9,1.4l1.3,0l0.8,0.5l1.4-0.2l2.5-1.1
				l0.9-0.7l3.5,0.9l1.4,1.2l0.4,1.7l-0.2,0.3l-0.5-0.1l-0.5,0.3l-0.2,0.6l-0.7-1.3l0.5-0.5l-0.2-0.7l-0.5-0.1l-0.5-0.8l-1.5-0.8
				l-1.1,0.2l-0.8,1l-1.6,0.8l-0.2,1l0.9,1l-0.6,0.5l-0.7,0.1l-0.3-1.2l-1.3,0l-0.7-1.1L213.4,263.7L213.4,263.7z"/>
			<path id="XMLID_244_" class="st2" d="M809.2,299l2.5,2.6l-0.1,0.3l-0.3,0.1l-0.9-0.8L809.2,299L809.2,299z M802,293.1l0.5,0.3
				l0.3,0.3l-0.5-0.4L802,293.1z M803.8,294.7l0.6,0.5l0.1,1.1l-0.3-0.9L803.8,294.7L803.8,294.7z M797.3,298.5l0.5,0.8l1.4-0.2
				l2.3-1.8l0-1.4l1.1,0.2l0,1.1l-0.7,1.3l-1.1,0.2l-0.6,0.8l-2.5,1.1h-1.2l-3.1-1.3h3.4L797.3,298.5L797.3,298.5z M789.7,303.7
				l2.3,1.8l1.6,2.6l1.3,0.1l-0.1,0.7l0.3,0.4l1.1,0.2l0.1,0.7l2.3,1.1l-1.2,0.1l-0.7-0.6l-4.6-0.7l-3.2-2.9l-1.5-2.3l-3.3-1.1
				l-2.4,0.7l-1.6,0.9l-0.2,0.4l0.3,1.6l-1.6,0.7l-1.4-0.4l-2.2-0.1l-0.1-15.4l8.4,2.9l3,2.4l0.6,1.6l4,1.5l0.3,0.7l-1.8,0.2
				l-0.3,0.5L789.7,303.7L789.7,303.7z"/>
			<path id="XMLID_243_" class="st2" d="M244.6,295.3l-1.3-0.1l-0.6,0.4l-1.9,0.5l-3,1.8l-0.4,1.4l-0.6,0.8l0.1,1.4l-1.2,0.6
				l-0.2,1.2l-0.6,0.8l1,2.3l1.3,1.4l-0.4,0.8l0.3,0.6l1.5,0.1l1.2,1.4l2.2,0.1l1.6-1.1l-0.1,3l0.3,0.4l1.1,0.3l1.3-0.3l1.9,3.6
				l-0.5,0.9l-0.2,3.9l-0.9,1.6l0.4,0.8l-0.5,1.1l1,2l-2.1,3.8l-1,0.5l-2.2-1.3l-0.4-1.2l-5-2.6l-4.5-2.8l-1.8-1.5l-0.9-1.8l0.3-1
				l-2.1-3.3l-4.8-9.7l-1-1.2l-0.9-1.9l-3.4-2.5l0.6-1.2l-1.1-2.2l0.7-1.5l1.5-1.2l-0.6,1l0.1,0.9l0.5,0.4l1.7,0l1,1.2l0.5,0.1
				l1.4-1l0.6-1.8l1.4-2l3-1l2.7-2.6l0.9-1.7l-0.1-1.9l1.4,1l0.9,1.3l1.1,0.6l1.7,2.7l1.9,0.3l1.5-0.6l1,0.4l1.4-0.2l1.5,0.9
				l-1.4,2.2l0.3,0.6l0.6,0.1L244.6,295.3L244.6,295.3z"/>
			<path id="XMLID_242_" class="st2" d="M615.4,192.3l-1.8,1.8l-2.6,0.4l-3.7-0.7l-1.6,1.3l-0.1,0.4l1.8,4.4l1.7,1.2l-1.7,1.3
				l-0.1,2.1l-2.3,2.6l-1.6,2.8l-2.5,2.7l-3-0.1l-2.8,2.8l0.1,0.6l1.5,1.1l0.3,1.9l1.4,1.5l0.4,1.7l-5,0l-1.8,1.7l-1.4-0.5l-0.8-1.9
				l-2.3-2.2l-11.6,0.9l0.7-2.3l3.4-1.3l0.3-0.4l-0.2-1.2l-1.2-0.7l-0.3-2.5l-2.3-1.1l-1.3-1.9l2.8,0.9l2.6-0.4l1.4,0.3l0.8-0.6
				l1.7,0.2l3.3-1.1l0.3-0.4l0.1-2.2l1.2-1.3h1.7l0.6-0.8l1.6-0.3l1.2,0.2l1-0.8l0-1.9l0.9-1.5l1.5-0.7l0.2-0.6l-0.7-1.3l2-0.1
				l0.7-1l0-1.2l1.1-1.1l-0.2-1.8l-0.5-1l1.2-1l5.4-0.9l2.6-0.8l1.6,1.2l1,2.3L615.4,192.3L615.4,192.3z"/>
			<path id="XMLID_231_" class="st2" d="M737.5,263.9l0.4,3l-0.4,1.2l-0.6-1.5l-0.7-0.1l-1.2,1.3l0.7,2.1l-0.4,0.7l-2.5-1.2
				l-0.6-1.5l0.7-1l-0.1-0.5l-1.6-1.2l-0.6,0.1l-0.7,0.9h-1.2l-1.6,1l0.8-1.8l2.6-1.4l0.7,0.8l0.5,0.1l1.9-0.7l0.6-1.1l1.5-0.1
				l0.4-0.4l-0.1-1.2l1.2,0.7L737.5,263.9L737.5,263.9z M734.1,256.6l0.1,0.8l0.1,0.3l-0.8-0.4l-0.2-0.7L734.1,256.6z M734.6,256.1
				l-0.1-1.1l-1-1.3l1.4,0l0.5,0.7l0.5,2L734.6,256.1L734.6,256.1z M734.3,257.7l0.4,1l-0.3,0.2L734.3,257.7L734.3,257.7z
				 M725.1,238.4l1.5,0.7l0.7-0.3L727,240l0.8,1.7l-0.6,1.8l-1.5,1l-0.4,2.3l0.6,2l1.6,0.6l1.2-0.3l2.7,1.2l-0.2,1.1l0.8,0.8
				l-0.1,0.4l-1.4-0.9l-0.9-1.3h-0.7l-0.4,0.6l-1.6-1.3l-2.2,0.4l-0.9-0.4l0.1-0.6l0.7-0.6l0-0.6l-0.8-0.6l-0.7,0.4l-0.7-0.9
				l-0.4-2.5l0.3,0.3l0.7-0.3l0.3-4l0.7-2H725.1L725.1,238.4z M731.5,258.9l-0.9,0.9l-1.2,1.9l-1.1-1.2l0.9-1.1l0.3-1.5l0.5-0.1
				l-0.3,1.2l0.2,0.5l0.5-0.1l1-1.3L731.5,258.9L731.5,258.9z M727.3,255.8l0.8,0.4h1.2l0,0.5l-2,1.4L727.3,255.8L727.3,255.8z
				 M725.3,252.1l-0.4,1.3l-1.4-2l1.2,0.1L725.3,252.1L725.3,252.1z M717,261.9l1.1-1l0,0l-0.3,0.4L717,261.9L717,261.9z
				 M719.7,259.1L719.7,259.1l0.8-1.6l0.2,0.8L719.7,259.1L719.7,259.1z"/>
			<path id="XMLID_230_" class="st2" d="M468.5,149.3l-1.1-1.5l-1.9-0.3l-0.5-1.1l-1.7-0.4l-0.7,0.7l-0.7-0.4l0.1-0.6l-0.3-0.5
				L460,145l-1-0.9l-0.9-1.9l0.2-1.2l-0.6-1.8l-0.8-1.1l0.6-1l-0.5-1.4l1.4-0.8l6.9-2.7l2.1,0.5l0.5,0.9l5.5,0.4l4.6-0.1l1.1,0.3
				l0.5,0.8l0.2,1.6l0.7,1.2l0,1l-1.3,0.6l-0.2,0.5l0.7,1.5l0.1,1.6l1.2,2.8l-0.2,0.6l-1.2,0.4l-2.3,2.7l0.2,1l-2-1l-2,0.4l-1.4-0.3
				l-1.2,0.6l-1.1-1L468.5,149.3L468.5,149.3z"/>
			<path id="XMLID_229_" class="st2" d="M481.5,313.4l0.4,0.3l2.5,0.1l1,1.2l2,0.4l1.4-0.6l0.7,1.2l1.8,0.3l1.8,2.4l2.2,0.2l0.4-0.4
				l-0.2-2.7l-0.6-0.3l-0.5,0.3l-2-1.2l0.7-5.3l-0.5-1.2l0.6-1.3l3.7-0.6l0.3,0.6l1.2,0.6l0.9-0.2l2.2,0.7l1.3,0.7l1.1,1l0.6,1.9
				l-0.9,2.7l0.4,2.1l-0.7,0.9l-0.8,2.4l0.6,0.7l-6.6,1.8l-0.3,0.4l0.2,1.5l-1.7,0.4l-1.4,1l-0.4,0.9l-0.9,0.3l-3.5,3.7l-4.2-0.5
				l-1.5-1l-1.8-0.1l-1.8,0.5l-3-3.4l0.1-7.6l4.8,0l0.4-0.5l-0.2-0.8l0.3-0.8l-0.4-1.4L481.5,313.4L481.5,313.4z"/>
			<path id="XMLID_226_" class="st2" d="M384.3,230.3l0.3-0.8l1.1-1.3l0.8-3.5l3.4-2.8l0.7-1.8l0.1,4.8l-2,0.2l-0.9,1.6l0.4,3.6
				L384.3,230.3L384.3,230.3z M391.9,218.1l0.7-1.8l1.8-0.2l2.1,0.3l1-0.6l1.3-0.1v2.5L391.9,218.1L391.9,218.1z"/>
			<path id="XMLID_225_" class="st2" d="M485.8,114.8l2.6,0.6l2.6,0.1l-1.6,1.9l0.6,3.5l-0.8,0.9l-1.8,0l-3.2-1.8l-1.8,0.5l0.2-1.5
				l-0.6-0.4l-0.7,0.3l-1.3-1l-0.2-1.6l2.8-0.9L485.8,114.8L485.8,114.8z"/>
			<path id="XMLID_224_" class="st2" d="M492.2,205l1.5,0.4l3-1.6l2-0.2l1.5,0.3l0.6,1.2l0.7,0l0.4-0.6l1.8,0.6l2,0.2l1-0.5l1.4,4.1
				l-2,4.5l-1.7-1.8l-1.8-3.9l-0.6-0.1l-0.4,0.7l1,2.9l3.4,7l1.8,3l2,2.7l-0.4,0.5l0.2,2l2.7,2.2H484v-19l-0.7-2.2l0.6-1.6l-0.3-1.3
				l0.7-1l3.1,0L492.2,205L492.2,205z"/>
			<path id="XMLID_221_" class="st2" d="M467.2,373.4l-0.1-2l-0.7-1.6l0.7-0.7l-0.1-2.3l-4.6-8.2l0.8-0.9l0.6,0.5l0.7,1.3l2.8,0.7
				l1.5-0.3l2.2-1.4l0.2-9.6l1.4,2.3l-0.2,1.5l0.6,1.2l0.4,0.2l1.8-0.3l2.6-2.1l0.7-1.3l1-0.5l2.2,1l2,0.1l1.8-0.7l0.9-2.1l1.4-0.3
				l1.6-2.8l2.2-1.9l3.4-1.9l2,0.5l1-0.3l1,0.2l1.8,5.3l-0.4,3.3l-0.8-0.2l-1,0.5l-0.9,1.7l-0.1,1.2l2,1.8l1.5-0.3l0.7-1.2l1.1,0
				l-0.8,3.7l-0.6,1.1l-2.2,1.8l-3.2,4.8l-2.8,2.8l-3.6,2.9l-2.5,1.1l-1.2,0.1l-0.5,0.7l-1.2-0.3l-1.4,0.5l-2.6-0.5l-1.6,0.3
				l-1.2-0.1l-2.6,1.1l-2.1,0.4l-1.6,1.1l-0.9,0.1l-0.9-0.9l-0.9-0.2l-1-1.1L467.2,373.4L467.2,373.4z M491.5,364.4l0.6-0.9l1.5-0.6
				l1.2-2.2l-0.1-0.5l-2-1.7l-1.7,0.6l-1.4,1.1l-1.3,1.7l0,0.5l1.9,2.1L491.5,364.4L491.5,364.4z"/>
			<path id="XMLID_220_" class="st2" d="M231.5,285.6l0.3,1.6l-0.7,1.5l-2.6,2.5l-3.1,1.1l-1.5,2.2l-0.5,1.7l-1,0.7l-1-1.1l-1.8-0.2
				l0.7-1.2l-0.2-0.9l1.3-2.1l-0.5-1.1l-0.7-0.1l-0.7,0.9l-0.9-0.6l0.4-0.7l-0.4-2l0.8-0.5l0.5-1.5l0.9-1.6l-0.1-1l2.7-1.3l2.8,1.4
				l0.8,1.1l2.1,0.4l0.8-0.3L231.5,285.6L231.5,285.6z"/>
			<path id="XMLID_216_" class="st2" d="M451.6,158.5l3.5,0.9l-0.2,1.2l0.3,0.8l-1.5-0.2l-2,1.1l-0.2,0.4l0.1,1.5l-0.3,1.1l0.8,1.6
				l2.4,1.6l1.3,2.5l2.8,2.4l2.1,0.1l0.2,0.2l-0.4,0.3l0.1,0.7l4.1,2l2.2,1.8l-0.2,0.4l-1.2-1.1l-2.2-0.5l-0.4,0.2l-1.1,1.9l0.1,0.5
				l1.6,1l-0.2,1l-1.1,0.3l-1.3,2.3l-0.4,0.1v-0.3l1-2.5l-1.7-3.2l-1.1-0.5l-0.9-1.3l-1.5-0.5l-1.3-1.3l-1.8-0.2l-4.1-3.2l-1.6-1.7
				l-1-3.2l-3.5-1.4l-1.3,0.5l-1.7,1.4l0.2-0.7l-0.3-0.5l-1.1-0.3l-0.5-2l0.7-0.8l0-0.5l-0.7-1.2l0.8,0.4l1.4-0.2l1.1-0.8l0.5,0.4
				l1.2-0.1l0.8-1.2l1.5,0.3l1.4-0.6l0.4-1.1l1.1,0.3l0.7-0.6l2-0.4L451.6,158.5L451.6,158.5z M459.2,184.7l-0.7,1.7l0.3,1.1
				l-0.3,0.9l-1.5-0.9l-4.5-1.7l0.2-0.8l2.7,0.2L459.2,184.7L459.2,184.7z M443.9,175.9l1.2,1.7l-0.3,3.3l-1.1,0l-0.8,0.7l-0.5-0.4
				l-0.1-3.4l-0.4-1.2l1,0L443.9,175.9L443.9,175.9z"/>
			<path id="XMLID_215_" class="st2" d="M691,230.2l-2.7,1.8l-2.1,2.5l-0.6,2l4.3,6.5l2.3,1.7l1.4,1.9l1.1,4.6l-0.3,4.2l-1.9,1.5
				l-2.8,1.6l-2.1,2.2l-2.7,2.1l-0.6-1.1l0.6-1.5l-0.1-0.5l-1.3-1l1.5-0.7l2.6-0.2l0.3-0.6l-0.8-1.1l4-2.1l0.3-3.1l-0.6-1.8l0.4-2.7
				l-0.7-2l-1.9-1.8l-3.6-5.3l-2.7-1.5l0.4-0.5l1.5-0.6l0.2-0.5l-1-2.3l-0.4-0.2l-2.8,0l-2.2-3.9l0.8-0.4l4.4-0.3l2.1-1.3l1.2,0.9
				l1.9,0.4l-0.2,1.5l1.4,1.2L691,230.2L691,230.2z"/>
			<path id="XMLID_210_" class="st2" d="M827.3,311.7l-0.6,0.1l-0.2-0.3l0.4,0.2L827.3,311.7z M824.8,307.5l-0.3-0.3l-0.3-0.9h0
				L824.8,307.5z M823.7,309.5l-1.7-0.2l-0.2-0.5l1.2,0.3L823.7,309.5L823.7,309.5z M819.9,304.8l1.1,0.7l0,0l-0.8-0.4L819.9,304.8
				L819.9,304.8z"/>
			<path id="XMLID_209_" class="st2" d="M516.2,247.8l1.1,0.8l1.6-0.5l0.7,0.5l1.6,0l2,0.9l1.7,1.7l1.6,2.1l-1.5,2l0.2,1.7l0.4,0.4
				h2.1l-0.4,1l2.9,3.6l8.3,3.1l1.3,0l-6.3,6.8l-3.1,0.1l-2.4,1.8l-1.5,0l-0.9,0.8h-1.4l-1.3-0.8l-2.3,1.1l-0.8,1l-3.3-0.4l-3.1-2.1
				l-1.8-0.1l-0.6-0.6v-1.2l-0.3-0.4l-1.2-0.4l-1.4-2.6l-1.2-0.7l-0.5-1l-1.3-1.2l-1.2-0.2l0.4-0.7l1.5-0.3l0.4-1l0-2.2l0.7-2.4
				l1.1-0.6l1.4-3.1l1.6-1.4l1-2.5l0.4-1.9l2.5,0.5l0.4-0.2L516.2,247.8L516.2,247.8z"/>
			<path id="XMLID_208_" class="st2" d="M525.3,288.6l-1.1-1.6l0-8.9l2.7-3.4l1.7-0.1l2.1-1.7l3.4-0.2l7.1-7.6l2.9-3.7l0.1-4.8
				l3-0.7l1.2-0.9h0.5l-0.2,3l-1.2,3.6l-2.7,6l-2.1,3.7l-5,6.2l-8.6,6.4l-2.8,3.1L525.3,288.6L525.3,288.6z"/>
			<path id="XMLID_207_" class="st2" d="M499,341.3l-1.1-0.2l-0.9,0.3l-2.1-0.4l-1.5-1.1l-1.9-0.4l-0.6-1.4l0-0.8l-0.3-0.4l-1-0.3
				l-2.7-2.7l-1.9-3.3l3.8,0.5l3.7-3.8l1.1-0.4l0.3-0.8l1.3-0.9l1.4-0.3l0.5,0.9l2-0.1l1.7,1.2l1.1,0.2l1.1,0.7l0,3l-0.6,3.8
				l0.4,0.9l-0.2,1.2l-0.4,0.4l-0.6,1.8L499,341.3L499,341.3z"/>
			<path id="XMLID_206_" class="st2" d="M416,169.1l1.1,1.2l4.6,1.4l1.1-0.6l2.6,1.3l2.7-0.3l0.1,1.1L426,175l-3.1,0.6l-0.3,0.3
				l-0.2,0.9l-1.5,1.7l-1,2.4l0.8,1.7l-1.3,1.3l-0.5,1.7l-1.9,0.7l-1.7,2.1l-5.4,0l-1.8,1.1l-0.9,1l-0.9-0.2l-0.8-0.8l-0.7-1.6
				l-2.4-0.6l-0.1-0.5l1.2-1.8l-0.8-1.1l0.6-1.7l-0.8-1.6l0.9-0.5l0.1-1.3l0.4-0.6l0-2.1l1-0.7l0.1-0.5l-1-1.7l-1.5-0.1l-0.6,0.4
				h-1.1l-0.5-1.2l-0.5-0.2l-1.3,0.7l0-1.5l-0.8-1l3-1.9l3,0.5l3.3,0l2.6,0.5L416,169.1L416,169.1z"/>
			<path id="XMLID_205_" class="st2" d="M520.5,246.2l3.4,2.4l3.5,3.8l0.8,0.5l-1,0l-3.5-3.9l-2.3-1.2l-1.7-0.1l-0.9-0.5l-1.3,0.5
				l-1.3-1l-0.6,0.2l-0.7,1.6l-2.4-0.4l-0.2-0.7l1.3-5.3l0.6-0.6l2-0.5l0.9-1l1.2,2.4l0.7,2.3L520.5,246.2L520.5,246.2z"/>
			<path id="XMLID_204_" class="st2" d="M469,172.4l-1.2-1l0.5-1.8l0.9-0.7l2.3,1.5l-0.5,0.6l-0.8-0.3L469,172.4L469,172.4z"/>
			<path id="XMLID_203_" class="st2" d="M488.5,153.6l1.4-0.3l1.7,0.9l1.1,0.2l0.9,0.7l-0.1,0.8l1,0.9l1.1,2.5l-1.2-0.1l-0.7-0.4
				l-0.5,0.3l-0.1,0.9l-1.1,1.9l-0.3-0.9l0.3-1.3l-0.2-1.6L488.5,153.6L488.5,153.6z"/>
			<path id="XMLID_202_" class="st2" d="M546.1,319.3l0.4,3l0.6,1.2l-0.2,1l-0.6-0.8l-0.7,0l-0.5,0.8l0.4,2.1l-0.2,0.9l-0.7,0.8
				l-0.2,2.1l-4.7,15.2l-1.1,2.9l-3.9,1.6l-3.1-1.5l-0.6-1.2l-0.2-2.4L530,343l-0.2-1.8l0.4-1.6l1.2-0.8l0-0.8l1.2-2l0.2-1.7l-1.1-3
				l-0.2-2.2l0.8-1.3l0.3-1.5l4.6-1.2l3.4-3l0.9-1.4l-0.1-0.7l0.8,0l1.4-1.8l0.1-1.6l0.5-0.6l1.2,1.7L546.1,319.3L546.1,319.3z"/>
			<path id="XMLID_201_" class="st2" d="M378.7,230l0.1-0.6l0.9-0.7l0.8-1.4l-0.1-1l0.8-1.7l1.3-1.6l1-0.6l0.7-1.6l0.1-1.5l0.8-1.5
				l1.7-1.1l1.6-2.7l1.2-1l2.4-0.4l1.9-1.8l1.3-0.8l2.1-2.3l-0.5-3.7l1.2-3.7l1.5-1.8l4.5-2.6l2.4-4.5l1.4,0l1.7,1.2l2.3-0.2
				l3.5,0.7l0.8,1.5l0.2,1.7l0.9,3l0.6,0.6l-0.3,0.6l-3.1,0.4l-1.3,1.1l-1.3,0.2l-0.3,0.4l-0.1,1.8l-2.7,1l-1.1,1.4l-4.5,1.1l-4,2
				l-0.5,4.6l-1.2,0.1l-0.9,0.6l-2-0.4l-2.4,0.5l-0.7,1.9l-0.9,0.4l-1.1,3.3l-3.5,3l-0.8,3.6l-1,1.1l-0.3,0.8L378.7,230L378.7,230z"
				/>
			<path id="XMLID_200_" class="st2" d="M598.9,172.6l-1.6,1.5l0.1,0.6l1.9,1.1l2-0.6l2.2,1.2l-2.5,1.7l-2.6-0.2l-0.2-0.4l0.5-1.2
				l-0.5-0.5l-3.4,0.7l-2.1,3.5l-1.9-0.1l-1,1.5l0.2,0.6l1.6,0.6l0.5,1.8l-1.2,2.5l-2.7-0.5l0.1-1.4l-0.3-0.4l-3.3-1.2l-2.6-1.4
				l-4.4-3.3l-1.3-3.1l-1.1-0.6l-2.6,0.1l-0.7-0.4l-0.5-2.5l-3.4-1.6l-0.4,0.1l-2.1,1.7l-2.1,1l-0.2,0.5l0.3,1l-1.9,0l-0.1-10.5
				l6-1.7l6.2,3.5l2.7,2.8l7.1-0.7l2.7,2l-0.2,2.8l0.4,0.4l0.9,0l0.4,2.1l0.4,0.3l2.9,0.1l1,1.4l1.3-0.2l1.1-2L598.9,172.6
				L598.9,172.6z"/>
			<path id="XMLID_199_" class="st2" d="M674.3,230.2l-2,1.6l-0.6,1l-1.4,0.6l-1.4,1.1l-2,0.4l-1.1,2.7l-0.9,0.4l-0.2,0.6l1.2,2.3
				l2.5,3.4l-0.8,1.9l-0.7,0.4l-0.2,0.5l0.7,1.4l1.6,2l0.3,2.6l0.9,2.1l-1.9,3.6l0.7-2.3l-0.8-1.7l0.2-2.7l-1.1-1.5l-1.2-6.2
				l-1.1-2.3l-0.6-0.1l-4.3,3l-2.4-0.7l0.8-2.8l-0.5-2.6l-1.9-3l0.3-0.8l-0.3-0.5l-1.3-0.3l-1.6-1.9l-0.1-1.3l0.8-0.2l0-1.6l1-0.5
				l0.2-0.5l-0.2-1l0.5-1l0.1-2.2l1.5,0.5l0.5-0.2l1.1-2.2l0.2-1.4l1.3-2.2V217l2.9-1.7l1.6,0.4l0.5-0.4l-0.2-1.4l0.6-0.4l0.1-1
				l0.8-0.1l0.7,1.4l1.1,0.7l0,3.9l-2.4,2.4l-0.3,3.2l0.5,0.4l2.3-0.4l0.5,2.1l1.5,0.7l-0.6,1.8l0.2,0.5l3,1.5l1.6-0.6L674.3,230.2
				L674.3,230.2z"/>
			<path id="XMLID_198_" class="st2" d="M392.5,254.1l-0.2-2.4l-1-0.9l-0.4-1.3l-0.1-1.3l0.8-0.6l0.4-1.2l2.4,0.7l1.3-0.5l0.9,0.2
				l0.7-0.6l9.8,0l0.4-0.3l0.6-1.8l-0.4-0.7l-2.4-22l3.3,0l16.7,11.4l0.7,1.3l2.5,1.1l0,1.4l0.4,0.4l2.3-0.2l0,5.4l-1.3,1.6
				l-0.3,1.5l-5.3,0.6l-1.1,0.9l-2.9,0.1l-0.9-0.5l-1.4,0.4l-2.4,1.1l-0.6,0.9l-1.9,1.1l-0.4,0.7l-0.8,0.4l-1.4-0.2l-0.8,0.8
				l-0.3,1.6l-1.9,2l-0.1,1l-0.7,1.2l0.1,1.2l-1,0.4l-0.2-0.6l-0.5-0.2l-1.4,0.4l-0.3,0.6l-2.7-0.3l-0.4-0.4l0-0.9l-0.7-0.4l0.5-0.6
				l0-0.5l-2.1-2.4l-0.8,0l-2,1.2l-0.8-0.2l-0.8-0.7L392.5,254.1L392.5,254.1z"/>
			<path id="XMLID_197_" class="st2" d="M677,146.3l3.8,1.7l5.7-1l2.4,0.4l2.3,1.5l1.8,1.8l2.3,0l3.1,0.5l2.5-0.8l3.4-0.6l3.5-2.2
				l1.3,0.3l1.5,1.1l2.3-0.2l-2.7,5l0.6,1.7l0.5,0.2l1.3-0.4l2.4,0.5l2-1.1l1.8,0.9l2.1,2l-0.1,0.5l-1.7-0.3l-3.8,0.5l-1.9,1l-1.8,2
				l-3.7,1.2l-2.5,1.6l-3.8-0.9l-0.4,0.2l-1.3,2l1,2.2l-1.5,0.9l-1.7,1.6l-2.8,1l-3.8,0.1l-4.1,1.1l-2.8,1.5l-1.2-0.9h-2.9l-3.6-1.8
				l-2.6-0.5l-3.4,0.4l-5.1-0.7l-2.6,0.1l-1.3-1.6l-1.4-3l-1.5-0.3l-3.1-1.9l-6.2-0.9l-0.7-1.1l0.9-3.8l-1.9-2.7l-3.5-1.2l-2-1.6
				l-0.5-1.7l2.3-0.5l4.8-2.8l3.6-1.5l2.2,1l2.5,0.1l1.8,1.5l2.5,0.1l4,0.7l2.4-2.3l0.1-0.5l-0.9-1.7l2.2-3l2.6,1.3l4.9,1.2
				L677,146.3L677,146.3z"/>
			<path id="XMLID_196_" class="st2" d="M472.9,173.9l0.5-0.7l3.6-0.7l1,0.8l0.1,1.5l-0.7,0.5l-1.2-0.1l-1.1,0.7l-1.4,0.2l-0.8-0.6
				l-0.3-1L472.9,173.9L472.9,173.9z"/>
			<path id="XMLID_195_" class="st2" d="M505.6,309.4l0.9,2l0.2,2.9l-0.7,1.7l0.7,1.8l0.1,1.3l0.5,0.6l0.1,1.1l0.4,0.6l0.8-0.2
				l0.6,0.6l0.7-0.2l0.3,0.6l0.2,2.9l-1,0.6l-0.5,1.3l-1.1-1.1l-0.2-1.6l0.5-1.3l-0.3-1.3l-1-0.7l-0.8,0.1l-2.4-1.6l0.6-2l0.8-1.2
				l-0.5-2l0.9-2.9l-0.9-2.5l1,0.2L505.6,309.4L505.6,309.4z"/>
			<path id="XMLID_194_" class="st2" d="M407.3,220.6l-2.6,0l-0.4,0.4l2.4,22.6l0.4,0.4l-0.4,1.2l-9.8,0l-0.6,0.5l-0.9-0.1l-1.3,0.5
				l-1.6-0.7l-1,0l-0.4,0.3l-0.4,1.4l-0.4,0.2l-2.9-3.4l-3-1.5l-1.6,0l-1.3,0.5l-1.1-0.2l-0.7,0.4l-0.1-0.5l0.7-1.3l0.3-2.4
				l-0.6-3.9l0.2-1.2l-0.7-1.5l-1.2-1l0.3-0.4l9.6,0l0.4-0.5l-0.5-3.7l0.5-1l2.1-0.2l0.4-0.4l-0.1-6.4l7.8,0.1l0.4-0.4l0-3.3
				L407.3,220.6L407.3,220.6z"/>
			<path id="XMLID_193_" class="st2" d="M498.7,276.4l0.7-0.5l1.7,0.5l2-0.6l1.7,0l1.5-1l0.9,1.3l1.3,4l-2.6,4l-1.5-0.4l-2.5,0.9
				l-1.4,1.6l0,0.8l-2.4,0l-2.3,1l-0.2-1.6l0.6-1l0.1-1.9l1.4-2.3l1.8-1.6l-0.2-0.7l-0.7-0.2L498.7,276.4L498.7,276.4z"/>
			<path id="XMLID_190_" class="st2" d="M717.9,273.5l-1.4,0.7l-2.1-0.4h-2.9l-0.4,0.3l-0.8,2.8l-1,1l-1.2,3.3l-1.7,0.5l-2.5-0.7
				l-1.4,0.3l-1.3,1.2l-1.6-0.1l-1.4,0.4l-1.4-1.2l-0.2-0.7l1.3,0.5l1.9-0.5l0.8-2.2l4-1l2.8-3.2l0.8,0.9l0.6-0.1l0.4-0.7l1,0.1
				l0.4-0.4l0.2-2.7l1.8-1.6l1.2-1.9l0.6,0l1.1,1.1l0.3,1.3l3.4,1.4l-0.1,0.4l-1.4,0.1l-0.4,0.5L717.9,273.5L717.9,273.5z
				 M674.1,269.6l0.2,1.1l0.5,0.3l1.7-0.3l0.9-0.9l1.6,1.5l1,1.6l-0.1,2.8l0.4,2.3l1,0.9l0.9,2.4l-1.3,0.1l-5.1-3.7l-0.3-1.3
				l-1.4-1.6l-0.3-2l-0.9-1.4l0.3-1.7l-0.5-1.1L674.1,269.6L674.1,269.6z"/>
			<path id="XMLID_189_" class="st2" d="M132.6,200.3l0.2,0.5l9.6,3.3l7,0l0.4-0.4V203h3.8l3.6,2.9l1.4,2.8l1.5,1l2.1,0.8l0.5-0.1
				l1.5-2l1.7,0l1.6,1l2.1,3.4l1.5,1.6l1.3,3.1l2.2,1l2.3,0.6l-1.2,3.7l-0.4,5l1.8,4.9l1.6,1.9l0.6,1.5l1.2,1.4l2.6,0.7l1.4,1.1
				l7.6-1.9l1.9-1.3l1.1-4.3l4.1-1.2l3.6-0.1l0.3,0.3l-0.1,0.9l-1.3,1.5l-0.7,1.7l0.4,0.7l-0.7,2.3l-0.5-0.3l-1,0.1l-1,1.4l-0.5-0.1
				l-0.5,0.5l-4.3,0l-0.4,0.4v1.1l-1.1,0.3l0.1,0.4l1.8,1.4l0.6,0.9l-3.2,0.2l-1.2,2.1l0.2,0.7l-0.2,0.4l-2.2-2.2l-1.5-0.9l-2.2-0.7
				l-1.5,0.2l-3.1,1.2l-10.6-3.9l-2.9-2l-3.8-0.9l-1.1-1.2l-2.6-1.4l-1.2-1.5l-0.4-0.8l0.7-0.6l-0.2-0.5l0.5-0.8l0-0.9l-2-3.8
				l-2.2-2.6l-2.5-2.1l-1.2-1.6l-2.2-1.2l-0.3-0.4l0.3-1.5l-0.2-0.5l-1.2-0.6l-1.4-1.2l-0.6-1.8l-1.5-0.5l-2.4-2.6l-0.2-0.9l-1.3-2
				l-0.8-2l-0.2-1.3l-1.8-1.1l-1,0.1l-1.3-0.7l-0.6,0.2l-0.4,1.1l0.7,3.8l3.5,3.9l0.3,0.8l0.5,0.3l0.4,1.4l1.3,1.7l1.6,1.4l0.8,2.4
				l1.4,2.4l0.1,1.3l0.4,0.4l1,0.1l1.7,2.3l-0.9,0.8l-0.7-1.5l-1.7-1.5l-2.9-1.9l0.1-1.8l-0.5-1.7l-2.9-2L136,216l-2-1.1l-0.9-0.9
				l0.7-0.1l0.9-1l0.1-1.8l-1.9-1.9l-1.5-0.8l-3.8-7.6L132.6,200.3L132.6,200.3z"/>
			<path id="XMLID_186_" class="st2" d="M507.9,203l0.4-0.8l0.2,0.4l-0.3,1l0.5,0.4l0.7-0.2l-0.9,3.6l-1.2-3.3l0.6-0.7L507.9,203
				L507.9,203z M508.8,200.3l0.4-1h0.6l0.5-0.5l-0.5,1.5l-0.6-0.2L508.8,200.3L508.8,200.3z"/>
			<path id="XMLID_182_" class="st2" d="M444.5,172.5l-0.6,1.8l-0.6-0.3l-0.5-1.7l0.4-0.9l1-0.7L444.5,172.5L444.5,172.5z
				 M429.6,146.9l1.8,1.6l1.5-0.1l2.1,1.4l1.4,0.3l1.2,0.8l3,0.5l-1,1.9l-0.3,2.1l-0.4,0.3l-1-0.2l-0.5,0.4l0.1,0.6l-1.8,1.9l0,1.4
				l0.6,0.4l0.9-0.4l0.6,1l0,1l0.6,0.9l-0.8,1.1l0.7,2.4l1.3,0.6l-0.2,0.8l-2,1.5l-4.8-0.8l-3.8,1l-0.5,1.9l-2.5,0.3l-2.7-1.3
				l-1.2,0.6l-4.3-1.3l-0.7-0.9l1.2-1.8l0.4-6.5l-2.6-3.3l-1.9-1.7l-3.7-1.2l-0.2-1.7l2.8-0.6l4.1,0.8l0.5-0.5l-0.6-2.8l1.9,1
				l5.8-2.5l0.9-2.7l1.6-0.5l0.2,0.8l1.4,0.3L429.6,146.9L429.6,146.9z M288.8,278.5l-0.8,0.8l-0.8,0.1l-0.5-0.7l-0.6-0.1l-0.9,0.6
				l-0.5-0.2l1.1-3l-1-1.8l-0.2-1.5l1.1-1.8l2.3,0.8l2.5,2l0.3,0.7L288.8,278.5L288.8,278.5z"/>
			<path id="XMLID_181_" class="st2" d="M531.3,259l1.5,0.1l5.1-1l5.3-1.5l0,4.4l-2.7,3.4l-1.9,0l-8.1-2.9l-2.6-3.2l1.1-1.7
				L531.3,259L531.3,259z"/>
			<path id="XMLID_180_" class="st2" d="M492.3,76.1l-0.2,3.5l3.5,2.6l-2.1,2.9l0,0.4l2.8,4.6l-1.6,3.3l2.2,3.2l-0.9,2.4l0.1,0.5
				l3.4,2.5l-0.8,1.6l-7.5,7l-4.5,0.3l-4.4,1.4l-3.8,0.7l-1.4-2l-2.2-1.1l0.5-3.7l-1.2-3.3l1.1-2.1l2.2-2.4l5.7-4.3l1.6-0.8l0.2-0.4
				l-0.5-2l-3.4-1.9l-0.8-1.4l-0.2-6.8l-6.8-4.8l0.8-0.6l2.5,2.1l3.5-0.1l3,1l2.5-2.1l1.2-3.1l3.6-1.4l2.8,1.5L492.3,76.1
				L492.3,76.1z"/>
			<path id="XMLID_177_" class="st2" d="M870.7,327.1l-1.2,0.4l-0.1-0.2l3-1.2l-0.1,0.4L870.7,327.1L870.7,327.1z M868.3,329.4
				l0.4,0.4l-0.3,0.9l-1.2,0.3l-1-0.2L866,330l0.6-0.6l0.9,0.3L868.3,329.4L868.3,329.4z"/>
			<path id="XMLID_176_" class="st2" d="M274.1,426.2l1.4,1.1l-0.5,0.7l-3,0.9l-1-1l-0.5-0.1l-1.8,1.3l-0.7-0.9l2.5-1.6l1.9,0.8
				L274.1,426.2L274.1,426.2z"/>
			<path id="XMLID_175_" class="st2" d="M201.9,252.7l0.8-0.2l1-1l0-0.9h0.7l0.6-0.5l1,0.2l1.5-1.3l0.6-1l1.2,0.3l2.4-0.9l0.1,1.3
				l-0.8,1.9l0.1,2.7l-0.4,0.4l-0.1,1.8l-0.5,0.8l0.2,1.1l-1.7-0.9l-0.7,0.3l-1.5-0.6l-0.5,0.2L201.9,252.7L201.9,252.7z"/>
			<path id="XMLID_174_" class="st2" d="M430.3,143.2l0.6-0.5l2.1-4.8l3.2-1.3l1.7,0.1l0.3,0.8l-0.6,2.9l-0.5,1H436l-0.4,0.5
				l0.3,2.7l-2.2-1.8l-2.6,0.6L430.3,143.2L430.3,143.2z"/>
			<path id="XMLID_169_" class="st2" d="M491.5,67.1l6.8,2.9l-2.3,0.9l-0.2,0.7l2.3,2.4l-5,1.8l0.8-2.5l-0.2-0.5l-3.6-1.8l-3.9,1.5
				l-1.4,3.4l-2.1,1.7l-2.6-1l-3.1,0.2l-2.7-2.2l-0.5,0l-1.4,1.1l-1.4,0.2l-0.4,0.4l-0.3,2.5l-4.3-0.6l-0.4,0.3l-0.6,2.1l-2.5,0.2
				l-4.2,7.7l-3.9,5.8l0.8,1.6l-0.6,1.2l-2.2-0.1l-0.4,0.2l-1.7,3.9l0.2,5.2l1.6,2l-0.8,4.2l-2,2.5l-0.9,1.6l-1.3-1.8l-0.6-0.1
				l-4.9,4.2l-3.1,0.8l-3.2-1.7l-0.9-3.8l-0.8-8.6l2.1-2.3l6.6-3.3l5-4.2L458.3,82l11-8.7l5.4-1.9l4.3,0.1l3.7-3.6l4.5,0.2
				L491.5,67.1L491.5,67.1z M484.6,19.7l4.3,1.8l-3.1,2.6l-7.1,0.7l-7.1-0.9l-0.4-1.3l-0.4-0.3l-3.4-0.1l-2.1-2l6.9-1.4l3.9,1.3
				l2.4-1.6L484.6,19.7L484.6,19.7z M481.8,33.6l-4.5,1.7l-3.5-1l1.1-0.9l0.1-0.6l-1.1-1.2l4.2-0.9l1.1,2L481.8,33.6L481.8,33.6z
				 M466.5,23.7l7.4,3.8l-5.4,1.9l-1.6,4.1l-2.3,1.2l-1.1,4.1l-2.6,0.2l-4.8-2.9l1.8-1.5l-0.1-0.7l-3.7-1.5l-4.8-4.5l-1.7-3.9
				l6.1-1.8l1.5,1.9l3.6-0.1l1.2-2l3.3-0.2L466.5,23.7L466.5,23.7z"/>
			<path id="XMLID_166_" class="st2" d="M474.3,330.8l-1,0l-0.4,0.4l-0.1,8.9l-2.1,0.1l-0.4,0.4v17.4l-2,1.2l-1.2,0.2l-2.4-0.7
				l-0.5-1.1l-1-0.7l-0.5,0.1l-0.9,1l-1.5-1.7l-0.9-1.9l-2-8.6l-0.1-3.1l-0.3-1.5l-2.3-3.3l-1.9-4.8l-2-2.4l-0.1-1.6l2.3-0.8
				l1.4,0.1l1.8,1.1l10.2-0.3l1.8,1.2L474.3,330.8L474.3,330.8z M474.7,330.8l6.5-1.6l1.9,0.4l-1.7,0.4l-1.3,0.8l-1.1-0.9
				L474.7,330.8z"/>
			<path id="XMLID_165_" class="st2" d="M839.7,322.9l0.2,1.1l-0.4,0l-0.2-1.5L839.7,322.9L839.7,322.9z"/>
			<path id="XMLID_164_" class="st2" d="M839.5,341.4l-0.3,0.2l-2.9-1.8l-3.3-3.4l1.7,0.8L839.5,341.4L839.5,341.4z"/>
			<path id="XMLID_163_" class="st2" d="M454.8,226.5l1.3,1.4l0.5,0.1l1.3-0.7l0.5,3.5l0.9,0.8l0.2,0.9l0.8,0.7l-0.4,1l-1,5.3
				l-0.1,3.2l-3,2.3l-1.2,3.6l1,1.2v1.5l0.4,0.4l1.1,0l-0.9,1.3l-1.5-2.4l-0.9-0.3l-2.1,1.4l-1.7-0.7l-1.5-0.2l-0.9,0.4l-1.4-0.1
				l-1.6,1.1l-1.1,0.1l-2.9-1.3l-1.4,0.6l-1,0l-1-0.9l-2.7-1l-2.7,0.3l-0.9,0.6l-0.5,1.6l-0.8,1.2l-0.1,1.5l-1.6-1.1l-1.3,0.2l0-0.8
				l-0.3-0.4l-2.6-0.5l-0.2-1.2l-1.4-1.6l-0.3-1l0.1-0.8l1.3-0.1l1.1-0.9l3.3-0.2l2.2-0.4l0.3-0.3l0.2-1.5l1.4-1.9l0-5.7l3.4-1.1
				l7.3-5.1l8.4-4.9L454.8,226.5L454.8,226.5z"/>
			<path id="XMLID_162_" class="st2" d="M456.4,253.9l0.6,0.7l-0.3,1l-2.1,2l-2,5.2l-1.4,1.2l-1.2,3.2l-1.3,0.7l-1.5-1L446,267
				l-1.4,1.4l-0.9,0.2l-1.8,4.1l-2.3,0.8l-1.1-0.1l-0.9,0.5l-1.7-0.1l-1.2-1.4l-0.9-1.9l-1.8-1.7l-4-0.1l0.1-5.2l0.4-1.4l2-2.3
				l-0.1-0.9l0.4-1.2l-0.5-1.4l0.3-2.9l0.7-1.1l0.3-1.3l0.5-0.4l2.5-0.3l2.3,0.9l1.2,1l1.3,0l1.2-0.6l3,1.3l1.5-0.1l1.4-1l1.3,0.1
				l0.8-0.4l3.5,0.8l1.8-1.3l1.8,2.7L456.4,253.9L456.4,253.9z"/>
			<path id="XMLID_159_" class="st2" d="M858.5,379.9l1.9,3.1l0.4,0.2l0.3-0.4l0-1.2l0.4,0.3l0.6,2.3l2,0.9l1.8,0.3l1.6-1.1l0.7,0.2
				l-1.2,3.6l-2,0.1l-0.7,1.2l0.2,1.1l-2.4,4l-1.5,0.9l-1-0.9l1.2-2.1l-0.8-2l-2.6-1.3l0-0.6l1.8-1.2l0.4-2.3l-0.2-2l-1-1.8
				l-0.1-0.7l-3.1-3.6l-0.8-1.5l1.6,1.5l1.8,0.7L858.5,379.9L858.5,379.9z M854.5,393.9l0.6,1.2l0.6,0.2l1.4-1l0.5,0.8v1l-2.5,3.5
				l-1.3,1.2l-0.1,0.5l0.6,0.9l-1.4,0.1l-2.3,1.4l-2,5l-3,2.2l-2.1-0.1l-1.7-1l-2.5-0.2l-0.3-0.7l1.2-2.1l3.1-2.9l1.6-0.6l4-2.8
				l1.6-1.7l1.1-2.2l0.9-0.7l0.5-1.8l1.2-1L854.5,393.9L854.5,393.9z"/>
			<path id="XMLID_158_" class="st2" d="M641.5,213.6l0,3.2l-1.7,0l-4.8-0.9l-1.6-1.4l-3.4-0.3l-7.7-3.7l0.8-2.1l2.3-1.7l1.8,0.8
				l2.5,1.8l1.4,0.4l1,1.4l1.9,0.5l2,1.2L641.5,213.6L641.5,213.6z"/>
			<path id="XMLID_157_" class="st2" d="M472.8,172.5l-1.1-1.3l1-0.8l0.3-0.8l2,1.6l-0.4,0.7L472.8,172.5L472.8,172.5z"/>
			<path id="XMLID_156_" class="st2" d="M407.3,259.3l0.9,0.4l0.6,0.9l1.1,0.5l1.2-0.6l1-0.1l1.4,0.5l0.6,3.2l-1,2.1l-0.7,2.8
				l1.1,2.3l-0.1,0.5l-2.5-0.5l-1.7,0l-3.1,0.5l-4.1,1.6l0.3-3.1l-1.2-1.3l-1.3-0.7l0.4-0.9l-0.2-1.4l0.5-0.7l0-1.6l0.8-0.3l0.3-0.5
				l-1.2-3l0.1-0.5l0.5-0.3l0.7,0.3l1.9,0l0.7-0.7l0.7-0.1l0.3,0.7l0.6,0.2L407.3,259.3L407.3,259.3z"/>
			<path id="XMLID_155_" class="st2" d="M444.6,156.2l-0.3,0.9l0.2,0.5l1.1,0.6l1,0.1l-0.1,0.7l-0.8,0.4L444,159l-0.5,0.2l-0.5,1
				l-0.8,0.1l-0.8-0.4l-1.3,1l-1,0.1l-0.9-0.6l-0.8-1.3l-0.5-0.2l-0.6,0.3l0-0.7l1.7-1.7l0.1-0.6l0.9,0.1l0.6-0.5l2,0l0.7-0.6
				L444.6,156.2L444.6,156.2z"/>
			<path id="XMLID_154_" class="st2" d="M241.7,255l-1.7,0.6l-0.6,1.2l-1.7,1.7l-0.4,1.9l-0.7,1.4l0.3,0.6l1,0.1l0.3,0.9l0.6,0.6
				l0,2.3l1.6,1.4l3.2-0.2l1.3,0.3l1.7,2.1l0.4,0.1l4.1-0.4l0.5,0.2l-0.9,2l-0.2,1.8l0.5,1.8l0.8,1.1l-1.1,1.1l0.1,0.6l0.8,0.5
				l0.7,1.3l-0.4-0.5l-0.6,0l-0.7,0.7l-4.7-0.1l-0.4,0.4l0,1.6l0.3,0.4l1.1,0.2l-1.7,0.4l-0.3,0.4l0,1.8l1.2,1.1l0.3,1.3l-1.1,7.1
				l-1-0.9l1.3-2l-0.1-0.6l-2.2-1.2l-1.4,0.2l-1.1-0.4l-1.3,0.6l-1.6-0.3l-1.4-2.5l-1.2-0.8l-0.9-1.2l-1.7-1.2l-0.9,0.1l-2.1-1.3
				l-1,0.3l-1.8-0.3l-0.5-0.9l-3.1-1.7l0.8-0.5l-0.1-1.1l0.4-0.6l1.3-0.3l2-2.9l-0.1-0.6l-0.7-0.4l0.4-1.4l-0.5-2.1l0.5-0.8
				l-0.4-2.1l-1-1.4l0.2-0.7l0.9-0.1l0.5-0.8l-0.5-1.6l1.4-0.1l1.8-1.7l0.9-0.2l0.3-0.4l0.5-2.8l1.2-1l1.4,0l0.5-0.5l1.9,0.1
				l2.9-1.8l1.2-1.1l0.9,0.5L241.7,255L241.7,255z"/>
			<path id="XMLID_151_" class="st2" d="M740.7,148.8l4.6,1.3l2.8,2.2l1,2.9l0.4,0.3h3.8l2.3-1.3l3.3-0.8l-1,2.1l-1,1.3l-0.9,3.4
				l-1.5,2.7l-2.8-0.5l-2.4,1.1l-0.2,0.5l0.6,2.6l-0.3,3.2l-0.9,0.1l-0.4,0.9l-0.9-1l-0.6,0.1l-0.9,1.6l-3.7,1.3l-0.3,0.5l0.3,1.1
				l-1.5-0.1l-1.1-0.9l-0.6,0.1l-1.7,2.1l-2.7,1.6l-2,1.9l-3.4,0.8l-1.9,1.4l-1.2,0.3l0.3-0.7l-0.4-0.9l1.8-1.8l0-0.5l-1.3-1.6
				l-0.5-0.1l-2.2,1.1l-2.8,2.1l-1.5,1.8l-2.3,0.1l-1.6,1.5l0,0.5l1.3,2l2,0.6l0.3,1.4l2,0.8l3-2l2,1l1.5,0.1l0.2,0.8l-3.4,0.9
				l-1.1,1.5l-2.5,1.5l-1.3,2l0.1,0.6l2.6,1.5l1,2.7l3.2,4.6l0,1.7l-1.4,0.7l-0.2,0.5l0.6,1.5l1.4,0.9l-0.9,3.8l-1.4,0.4l-3.9,6.5
				l-2.3,3.1l-6.8,4.6l-2.7,0.3l-1.5,1l-0.6-0.6l-0.6,0l-1.4,1.3l-3.4,1.3l-2.6,0.4l-1.1,2.8l-0.8,0.1l-0.5-1.4l0.5-0.9l-0.3-0.6
				l-3.4-0.8l-1.3,0.4l-2.3-0.6l-0.9-0.8l0.3-1.3l-0.3-0.5l-2.2-0.5l-1.1-0.9l-0.5,0l-2.1,1.4l-4.3,0.3l-2.8,1.1l-0.3,0.4l0.3,2.5
				l-0.6,0l-0.2-1.3l-0.6-0.3l-1.7,0.7l-2.5-1.2l0.6-1.9l-0.3-0.5l-1.4-0.4l-0.5-2.2l-0.5-0.3l-2.1,0.4l0.2-2.5l2.4-2.4l0-4.3
				l-1.2-0.9l-0.8-1.5l-0.4-0.2l-1.4,0.2l-2-0.3l0.5-1.1l-1.2-1.7l-0.6-0.1l-1.6,1.1l-2.3-0.6l-2.9,1.7l-2.3,2l-1.8,0.3l-1.2-0.7
				l-3.3-0.7l-1.5,0.8l-1,1.3l-0.1-1.2l-0.5-0.3l-1.4,0.5l-5.6-0.9l-2-1.2l-1.9-0.5l-1-1.4l-1.3-0.4l-2.6-1.8l-2-0.8l-1.2,0.6
				l-5.6-3.5l-0.5-2.3l1.2,0.3l0.5-0.4l0.1-1.4l-1-1.6l0.2-2.4l-2.7-3.3l-4.1-1.2l-0.7-2l-1.9-1.5l-0.4-0.7l-0.5-3l-1.5-0.7
				l-0.7,0.1l-0.5-2.1l0.6-0.5l-0.1-0.8l2-1.2l1.6-0.5l2.6,0.4l0.4-0.2l0.9-1.7l3-0.3l1.1-1.3l4.1-1.8l0.4-0.9l-0.2-1.4l1.5-0.7
				l0.2-0.5l-2.1-4.9l4.5-1.1l1.4-0.7l1.9-5.5l5,0.9l1.5-1.7l0.1-2.9l2-0.4l1.8-2.1l0.5-0.1l0.7,2.1l2.2,1.8l3.4,1.2l1.6,2.3
				l-0.9,3.5l1,1.7l6.6,1.1l3,1.9l1.5,0.4l1.1,2.6l1.5,1.9l3.1,0.1l5.1,0.7l3.4-0.4l2.4,0.4l3.7,1.8l3.1,0l1.5,0.9l2.9-1.6l4-1
				l3.8-0.1l3.1-1.1l1.8-1.6l1.7-1l0.2-0.5l-1.1-2.1l1-1.5l4,0.8l2.5-1.6l3.8-1.2l2-2.1l1.6-0.8l3.5-0.4l1.9,0.3l0.5-0.3l0.2-1.5
				l-2.3-2.2l-2.1-1.1l-2.2,1.1l-2.3-0.5l-1.3,0.3l-0.4-0.8l2.7-5.2l3,1.1l3.5-2.1l0.2-1.7l2.2-3.4l1.5-1.4l0-1.9l-1.1-0.9l1.5-1.3
				l3-0.6l3.2-0.1l3.6,1l2,1.2l3.3,6.7L740.7,148.8L740.7,148.8z M697.4,237.3l-1.9,1.1l-1.6-0.6l-0.1-1.8l1-1l2.6-0.7l1.2,0.1
				l0.3,0.5l-1,1.1L697.4,237.3z"/>
			<path id="XMLID_150_" class="st2" d="M458,257.5l1.1,1.9l-1.4,0.2l-1.1-0.2l-0.5,0.2l-0.5,1.2l0.1,0.5l1.5,1.5l1.1,0.5l1,2.5
				l-1.5,3l-0.7,0.7l-0.1,3.7l2.4,3.8l1.1,0.8l0.2,2.5l-3.7-1.1l-11.3-0.1l0.2-1.8l-1-1.7l-1.2-0.5l-0.4-1l-0.6-0.4l1.7-4.3l0.8-0.1
				l1.4-1.4l0.7,0l1.7,1l1.9-1.1l1.1-3.2l1.4-1.2l2-5.1l2.2-2.1l0.3-1.6l-0.9-0.9l0-0.3l0.9,1.3L458,257.5L458,257.5z"/>
			<path id="XMLID_147_" class="st2" d="M246.2,429.5l-3.1,1.8l-0.6,3.2l-0.6,0.1l-2.7-1.1l-2.8-2.3l-3-1.9l-0.7-1.9l0.6-2.1
				l-1.2-2.1l-0.3-5.4l1-2.9l2.6-2.4l-0.2-0.7l-3.2-0.8l2.1-2.5l0.8-4.7l2.3,0.9l0.5-0.3l1.3-6.3l-0.2-0.4l-1.7-0.8l-0.6,0.3
				l-0.7,3.4l-0.8-0.2l1.6-9.4l1.2-2.2l-0.7-2.8l-0.2-2.8l1-0.3l3.3-9.2l1.1-4.2l-0.6-4.2l0.7-2.3l-0.3-3.3l1.5-3.3l2-16.6l-0.7-7.8
				l1-0.5l0.5-0.9l0.8,1.1l0.3,1.8l1.3,1.2l-0.7,2.6l1.3,2.9l1,3.6l0.5,0.3l1.5-0.3l0.1,0.2l-0.8,2.4l-2.6,1.2l-0.2,0.4l0.1,4.3
				l-0.5,0.8l0.6,1.2l-1.6,1.5l-1.7,2.6l-0.9,2.5l0.2,2.7l-1.5,2.7l1.1,5.1l0.6,0.6l0,2.3l-1.4,2.7l0,2.4l-1.9,2l0,2.8l0.7,2.6
				l-1.4,1.1l-1.3,5.7l0.4,3.5l-1,0.9l0.6,3.5l1,1.1l-0.7,1l0.2,0.6l1,0.5l0.2,0.7l-1,0.9l0.3,1.8l-0.9,4l-1.3,2.7l0.2,1.8l-0.7,1.8
				l-2,1.7l0.3,3.7l0.9,1.2l1.6,0l0,2.2l1,2L246.2,429.5L246.2,429.5z M248.4,431.1v7.3l0.4,0.4l3.5,0.1l-0.4,0.8l-1.9,1l-2.5-0.4
				l-1.9-1.1l-2.6-0.5l-5.6-3.7l-2.4-2.6l4.1,2.5l3.3,1.2l0.5-0.1l1.3-1.6l0.8-2.3l2.1-1.2L248.4,431.1L248.4,431.1z"/>
			<path id="XMLID_146_" class="st2" d="M505,192.8l0.3,0l0.3-0.1l-0.3,0.3L505,192.8L505,192.8z"/>
			<path id="XMLID_115_" class="st2" d="M279.8,145.4l-1.7,2.9l0.1,0.5l0.5,0l1.5-1l1,0.4l-0.6,0.7l0.2,0.6l2.2,0.9l1.4-0.7l2,0.8
				l-0.7,2l0.5,0.5l1.3-0.4l1,3.2l-0.9,2.4l-0.8,0.1l-1.2-0.5l0.5-2.3l-0.9-0.8l-0.5,0.1l-2.8,2.6l-0.3,0l1-0.9l-0.1-0.7l-2.4-0.8
				l-7.4,0.1l-0.2-0.4l1.3-0.9l0-0.6l-0.7-0.6l1.9-1.7l2.6-5.2l1.5-1.8l2-1.1l0.5,0.1L279.8,145.4L279.8,145.4z M67.7,73.9l4.1,1
				l4,2.1l2.6,0.4l2.5-1.9l2.9-1.3l3.9,0.5l3.7-1.9l3.8-1l1.6,1.7l0.5,0.1l1.9-1l0.7-2l1.2,0.4l4.2,3.9l0.5,0l2.8-2.5l0.3,2.6
				l0.5,0.4l3.1-0.7l1-1.3l2.7,0.2l3.8,1.9l5.9,1.6l3.5,0.8l2.4-0.3l2.7,1.8l-3,1.8l-0.2,0.4l0.3,0.3l4.5,0.9l6.9-0.5l2-0.7l2.5,2.4
				l0.5,0l2.7-2.2l0-0.6l-2.2-1.5l1.2-1.1l4.8-0.6l1.8,1l2.5,2.3l3-0.2l4.6,1.9l3.9-0.7l3.6,0.1l0.4-0.4l-0.3-2.4l1.8-0.6l3.5,1.3
				l0,3.8l0.3,0.4l0.5-0.2l1.5-3.2l1.7,0.1l0.4-0.3l1.1-4.4l-2.8-3.1l-2.8-1.7l0.2-4.6l2.7-3.1l3,0.7l2.4,2l3.2,4.8l-2,2l0.2,0.7
				l4.3,0.8l0,4.2l0.3,0.4l0.4-0.1l3.1-3.2l2.5,2.4l-0.6,3.3l2.4,2.9h0.6l2.6-3.1l1.9-3.8l0.2-4.6l6.7,0.9l3.1,2l0.1,1.8l-1.8,2.2
				l0,0.5l1.7,2.2l-0.3,1.7l-4.7,2.8l-3.3,0.6l-2.5-1.2l-0.6,0.2l-0.7,2l-2.4,3.4l-0.7,1.8l-2.7,2.6l-3.4,0.3l-2.2,1.8l-0.3,2.5
				l-2.8,0.6l-3.1,3.2l-2.7,4.3l-1,3.2l-0.1,4.3l0.3,0.4l3.4,0.6l2.2,6l0.5,0.2l3.4-0.7l4.5,1.5l2.4,1.3l1.9,1.7l3.1,1l2.6,1.5
				l6.6,0.5l-0.4,2.7l0.8,3.5l1.8,3.8l3.8,3.3l0.5,0l2.1-1.3l1.4-3.7l-1.3-5.4l-1.5-1.6l3.6-1.5l2.8-2.5l1.5-2.8l-0.3-2.6l-1.7-3.1
				l-2.9-2.6l2.8-4l-1.1-3.4l-0.8-5.7l1.4-0.7l6.8,1.4l2.1-1l5.1,3.4l1.1,1.6l4.1,0.3l-0.1,2.9l0.8,4.7l0.3,0.3l2.2,0.5l1.7,2.1
				l0.5,0.1l3.6-2l2.5-4.2l1.3-1.3l7.6,11.7l-0.9,2l0.2,0.5l3.3,2l2.2,2l4.1,1l1.4,1l1,2.8l2.1,0.7l0.8,1.1l0.2,3.5l-3.4,2.3
				l-4.2,1.2l-3.1,2.6l-4.1,0.5l-5.4-0.7l-6.4,0.2l-2.3,2.4l-3.3,1.5l-6.5,7.2l-0.1,0.5l0.4,0.2l2.1-0.5l4.2-4.2l5.1-2.6l3.5-0.3
				l1.7,1.2l-2.1,2.2l0.8,3.5l1,2.6l3.5,1.6l4.1-0.5l2.2-2.8l0.3,1.5l1.1,0.8l-2.6,1.7l-5.5,1.8l-2.5,1.3l-2.7,2.2l-1.4-0.2l-0.1-2
				l4.1-2.4l0.2-0.5l-0.4-0.3l-6.6,0.5l-1.4-1.5l-0.1-4.4l-1.1-0.9l-1.8,0.4l-0.7-0.7l-0.6,0l-1.9,2.4l-0.8,2.5l-0.8,1.3l-1.7,0.6
				l-0.5,0.8l-8.3,0.1l-1.2,0.6l-2.4,2l-0.7-0.1l-1.4,1l-1.1-0.5l-4.7,1.3l-0.9,1.2l0.2,0.6l1.7,0.3l-1.8,0.3l-1.9,0.8l-2.1-0.1
				l-3,1.8l-0.7-0.1l1.4-2.1l1.7-1.2l0.1-2.3l1.2-2l0.5,0.5l2,0.4l1.2-1.2l0-0.5l-2.7-3.5l-2.3-0.6l-5.6-0.7l-0.4-0.6l-0.8,0.1
				l0.2-0.4l-0.2-0.6l-0.7-0.3l0.2-1.3l-0.8-0.7l0.3-0.6l-0.3-0.6l-2.6-0.4l-0.8-1.6l-0.9-0.7l-4.3-0.7l-1.1,1.2l-1.5,0.6l-0.9,1.1
				l-2.8-0.8l-2.1,0.4l-2.4-1l-4.2-0.7l-0.6-0.4l-0.4-1.6l-0.4-0.3l-0.9,0l-0.4,0.4l0,0.9l-69.2,0l-6.5-4.5l-4.5-1.4l-1.3-2.7
				l0.3-1.9l-0.2-0.4l-3-1.4l-0.6-2.8l-2.9-2.4l0-1.5l1.4-1.8l-0.3-2.6l-4.2-2.2l-4.1-6.6l-4-3.2l-1.3-1.9l-0.5-0.1l-2.5,1.2
				l-2.2,1.9l-3.9-3.9l-2.4-1l-2.2-0.1L67.7,73.9L67.7,73.9z M260.1,148.5l3,0.8l2.3,1.2l-3.8-1L260.1,148.5L260.1,148.5z
				 M249.1,3.4l6.7,0.5l5.3,0.8l4.3,1.6l-0.1,1.1l-5.9,2.5l-6,1.2l-2.4,1.4l-0.2,0.5l0.4,0.3l4,0l-4.7,2.8l-4.2,1.7l-4.2,4.6l-5,0.9
				l-1.7,1.2l-7.5,0.6l-0.4,0.4l0.3,0.4l2.4,0.5l-0.8,0.5l-0.1,0.6l1.8,2.4l-2,1.6l-3.8,1.5l-1.3,2.2l-3.4,1.5l-0.2,0.5l0.4,1.2
				l0.4,0.3l3.9-0.2l0,0.6l-6.3,3l-6.4-1.4l-7.4,0.8l-3.7-0.6l-4.4-0.3l-0.2-1.8l4.3-1.1l0.3-0.5l-1.1-3.5l1-0.3l6.6,2.3l0.5-0.2
				l-0.1-0.5l-3.4-3.5l-3.6-1l1.5-1.6l4.3-1.3l1-2.2l-0.2-0.5l-3.4-2.1l-0.8-2.3l6.2,0.2l2.2,0.6l3.9-2.1l0.2-0.4l-0.4-0.3l-5.6-0.7
				l-8.7,0.4l-4.3-1.9l-2.1-2.4l-2.8-1.7l-0.4-1.5l3.3-1l2.9-0.2l4.9-1l3.7-2.3l2.9,0.3l2.6,1.7l0.6-0.1l1.8-3.2l3.1-0.9l4.4-0.7
				l7.5-0.3l1.5,0.7l7.2-1.1L249.1,3.4L249.1,3.4z M203.5,57.2l0,0.4l2,3l0.7,0l2.2-3.7l6-1.9l4,4.6l-0.4,2.9l0.5,0.4l5-1.4l2.3-1.8
				l5.3,2.3l3.3,2.1l0.3,1.8l0.5,0.3l4.4-1l2.6,2.9l6,1.8l2.1,1.7l2.1,3.7l-4.2,1.9l0,0.7l5.9,2.8l3.9,0.9l3.8,4l3.5,0.3l-0.6,2.4
				l-4.1,4.5l-2.8-1.6l-3.9-3.9l-3.6,0.4l-0.3,0.3l-0.2,2.7l2.6,2.4l3.4,1.9l0.9,1l1.6,3.8l-0.7,2.3l-2.7-0.9l-6.3-3.2l-0.5,0.1
				l0.1,0.5l6.1,5.7l0.2,0.6l-6.1-1.4l-5.3-2.2l-2.6-1.7l0.6-0.8l-0.1-0.6l-7.4-4l-0.6,0.4l0,0.8l-6.7,0.6l-1.7-1.1l1.4-2.5l4.5-0.1
				l5.2-0.5l0.3-0.6l-0.7-1.3l0.8-1.8l3.2-4.1l-0.7-2.4l-1.1-1.6l-3.8-2.1l-4.4-1.3l0.9-0.6l0.1-0.6l-2.7-2.8l-2.3-0.4l-1.9-1.5
				l-0.5,0l-1.2,1.2l-4.4,0.6l-9.1-1l-9.3-2l-1.6-1.2l2.2-1.8l0.1-0.4l-0.4-0.3l-3.2,0l-0.7-4.3l1.8-4l2.4-1.9l5.5-1.1L203.5,57.2
				L203.5,57.2z M260.9,159.2l2.1,0.6l1.4,0l-1.2,0.6l-2.9-1.2l-0.4-0.7l0.4-0.4L260.9,159.2L260.9,159.2z M230.5,84.1l-2.4,0.2
				l-0.5-1.6l0.9-2.1l1.9-0.5l1.6,1l0,1.5L230.5,84.1L230.5,84.1z M229.1,57.9l0.1,0.7l-4.9-0.2l-2.7,0.6l-3.1-2.6l0.1-1.3l0.9-0.2
				l5.6,0.5L229.1,57.9L229.1,57.9z M221.6,104.8l-0.7,1.5l-0.6-0.2l-0.5-0.8l0.8-1l0.7,0.1L221.6,104.8L221.6,104.8z M183.3,38
				l2.9,1.7l4.8,0l1.8,1.5l-0.5,1.7l0.2,0.5l2.8,1.1l1.8,1.3l7,0.7l4.1-1.1l5-0.4l3.9,0.4l2.5,1.8l0.5,1.7l-1.3,1.1l-3.6,1l-3.2-0.6
				l-7.2,0.8l-5.1,0.1l-4-0.6l-6.4-1.5l-0.8-2.5l-0.3-2.5l-2.6-2.5l-5.3-0.7l-2.5-1.4l0.7-1.6L183.3,38L183.3,38z M207,91.1l0.4,1.6
				l0.6,0.3l1.1-0.5l1.3,1l5.4,2.6l0.2,1.7l0.5,0.4l1.7-0.3l1.2,0.9l-1.6,0.9l-3.6-0.9l-1.3-1.7l-0.6-0.1l-2.5,2.1l-3.1,1.8
				l-0.7-1.9l-0.4-0.3l-2.2,0.2l1.4-1.4l0.3-3.1l0.8-3.4L207,91.1L207,91.1z M215.1,102.4l-2.7,2l-1.4-0.1l-0.3-0.6l1.5-1.5
				C212.3,102.2,215.1,102.4,215.1,102.4z M202.3,23.8l2.5,1.6l-2.9,1.4l-4.5,4.1l-4.3,0.4l-5-0.7l-2.5-2l0-1.6l1.8-1.4l0.1-0.5
				l-0.4-0.3l-4.5,0l-2.6-1.8l-1.4-2.3l1.6-2.3l1.6-1.7l2.4-0.4l0.3-0.7l-0.6-0.7l4.9-0.3l3.2,3.1l8.2,2.3L202.3,23.8L202.3,23.8z
				 M187,58.9l-2.8,3.5l-2.4-0.2l-1.4-3.8l0-2.2l1.2-1.9l2.3-1.2l5.1,0.2l4.1,1l-3.2,3.7L187,58.9L187,58.9z M185.6,48.5l-1.1,1.5
				l-3.3-0.3l-2.6-1.1l1-1.8l3.3-1.2l2,1.6L185.6,48.5L185.6,48.5z M185.3,35l-5.3-0.2l-0.3-0.7l4.3,0.1L185.3,35L185.3,35z
				 M180.2,32.1l-3.3,1l-1.8-1.1l-1-1.9l-0.2-1.7l4.1,0.5l2.7,1.7L180.2,32.1L180.2,32.1z M180.5,76l-1.1,1.1l-3.1-1.2l-2.1,0.4
				l-2.7-1.6l1.7-1.1l1.6-1.7l3.8,1.9L180.5,76L180.5,76z M169.3,54.6l3,1l4.2-0.6l0.4,0.9l-2.1,2.1l0.1,0.6l3.6,1.9l-0.4,3.7
				l-3.8,1.7l-2.2-0.4l-1.7-1.7l-6-3.5l0-0.9l4.7,0.5l0.4-0.2l-0.1-0.5l-2.5-2.8L169.3,54.6L169.3,54.6z M174,40.4l1.4,1.7l0.1,2.4
				l-1.1,3.5l-3.8,0.5l-2.3-0.7l0.1-2.6l-0.4-0.4l-3.7,0.4l-0.1-3.1l2.5,0.1l3.7-1.7l3.4,0.3L174,40.4L174,40.4z M169.6,31.2
				l0.7,1.6l-3.3-0.5l-4.2-1.8l-4.4-0.2l1.4-0.9l-0.1-0.7l-2.8-1.2l-0.1-1.4l4.4,0.7l6.6,2L169.6,31.2L169.6,31.2z M134,57.8l-1,1.8
				l0.5,0.6l5.4-1.4l3.3,2.3l0.5,0l2.6-2.2l1.9,1.3l2,4.5l0.7,0.1l1.3-2.3l-1.6-4.5l1.7-0.5l2.3,0.7l2.7,1.8l2.5,7.9l8.5,4.3
				l-0.2,1.4l-3.8,0.3l-0.3,0.7l1.4,1.5l-0.6,1.1l-4.2-0.6l-4.4-1.2l-3,0.3l-4.7,1.5l-10.5,1l-1.4-2l-3.4-1.2l-2.2,0.4l-2.5-2.9
				l4.8-1.1l3.6,0.2l3.3-0.8l0.3-0.4l-0.3-0.4l-4.8-1.1l-8.8,0.3l-0.9-1.1l5.3-1.7l0.3-0.5l-0.4-0.3l-3.8,0.1l-3.8-1.1l1.8-3
				l1.7-1.8l6.5-2.8L134,57.8L134,57.8z M158.2,56.3l-1.7,2.4l-3.2-2.8l0.4-0.3l3.1-0.2L158.2,56.3z M149.1,42.4l1,1.9l0.5,0.2
				l2.1-0.8l2.2,0.2l0.4,2L154,48l-8.3,0.8l-6.4,2.2L136,51l-0.2-1l4.9-2.1l0.2-0.5l-0.4-0.3l-11.3,0.6l-2.9-0.7l3-4.4l2.1-1.3
				l6.8,1.7l4.6,3.1l4.4,0.4l0.4-0.6l-3.4-4.6l1.9-1.5l2.2,0.5L149.1,42.4L149.1,42.4z M144.3,34.1l-4.4,1.4l-3-1.4l1.5-1.2l3.5-0.5
				l3,0.7L144.3,34.1L144.3,34.1z M144.6,29.5l-1.9,0.7h-3.7l2.3-1.6L144.6,29.5L144.6,29.5z M118.4,65.5l-6,2l-1.3-1.9l-5.4-2.3
				l2.6-5.1l2.2-3.1l0-0.5l-2-2.4l7.7-0.7l3.6,1l6.3,0.3l4.4,3l-2.5,1l-6.3,3.4l-3.1,3.3L118.4,65.5L118.4,65.5z M129,35.2l-0.3,3.4
				l-1.7,1.6l-2.3,0.3l-4.6,2.2l-3.9,0.8l-2.6-0.9l3.7-3.4l5-3.3l3.7,0.1L129,35.2L129,35.2z M110.5,152.5l-0.7,0.2l-3.9-1.4
				l-0.8-1.2l-2.1-1.1l-0.7-1l-2.4-0.6l-0.7-1.7l6,1.5l2,2.6l2.5,1.4L110.5,152.5L110.5,152.5z M87.2,134.5l0.9,0.3l1.9-0.2
				l-0.7,3.3l1.7,2.3l-1.3-1.3l-1-1.6l-1.2-1L87.2,134.5L87.2,134.5z"/>
			<path id="XMLID_114_" class="st2" d="M466.8,276.5l-0.1,1l-1.3,3l-0.2,3.6l-0.5,1.8l-0.2,0.6l-1.6,1.2l-1.2,1.4l-1.1,2.4l0,2.1
				l-3.3,3.2l-0.5-0.2l-0.5-0.8l-1.4,0l-1,0.9l-1.7-1l-1.5,1.2l-1.5-2l1.6-1.1l0.1-0.5l-0.8-1.4l2.1-0.7l0.4-0.7l1.1,0.8l2.2,0.1
				l1.1-1.4l0.4-1.8l-0.3-2.1l-1.1-1.5l1-2.7l-0.1-0.5l-0.9-0.6l-1.6,0.2l-0.5-0.9l0.1-0.6l2.8,0.1l4,1.2l0.5-0.3l0.2-1.3l1.2-2.2
				l1.3-1.1L466.8,276.5L466.8,276.5z"/>
			<path id="XMLID_113_" class="st2" d="M461.2,278.3l-0.3-1.2l-1.1-0.8l-0.8-1.2l-0.3-1l-1-1.2l0.1-3.4l0.6-0.5l1.2-2.4l1.9-0.2
				l0.6-0.6l1,0.6l3.2-1l2.5-1.9l0-1l2.8,0l2.4-1.2l1.9-2.9l1.2-0.9l1.1-0.3l0.3,0.9l1.3,1.5l-0.4,2l0.3,1l4,2.8l0.2,0.9l2.6,2.3
				l0.6,1.4l2.1,1.4l-3.8-0.2l-1.9,0.9l-1.2-0.5l-2.7,1.2l-1.3-0.2l-0.5,0.4l-0.6,1.2l-3.4-0.7l-1.6-0.9l-2.4-0.8l-1.5,0.9l-1,1.3
				l-0.3,1.6l-3.2-0.4l-1.5,1.3L461.2,278.3L461.2,278.3z"/>
			<path id="XMLID_112_" class="st2" d="M487.1,272.4l2.3-0.1l1.4,1.8l1.3,0.5l0.9-0.4l1.2,0.1l1.1-0.4l0.5,0.9l2,1.5l-0.1,2.7
				l0.7,0.5l-1.4,1.1l-1.5,2.5l-0.2,2.1l-0.6,1.1l0,1.7L494,289l-0.7,3l0.6,1.3l-0.4,4.3l0.6,1.5l-0.4,1.2l0.9,1.8l1.5,1.4l0.3,1.3
				l0.4,0.5l-4.1,0.8l-0.9,1.8l0.5,1.3l-0.7,5.4l0.2,0.4l2.5,1.5l0.5-0.1l0.1,1.6l-1.3,0l-1.9-2.4l-1.9-0.5l-0.5-1.1l-0.6-0.2
				l-1.4,0.7l-1.7-0.3l-1-1.2l-2.5-0.2l-0.4-0.8l-2-0.2l-2.9,0.4l0.1-2.4l-0.9-1.1l-0.2-1.4l0.3-1.7l-0.5-0.9l0-1.5l-0.4-0.4l-2.5,0
				l0.1-0.4l-0.4-0.5l-1.3,0l-0.4,0.5l-1.6,0.3l-0.8,1.8l-1.1-0.3l-2.4,0.5l-1.4-1.9l-1.3-3.3l-0.4-0.3l-7.4,0l-2.5,0.4l0.5-0.5
				l0.4-1.5l0.7-0.4l0.9,0.1l0.7-0.8l0.9,0l0.3,0.7l1.4,0.4l3.6-3.6l0-2.2l1-2.3l2.7-2.4l0.4-1l0.5-2l0.2-3.5l1.3-3l0.4-3.1l0.9-1.1
				l1.1-0.7l3.6,1.7l3.7,0.7l0.5-0.2l0.8-1.5l1.2,0.2l2.6-1.2l0.8,0.4l1,0l0.6-0.7l0.7-0.2L487.1,272.4L487.1,272.4z"/>
			<path id="XMLID_111_" class="st2" d="M458.5,144.7l1.2,1l1.5,0.2l0.1,0.9l1.4,0.7l0.5-0.2l0.2-0.6l1.2,0.3l0.5,1.1l1.7,0.2
				l0.6,0.8l-1,0.7l-1,1.3l-1.6,0.2l-0.6,0.6l-1-0.5l-1.1,0.2l-2.1-1L458,151l-1.2,1.1l-1.6-0.9l-2.6-2.1l-0.5-1.9l4.7-2.5l0.7,0.3
				L458.5,144.7L458.5,144.7z"/>
			<path id="XMLID_110_" class="st2" d="M504.5,193.4l0.4,0.3l-1.3,0.6l-0.9-0.3l-0.2-0.5L504.5,193.4L504.5,193.4z"/>
			<path id="XMLID_109_" class="st2" d="M211,258.1l0.5,1l1.6,1.6l-0.5,0.5l0.3,1.4l-0.3,1.2l-1.1-0.6l-0.1-1.3l-2.5-1.4l-0.3-0.8
				l-0.7-0.5h-0.5l-0.1,1l-1.3-1l0.3-1.3l-0.4-0.6l0.3-0.3l1.4,0.6l1.3-0.1l0.6,0.6l0.7,0.2L211,258.1L211,258.1z"/>
			<path id="XMLID_108_" class="st2" d="M220.8,227.2l1.3,1l2.2-0.3l4.4,3.3l2.1,0.4l-0.1,0.4l0.4,0.5l1.8,0.1l1.5,0.8l-3.1,0.5
				l-4.2,0l0.8-0.7l0-0.6l-1.2-0.7l-1.5-0.2l-0.7-0.6l-0.6-1.4l-0.4-0.3l-1.3,0.1l-2.2-0.7l-0.9-0.6l-3.2-0.4l-0.3-0.2l0.6-0.7
				l-0.4-0.3l-2.7-0.1l-1.7,1.3l-0.9,0l-0.6,0.7l-1,0.2l1.1-1.3l1-0.5l3.7-1l4,0.2L220.8,227.2L220.8,227.2z"/>
			<path id="XMLID_107_" class="st2" d="M500.5,351.6l0.5,2l-0.4,0.9l-1.1,0.2l-1.2-1.2l0-0.6l0.8-1.6L500.5,351.6L500.5,351.6z"/>
			<path id="XMLID_106_" class="st2" d="M511.1,199.7l0.1-1.3l0.5-1.4l1.3-1l0.1-0.5l-0.4-1.1l-1.1-0.4l-0.2-1.7l0.5-1l1.3-1.2
				l0.2-1.2l0.6,0.2l2.6-0.8l1.4,0.5l2.1,0l3-1.1l3.3-0.3l-0.7,0.9l-1.3,0.7l-0.2,0.4l0.2,2l-0.9,3.2l-10.2,5.7L511.1,199.7
				L511.1,199.7z"/>
			<path id="XMLID_105_" class="st2" d="M621.7,172.2l-3.9,1.7l-1,1.2l-3,0.3l-1.1,1.9l-2.4-0.4l-2,0.6l-2.4,1.4l0.1,1l-0.4,0.4
				l-4.5,0.4l-3-0.9l-2.4,0.2l0.1-0.8l2.3,0.4l1.1-0.9l2,0.2l3.2-2.1l0-0.7l-3-1.6l-1.9,0.7l-1.2-0.7l1.7-1.6l-0.1-0.7l-0.4-0.2
				l0.3-0.8l1.4-0.4l4,1l0.5-0.3l0.4-1.6l1.1-0.5l3.4,1.2l1.1-0.3l7.7,0.4l1.2,1L621.7,172.2L621.7,172.2z"/>
			<path id="XMLID_104_" class="st2" d="M506.4,284.8l1.9-2.6l0.9-2.2l-1.4-4.1l-1.1-1.6l2.8-2.8l0.8,0.3l0.1,1.4l0.9,0.8l1.9,0.1
				l3.3,2.1l3.6,0.4l1.1-1.1l2-0.9l0.8,0.7l1.2,0.1l-1.8,2.5l0,9.1l1.3,1.9l-1.4,0.8l-0.7,1l-1.1,0.5l-0.3,1.7l-0.8,1.1l-0.5,1.6
				l-0.7,0.6L516,294l-0.4-1.6l-8.9-5l0.1-1.6L506.4,284.8L506.4,284.8z"/>
			<path id="XMLID_103_" class="st2" d="M481.8,263.4l1.1-0.7l1.2-3.2l1.4-0.3l1.6,2l0.9,0.3l1.1-0.4l1.5,0.1l0.6,0.5h2.5l0.4-0.6
				l1.1-0.4l0.5-0.8l0.6-0.3l1.9,1.3l1.6-0.2l2.8-3.3l-0.3-2.2l1.6-0.5l-0.2,1.6l0.3,1.8l1.4,1.2l0.2,1.9l0.4,0.4l0,1.5l-0.2,0.5
				l-1.4,0.3l-0.9,1.4l0.3,0.6l1.4,0.2l1.1,1.1l0.6,1.1l1,0.5l1.3,2.4l-4.4,4l-1.7,0l-1.9,0.6l-1.5-0.5l-1.2,0.6l-3-2.6l-1.3,0.5
				l-1.1-0.2l-0.8,0.4l-0.8-0.2l-1.8-2.7l-1.9-1.1l-0.7-1.5l-2.6-2.3l-0.2-0.9L481.8,263.4L481.8,263.4z"/>
			<path id="XMLID_102_" class="st2" d="M282.9,270.2l2.1,0.5l-1.1,2l0.2,1.7l0.9,1.5l-0.6,2l-0.4,0.7l-1.1-0.4l-1.3,0.2l-0.9-0.2
				l-0.5,0.3l-0.3,0.7l0.3,0.7l-0.9-0.1l-1.4-2l-0.3-1.3l-1-0.3l-0.9-1.5l0.4-1.6l1.5-0.8l0.3-1.9l2.6,0.4l0.6-0.5L282.9,270.2
				L282.9,270.2z"/>
			<path id="XMLID_101_" class="st2" d="M689.9,249.4l0.5,1.5l-0.3,2.7l-4,1.9l-0.2,0.6l0.7,1l-2.1,0.2l-2.1,1l-1.8-0.3l-2.1-3.7
				l-0.6-2.9l1.4-1.9l3-0.5l2.2,0.4l2,1l0.5-0.1l1-1.5L689.9,249.4L689.9,249.4z"/>
			<path id="XMLID_100_" class="st2" d="M195.4,250.2l1.4-1.2l2.2,1.5l1-0.3l0.4,0.2l-0.3,1.1l-1.1,0L195.4,250.2L195.4,250.2z"/>
			<path id="XMLID_99_" class="st2" d="M476.9,151l-1.1,1.9L473,152l-0.8,0.2l-0.7,0.8l-3.5,0.7l-0.5,0.7l-1.8,0.3l-1.9-1l-0.2-0.8
				l0.4-0.8l1.9-0.3l1.7-1.9l0.8,0.2l0.8-0.3l1.5,1l1.3-0.6l1.3,0.3l1.7-0.4L476.9,151L476.9,151z"/>
			<path id="XMLID_98_" class="st2" d="M738,185.8l1-0.1l0.9-1.2l2.7-0.3l0.3-0.3l1.8,2.8l0.6,1.8l0,3.1l-0.8,1.3l-2.2,0.6l-1.9,1.1
				l-1.8,0.2l-0.2-1.1l0.4-2.3l-1-2.6l1.4-0.4l0.2-0.6L738,185.8L738,185.8z"/>
			<path id="XMLID_97_" class="st2" d="M456.2,161.9l-0.5-1.3l0.2-1.1l1.7,0.2l1.4-0.7l2.1-0.1l0.6-0.5l0.2,0.5l-1.6,0.7l-0.4,1.3
				l-0.7,0.2l-0.3,0.8l-1.2-0.5l-0.8,0.5L456.2,161.9L456.2,161.9z"/>
			<path id="XMLID_96_" class="st2" d="M737.3,185.1l-0.9-0.4l-0.9,0.6l-1.2-0.9l1-1.2l0.6-2.6l-0.5-0.7l-2.1-0.8l1.6-1.5l2.7-1.6
				l1.6-1.9l1.1,0.8l2.2,0.1l0.4-0.5l-0.3-1.2l3.5-1.2l0.9-1.4l1,1.1l-2.2,2.2l0,2.1l-1.1,0.5l-1.4,1.4l-1.7,0.5l-1.3,1.1l-0.1,2
				l0.9,0.5l1.2,1l-0.1,0.3l-2.6,0.3l-1.1,1.3L737.3,185.1L737.3,185.1z"/>
			<path id="XMLID_95_" class="st2" d="M541,207.9l0.4,0.9l-0.2,0.8l0.6,1.5l-1,0l-0.8-1.3l-1.6-0.2l1.3-1.9L541,207.9L541,207.9z"
				/>
			<path id="XMLID_94_" class="st2" d="M390,248.2l0.1,1.6l0.5,1.5l1,0.8l0.1,1.3l-1.3-0.2l-0.8,0.3l-1.8-0.6l-5.8-0.1l-2.5,0.5
				l-0.2-1l1.8,0l2-0.9l1,0.5l1.1,0l1.3-0.6l0.1-0.6l-0.5-0.7l-1.8,0.3l-1.1-0.6l-0.8,0l-0.7,0.6l-2.3,0.1l-0.9-1.8l-0.8-0.6
				l0.6-0.4l2.5-3.7l1,0.2l1.4-0.6l1.2,0l2.7,1.4L390,248.2L390,248.2z"/>
			<path id="XMLID_93_" class="st2" d="M394.4,264.2l-1.7,2l-0.6,1.3l-2.1-1.1l-1.2-1.3l-0.7-2.4l1.2-1l0.7-1.2l1.2-0.5h1.7l1,1.6
				L394.4,264.2z"/>
			<path id="XMLID_92_" class="st2" d="M553,172.8l0.5-1.3l-0.5-1.1l-3-1.2l-1.1-2.6l-1.4-0.9l0-0.3l2,0.2l0.5-0.4l0.1-2l1.8-0.4
				l2.1,0.5l0.5-0.3l0.5-3l-0.5-2.1l-0.4-0.3l-2.4,0.2l-2.4-0.7l-2.9,1.4l-2.2,0.6l-0.9-0.3l0.1-1.6l-1.6-2.1l-2-0.1l-1.8-1.8
				l1.3-2.2l-0.6-1l1.6-2.9l2.2,1.6l0.6-0.3l0.3-2.2l4.9-3.4l3.7-0.1l8.4,3.6l2.9-1.4l3.8-0.1l3.1,1.7l0.5-0.1l0.6-0.8l3.3,0.1
				l0.4-0.3l0.6-1.6l-0.2-0.5l-3.5-2l1.9-1.3l-0.1-1l2-0.7l0.2-0.6l-1.6-2.1l0.8-0.8l9.2-1.2l1.3-0.9l6.2-1.3l2.3-1.4l4.1,0.7
				l0.7,3.3l0.5,0.3l2.5-0.8l2.8,1l-0.2,1.6l0.4,0.4l2.6-0.2l4.9-2.5l0,0.3l3.2,2.6l5.6,8.5l0.7,0l1.1-1.5l3.2,1.7l3.8-0.8l1.2,0.5
				l1.1,1.8l1.8,0.8l1,1.3l3.4-0.3l1,1.5l-1.6,1.8l-1.9,0.3l-0.3,0.4l-0.1,3.1l-1.1,1.2l-4.8-1l-0.5,0.3l-1.8,5.5l-1.1,0.6l-4.9,1.2
				l-0.3,0.5l2.1,5l-1.4,0.6l-0.2,0.4l0.1,1.1l-0.9-0.3l-1.4-1.1l-7.9-0.4l-0.9,0.3l-3.7-1.2l-1.4,0.6L605,171l-3.7-0.9l-1.9,0.4
				l-0.8,1.4l-4.7,2.6l-1.1,2.1l-0.4,0l-0.9-1.4l-2.9-0.1l-0.5-2.1l-0.4-0.3l-0.8,0v-3l-3-2.2l-7.3,0.6l-2.4-2.7l-6.7-3.7l-6.5,1.8
				l-0.3,0.4l0.1,10.9l-0.7,0.1l-1.6-2.2l-1.8-1l-3.1,0.6L553,172.8L553,172.8z"/>
			<path id="XMLID_91_" class="st2" d="M537.7,210.3l2,0.2l0.9,1.3l1.5-0.1l0.9,2.1l1.3,0.8l0.5,1l1.6,1l-0.1,1.9l0.3,0.9l1.6,2.5
				l0.8,0.5l0.7,0l1.7,4.2l7.5,1.3l0.5-0.3l0.8,1.3l-1.6,4.9l-7.3,2.5l-7.3,1l-2.3,1.2l-1.9,2.7l-0.8,0.3l-0.8-0.8l-0.9,0.1
				l-2.9-0.5l-3.5,0.3l-0.9-0.6l-0.6,0.2l-0.7,1.3l0.2,1.1l-0.4,0.3l-0.9-1.4l-0.3-1.2l-1.2-0.9l-1.3-2.1l-0.8-2.2l-1.7-1.8L521,233
				l-1.5-2.3l-0.2-3.4l-1.4-2.9l-1.3-1.2l-1.3-0.6l-1.3-3.4l-0.8-0.7l-1-2l-2.8-4l-1.1-0.2l0.4-2l0.2-0.7l2.7,0.3l1.1-0.8l0.6-0.9
				l1.7-0.4l0.7-1l0.7-0.4l0.1-0.6l-2.1-2.3l4.4-1.2l0.5-0.4l2.8,0.7l3.7,1.9l7,5.5L537.7,210.3L537.7,210.3z"/>
			<path id="XMLID_90_" class="st2" d="M480.3,89.1l-4,1.2l-2.4,2.9l0.3,2.6l-8.8,6.7l-1.8,5.8l1.8,2.7l2.2,2l-2.1,3.8l-2.7,1.1
				l-1,6.1l-1.3,3l-2.7-0.3l-0.4,0.2l-1.3,2.6l-2.3,0.1l-0.8-3.1l-2.1-4l-1.8-5l1-1.9l2.1-2.7l0.8-4.5l-1.6-2.2l-0.2-4.9l1.5-3.4
				l2.6-0.2l0.9-1.6l-0.8-1.6l3.8-5.6l4-7.5l2.2,0l0.4-0.3l0.6-2.1l4.4,0.6l0.5-0.3l0.3-2.6l1.1-0.1l7,4.9l0.1,6.3L480.3,89.1
				L480.3,89.1z"/>
			<path id="XMLID_89_" class="st2" d="M506.1,259.4l-0.3-0.8l-1.2-0.9l-0.3-1.6l0.3-1.8l-0.3-0.5l-1.2-0.2l-0.5,0.6l-1.2,0.1
				l-0.3,0.7l0.5,0.7l0.2,1.2l-2.4,3l-1,0.2l-2.4-1.4l-1,0.5l-0.4,0.8l-1.1,0.4l-0.3,0.5h-1.9l-0.5-0.5l-1.8-0.1l-1,0.4l-2.5-2.4
				l-2.1,0.5l-0.7,1.3l-0.6,2.1l-1.3,0.6l-0.8-0.6l0.3-2.7l-1.5-1.8l-0.2-1.5l-0.9-1l0-1.3l-0.6-1.2l-0.7-0.2l0.7-1.3l-0.2-1.1
				l0.7-0.6l0-0.6l-0.4-0.4l1.6-3l1.9,0.2l0.4-0.4l-0.1-11l2.5,0l0.4-0.4v-4.8h29.1l0.6,2l-0.5,0.7l0.4,2.7l0.9,3.2l2.1,1.6l-0.9,1
				l-1.7,0.4l-1,0.9l-1.4,5.7l0.2,1.2l-0.4,2.1l-1,2.4l-1.5,1.3l-1.3,2.9l-1.2,0.9L506.1,259.4L506.1,259.4z"/>
			<path id="XMLID_88_" class="st2" d="M241.5,239.2l0.1-0.7l-0.5-0.7l0.4-0.4l0.2-1l-0.1-1.5l1.7,0l2,0.6l0.3,0.7l1.3,0.2l0.3,0.8
				l1,0.1l0.8,0.6l-0.5,0.5l-1.1-0.5l-1.9,0l-1.3,0.6l-0.8-0.6l-1,0.5l-0.8,1.4L241.5,239.2L241.5,239.2z"/>
			<path id="XMLID_87_" class="st2" d="M528.6,256.2l-0.5,0.7l-0.6-0.3l-1.5,0.1l-0.2-1l1.5-2l0.8,0.2l0.8-0.4l0.2,1l-1.2,0.5
				l-0.1,0.7L528.6,256.2L528.6,256.2z"/>
			<path id="XMLID_84_" class="st2" d="M452.3,128.9l-1.2,2.2l-2.1-1.6l-0.2-1l3-1L452.3,128.9z M447.8,126.1l-0.3,0.6l-0.9-0.1
				l-1.8,2.5l0.5,1.7l-1.1,0.4l-1.6-0.4l-0.9-1.7l-0.1-3.4l1-1.7l2-0.2l1.1-1.1l1.3-0.7l-0.1,1.1l-0.7,1.4l0.3,1L447.8,126.1
				L447.8,126.1z"/>
			<path id="XMLID_83_" class="st2" d="M453.2,155.4l-0.6-0.4l-1.2-0.1l-1.9,0.6l-2.1-0.1l-0.6,0.6l-0.9-0.6l-1,0.1l-2.6-0.9
				l-0.9,0.7l-1.5,0l0.2-1.8l1.2-2.1l-0.3-0.6l-3.5-0.6l-0.9-0.7l0.1-1.2l-0.5-0.9l0.3-2.2l-0.4-3l1.4-0.2l0.6-1.3l0.7-3.2l-0.4-1.2
				l0.3-0.4l1.7-0.2l0.3,0.5l0.6,0.1l1.7-1.7l-0.5-3l1.4,0.3l1.3-0.4l0.3,1.2l2.3,0.7l0,0.9l0.5,0.4l2.6-0.7l1.3-0.9l2.6,1.2l1.1,1
				l0.5,1.4l-0.6,0.7v0.5l0.9,1.2l0.6,1.6l-0.1,1.3l0.8,1.7l-1.5-0.1l-0.6,0.6l-4.5,2.2l-0.2,0.5l0.7,2.3l2.6,2.2l-0.7,1.1l-0.8,0.4
				l-0.2,0.4L453.2,155.4L453.2,155.4z"/>
			<path id="XMLID_82_" class="st2" d="M528.4,246.7l0.3-0.4l-0.2-1l0.2-1.5l0.9-0.7l-0.1-1.4l0.4-0.8l1,0.5l3.3-0.3l3.8,0.4l1,0.8
				l1.4-0.6l1.7-2.6l2.2-1.1l6.9-0.9l2.5,5.4l-1.6,0.8l-0.6,1.9l-6.2,2.2l-2.3,1.8l-1.9,0.1l-1.4,1l-4.2,0.7l-1.7,1.5l-3.3,0.2
				l-0.5-1.2l0-1.5L528.4,246.7L528.4,246.7z"/>
			<path id="XMLID_81_" class="st2" d="M441.5,188.4l-0.3,1.1l0.4,2.6l-0.5,2.2l-1.6,1.8l0.4,2.4l1.9,1.6l0.2,0.8l1.4,1l1.8,7.2
				l0.1,1.2l-0.6,5l0.2,1.5l-0.9,1l0,0.5l1.4,1.9l0.1,1.2l0.9,1.5l0.5,0.2l1-0.4l1.7,1.1l0.8,1.2l-8.2,4.8l-7.2,5.1l-3.4,1.1
				l-2.3,0.2l-0.3-1.6l-2.6-1.1l-0.7-1.3l-26.2-17.9l0-3.5l3.8-1.9l2.4-0.4l2.1-0.8l1.1-1.4l2.8-1.1l0.4-2.1l1.3-0.3l1-0.9l3.5-0.7
				l0.5-1.1l-0.1-0.5l-0.6-0.5l-0.8-2.8l-0.2-1.8l-0.8-1.5l2-1.3l2.6-0.5l1.7-1.2l2.3-0.8l8.3-0.7l1.5,0.4l2.3-1.1l2.5,0l0.9,0.6
				L441.5,188.4L441.5,188.4z"/>
			<path id="XMLID_72_" class="st2" d="M893.5,99l1.3,0.5l1.4-0.4l1.9,1l1.9,0.4l-1.3,0.6l-2.9-1.5l-2.1,0.2l-0.3-0.2L893.5,99
				L893.5,99z M182.8,150.3l0.4,1.5l1.1,0.9l4.2,0.7l2.4,1l2.2-0.4l1.9,0.5l-1.6,0.7l-3.5,2.6l-0.2,0.8l0.5,0.4l2.3-0.6l1.8,1
				l5.2-2.4l-0.3,0.7l0.3,0.6l1.4,0.4l1.7,1.2l4.7-0.9l0.7,0.9l1.3,0.2l0.6,0.6l-1.3,0.2l-2.2-0.3l-3.6,0.9l-2.7,3.3l0.4,0.9h0.6
				l0.6-0.6l-1.4,4.7l0.3,3.1l0.7,1.6l0.6,0.5l1.8-0.4l1.6-2l0.1-2.2l-0.8-2l0.1-1.1l1.2-2.4l0.4-0.3l0.5,0.8l0.4-0.3l0.4-1.4
				l0.6-0.5l0.2-0.8l1.7,0.5l1.7,1.1l0,2.4l-1.3,1.1v1.1l0.9,0.4l1.7-1.3l0.5,0.2l0.5,2.6l-2.5,3.8l0.2,0.6l1.5,0.6l1.5,0.2l1.9-0.4
				l4.7-2.2l2.2-1.8l-0.1-1.2l0.8-0.2l3.9,0.4l2.1-1.1l0.2-0.4l-0.3-1.5l3.3-2.4l8.3,0l0.6-0.8l1.9-0.8l0.9-1.5l0.7-2.4l1.6-2
				l0.9,0.6l1.5-0.5l0.8,0.7v4.1l2,2.6l-2.3,1.3l-5.4,2.1l-1.8,2.7l0,1.8l0.8,1.6l0.5,0.2l-6.2,0.9l-2.2,0.9l-0.2,0.5l0.5,0.3l3-0.5
				l-2.2,0.6h-1.1l-0.2-0.3l-0.5,0.1l-0.8,0.8l0.2,0.7l0.3,0.1l-0.4,1.6l-1.3,1.6l-1.5-1.1l-0.5,0l-0.2,0.5l0.5,1.6l0.6,0.6l0,0.8
				l-1,1.4l-1.2-1.2l-0.3-2.3l-0.4-0.4l-0.4,0.3l-0.5,1.3l0.3,1.4l-1-0.3l-0.5,0.2l0.2,0.5l1.5,0.8l0.1,2.5l0.8,0.5l0.5,3.4
				l-1.4,1.9l-2.5,0.8l-1.7,1.7l-1.3,0.3l-1.3,1l-0.4,1l-2.7,1.8l-2.6,3l-0.5,2.1l0.5,2.1l0.9,2.4l1.1,1.9l0,1.2l1.2,3.1l-0.2,2.7
				l-0.6,1.4l-0.5,0.2l-0.9-0.2l-0.5-1.2l-0.9-0.6l-2.8-5.2l0.5-1.7l-0.7-1.8l-2-2.4l-1.1-0.5l-2.7,1.2l-1.5-1.4l-1.6-0.7l-3,0.3
				l-2.2-0.3l-2,0.2l-1.2,0.5l-0.2,0.6l0.4,0.6l0.1,1.3l-0.8-0.2l-0.8,0.5l-1.6-0.1l-2.1-1.4l-2.1,0.3l-1.9-0.6l-3.7,0.8l-2.4,2.1
				l-2.5,1.2l-1.5,1.4l-0.6,1.4l0.3,3.7l-0.3,0l-3.5-1.3l-1.3-3.1l-1.4-1.5l-2.2-3.6l-1.8-1.1l-2.3,0l-1.7,2.1l-1.8-0.7l-1.2-0.7
				l-1.5-3l-3.9-3.2h-4.3l-0.4,0.4v0.7l-6.5,0l-9-3.1l-0.3-0.7l-5.7,0.5l-0.4-1.3l-1.6-1.6l-1.1-0.4l-0.6-0.9l-1.3-0.1l-1-0.8
				l-2.2-0.3l-0.4-0.3l-0.4-1.6l-2.4-2.8l-2-3.9l-0.1-0.9l-2.9-3.3l-0.3-2.3l-1.3-1.7l0.5-2.4l-0.1-2.6l-0.8-2.3l1-2.8l0.6-5.7
				l-0.5-4.3l-1.5-4.1l3.2,0.8l1.3,2.8l0.7,0.1l0.7-1.1l-1.1-4.8h68.9l0.4-0.4L182.8,150.3L182.8,150.3z M31.8,67.2l1.7,2l0.6,0.1
				l1-0.8l3.7,0.2l-0.1,0.6l0.3,0.5l3.8,0.8l2.6-0.4l5.2,1.4l4.8,0.4l1.9,0.6l3.4-0.7l6.2,1.9l0,38.1l0.4,0.4l2.4,0.1l2.3,1l3.9,4
				l0.6,0l2.4-2l2.2-1l1.2,1.7l4,3.1l4.1,6.6l4.2,2.3l0.1,1.8l-1,1.2l-1.2-1.1l-2-1l-0.7-2.9l-3.3-3l-1.7-3.6l-6.4-0.3l-2.8-1
				l-5.3-3.9l-6.8-2l-3.5,0.3l-4.8-1.7l-3.3-1.6l-2.8,0.8l-0.3,0.5l0.4,2.2l-3.9,1L43,115l-2.3,0.7l-0.3-1.7l1.1-3.4l2.5-1.1
				l0.2-0.6l-0.7-1l-0.6-0.1l-3.2,2.1l-1.8,2.6l-3.6,2.6l0,0.6l1.6,1.5l-2.1,2.3l-5.1,2.6l-0.8,1.7l-3.8,1.8l-0.9,1.7l-2.7,1.4
				l-1.8-0.2l-7,3.3l-4,0.9l4.9-2.5l2.6-1.9l3.3-0.5l1.2-1.4l3.4-2.1l2.6-2.3l0.4-2.7l1.2-2.1l0-0.5l-0.5-0.1l-2.7,1l-0.6-0.5
				l-0.5,0l-1.1,1l-1.4-1.5l-0.7,0.1l-0.3,0.6l-0.6-1.1l-0.6-0.2l-2.4,1.4H15l-0.2-1.8l0.3-1.7l-1.6-1.3l-3.4,0.6l-2-1.6l-1.6-0.8
				l-0.2-2.2l-1.7-1.4l0.8-1.9l2-2.1l0.9-1.9l1.7-0.2l2,0.5l1.9-1.8L16,100l1.9-1.2l0.2-0.4l-0.5-1.8l-1.1-0.7l1.4-1.2l0.1-0.5
				l-0.4-0.3L16,94l-2.7,0.9l-0.8,0.8l-1.9-0.8l-3.5,0.4l-3.4-0.9l-1.1-1.6l-2.7-2l2.9-1.4l5.5-2h1.5L9.7,89l0.4,0.5l5.3-0.2
				l0.3-0.7l-2-2.6l-3.1-1.7l-1.8-2.1l-2.4-1.8l-3.1-1.2l1-1.7l4.2-0.1l3.4-2.1l0.7-2.3l2.4-2l2.4-0.5l4.7-2l2.5,0.2l3.7-2.4
				L31.8,67.2L31.8,67.2z M36.9,123.2l-2.3,1.2l-1-0.7l-0.3-1.2l3.2-1.6l1.4,0.2l0.7,0.7L36.9,123.2L36.9,123.2z M30.4,234l1,0.5
				l0.7,0.9l-1.8,1.1l-0.4-1.5L30.4,234L30.4,234z M28.6,232.1l0.2,0.1l0.1,0.1l-0.2,0L28.6,232.1L28.6,232.1z M24.5,230.2
				L24.5,230.2l0.2,0.2l-0.1,0L24.5,230.2L24.5,230.2z M5.2,113.1l-1.1,0.4l-2.2-1.1l1.5-0.4l1.6,0.3L5.2,113.1z"/>
			<path id="XMLID_71_" class="st2" d="M286.6,373l-0.9,1.5l-2.6,1.4l-1.7-0.5l-1.4,0.3l-2.4-1.2l-1.5,0.1l-1.3-1.3l0.2-1.5l0.6-0.8
				l0-2.7l1.2-4.7l1.2-0.2l2.4,2l1.1,0l4.4,3.2l1.2,1.6l-1,1.5L286.6,373L286.6,373z"/>
			<path id="XMLID_70_" class="st2" d="M510.5,197.9l-0.9,0.5l1.8-3.5l0.6,0.1l0.2,0.6l-1.1,0.9L510.5,197.9L510.5,197.9z"/>
			<path id="XMLID_69_" class="st2" d="M690,248.6l-1.8-0.7l-0.5,0.2l-0.9,1.5l-1.3-0.6l0.6-1l0.1-2.2l-2-2.4l-0.3-2.7l-1.9-2.1
				l-2.2-0.3L679,239l-1.1,0.1l-1.1-0.4l-2.1,1.2l0-1.6l0.6-2.7l-0.4-0.5l-1.4-0.1l-0.1-1.2l-1-0.9l2-1.9l0.4,0.4l1.3,0.1l0.4-0.5
				l-0.3-2.7l0.7-0.2l1.3,1.8l1.1,2.4l0.4,0.2l2.8,0l0.7,1.7l-1.4,0.7l-0.7,0.9l0.1,0.6l2.9,1.5l3.6,5.3l1.9,1.8l0.6,1.6L690,248.6
				L690,248.6z"/>
			<path id="XMLID_68_" class="st2" d="M724.5,226.7l-0.7,1.5l-0.9-1.5l-0.3-1.7l1.4-2.4l1.7-1.7l0.6,0.4L724.5,226.7L724.5,226.7z"
				/>
			<path id="XMLID_67_" class="st2" d="M266.3,259.4l0.3-1.2l1.1-0.2l-0.1,1.2L266.3,259.4z"/>
			<path id="XMLID_64_" class="st2" d="M513.3,175.4l3.6,1.2l3.1-0.4l2.1,0.3l3.1-1.6l2.5-0.1l2.2,1.3l0.3,0.8l-0.2,1.3l0.3,0.4
				l2.3,1.1l-1.2,0.6l-0.2,0.5l0.8,3.2l-0.4,1.2l1.1,1.9l-0.6,0.2l-0.9-0.7l-2.9-0.4l-1.2,0.5l-4.2,0.4l-2.8,1.1l-1.9,0l-1.5-0.5
				l-2.6,0.8l-0.7-0.5l-0.6,0.3l-0.1,1.5l-0.9,0.8l-0.5-0.7l0.8-1.3l-0.4-0.2l-1.4,0.2l-2-0.6l-2,1.7l-3.5,0.3l-2.1-1.5l-2.7-0.1
				l-0.9,1.2l-1.4,0.3l-2.3-1.4l-2.7,0l-1.4-2.7l-1.7-1.5l1.1-2l-0.1-0.5l-1.3-1.1l2.4-2.4l3.7-0.1l1.3-2.2l4.5,0.4l3.2-2l2.8-0.8
				l4-0.1L513.3,175.4L513.3,175.4z M488.9,176.6l-1.7,1.3l-0.5-0.9l1.4-2.6l-0.7-0.9l1.7-0.6l1.8,0.3l0.5,1.2l1.8,0.8l-2.9,0.3
				L488.9,176.6L488.9,176.6z"/>
			<path id="XMLID_63_" class="st2" d="M624.5,269l-1.8,0.5l-1-1.7l-0.4-3.5l1-3.4l1.2,1l2.3,4.2l-0.3,2.3L624.5,269L624.5,269z"/>
			<path id="XMLID_62_" class="st2" d="M489.2,122.7l1,0.7l0.2,1.7l0.7,1.8l-3.7,1.7l-2.2-1.6l-1.3-0.3l-0.7-0.8l-2.4,0.3l-4.2-0.2
				l-2.5,0.9l0.1-2l1.1-2.1l2-1l2.1,2.6l2-0.1l0.4-0.3l0.4-2.5l1.8-0.5l3.1,1.7L489.2,122.7L489.2,122.7z"/>
			<path id="XMLID_61_" class="st2" d="M487,129.1l0.2,1.1l-1.8,1l-0.7,2l-2.5,1.2l-2.1,0l-0.7-1.1l-1.1-0.3l-0.1-1.9l-3.6-1.1
				l-0.4-2.4l2.5-0.9l4.1,0.2l2.3-0.3l0.5,0.7l1.2,0.2L487,129.1L487,129.1z"/>
			<path id="XMLID_60_" class="st2" d="M436.1,149.3l-0.5-0.1l0.3-1.3l0.3,0.4L436.1,149.3L436.1,149.3z"/>
			<path id="XMLID_59_" class="st2" d="M399.3,266l0.2,1.5l-0.5,1l0.1,0.5l2.5,1.8l-0.3,2.8l-2.7-1.1l-5.8-4.6l0.6-1.3l2.1-2.3
				l0.9-0.2l0.8,1.1L397,266l0.6,0.9l1,0.1L399.3,266L399.3,266z"/>
			<path id="XMLID_58_" class="st2" d="M491.1,363.7l-0.5,0.2l-1.5-1.7l1.1-1.4l2.2-1.4l1.5,1.3l-1,1.8l-1.2,0.4L491.1,363.7
				L491.1,363.7z"/>
			<path id="XMLID_55_" class="st2" d="M670.7,255.9l-1.4,3.9l0.2,2l0.4,0.4l1.4,0.1l0.9,2l0.6,2.3l1.4,1.4l1.6,0.4l1,1l-0.5,0.6
				l-1.1,0.2l-0.3-1.2l-2-1.1l-0.6,0.2l-0.6-0.6l-0.5-1.3l-2.6-2.6l-0.7,0.4l1-3.9L670.7,255.9L670.7,255.9z M671.1,254.8l-0.9-2.2
				l-0.3-2.6l-2.1-3.1l0.7-0.5l0.9-2.6l-3.6-5.5l0.9-0.5l1.1-2.6l1.7-0.2l2.6-1.6l0.8,0.6l0.1,1.4l0.4,0.4l1.2,0.1l-0.5,2.3l0.1,2.4
				l0.6,0.3l2.4-1.4l0.8,0.4l1.5-0.1l0.7-0.9l1.5,0.1l1.7,1.9l0.3,2.7l1.9,2.1l-0.1,1.9l-0.6,0.9l-2.2-0.3l-3.5,0.6l-1.6,2.1
				l0.4,2.6l-1.5-0.8l-1.8,0l0.3-1.5l-0.4-0.5l-2.2,0l-0.4,0.4l-0.2,2.7L671.1,254.8L671.1,254.8z"/>
			<path id="XMLID_54_" class="st2" d="M596.9,420.7l-3.2,0.2l-0.1-1.3l0.4-1.4l1.3,0.8l2.1,0.4L596.9,420.7L596.9,420.7z"/>
			<path id="XMLID_53_" class="st2" d="M422.7,257.7l-0.1,1.2l1.5,1.5l0.1,1.1l0.5,0.7l-0.1,5.6l0.5,1.5l-1.3,0.4l-1-2.1l-0.2-1.1
				l0.5-2.2l-0.6-1.2l-0.2-3.7l-1-1.4l0.1-0.3L422.7,257.7z"/>
			<path id="XMLID_52_" class="st2" d="M480.3,235.5l0.1,9.6l-2.1,0.1l-1.1,1.9l-0.7,1.6l0.3,0.7l-0.7,0.9l0.2,0.9l-0.9,2l0.5,0.5
				l0.6-0.1l0.3,0.6l0,1.4l0.9,1l-1.5,0.4l-1.3,1l-1.8,2.8l-2.2,1.1l-2.3-0.2L468,262l-0.3,0.5l0.2,0.6l-2.1,1.7l-2.9,0.9l-1.1-0.6
				l-0.7,0.7l-1.1,0.1l-1.1-3.1l-1.3-0.6l-1.2-1.2l0.3-0.6l3,0l0.4-0.6l-1.3-2.2l-0.1-3.3l-1-1.7l0.2-1l-0.4-0.5l-1.2,0v-1.3l-1-1.1
				l1-3l3.3-2.7l0.1-3.3l1-5.2l0.5-1.1l-0.1-0.5l-0.9-0.8l-0.2-1l-0.8-0.6l-0.6-3.7l2.1-1.2L480.3,235.5L480.3,235.5z"/>
			<path id="XMLID_51_" class="st2" d="M483.6,203.1l-0.8,1.1l0.3,1.4l-0.6,1.8l0.7,2.1v24.2l-2.5,0l-0.4,0.9l-19.4-9.8l-4.4,2.3
				l-1.4-1.3l-3.8-1.1l-1.1-1.7l-2-1.2l-1.2,0.3l-0.7-1.1l-0.2-1.3l-1.3-1.7l0.9-1.2l-0.1-4.3l0.4-2.3l-0.9-3.5l1.1-0.8l0.2-1.2
				l-0.2-1l3.5-2.6l0.3-1.9l2.5,0.8l1.2-0.2l2,0.4l3.2,1.2l1.4,2.5l5.7,1.7l2.6,1.4l1.6-0.7l1.3-1.3l-0.4-2.3l0.7-1.1l1.7-1.2
				l1.6-0.4l3.1,0.5l1.1,1.3l4,0.8L483.6,203.1L483.6,203.1z"/>
			<path id="XMLID_50_" class="st2" d="M551,223.9l1.9-0.4l3.8,0l4.8-4.8l0.2,0.4l0.3,1.6l-0.8,0l-0.4,0.4l-0.1,2l-0.8,0.6l0,1
				l-0.7,1l-0.4,1.4l-7.1-1.3L551,223.9L551,223.9z"/>
			<path id="XMLID_49_" class="st2" d="M240.3,256.7l0.5,0.8l0,1.1l-1.1,1.8l1,2l0.4,0.2l1.4-0.4l0.6-1.8l-0.8-1.2l-0.1-1.5l2.8-0.9
				l0.3-0.5l-0.3-1l0.3-0.3l0.7,1.3l2,0.3l1.4,1.2l0.1,0.7l0.4,0.4l4.8-0.2l1.5,1.1l1.9,0.3l1.7-0.8l0.2-0.6l3.4-0.1l-0.2,0.6
				l0.9,1.2l2.2,0.4l1.7,1.1l0.4,1.9l0.4,0.3l1.6,0.2l-1.7,1.4l-0.2,0.9l0.7,1l-1.7,0.5l-0.3,0.4l0,1l-0.6,0.6l0,0.6l1.9,2.3
				l-0.7,0.7l-4.5,1.3l-0.7,0.5l-3.7-0.9l-0.7,0.3l0,0.7l0.9,0.5l-0.1,1.5l0.4,1.6l0.4,0.3l1.7,0.2l-1.3,0.5l-0.5,1.1l-2.7,0.9
				l-0.6,0.8l-1.6,0.1l-1.2-1.1l-0.8-2.5l-1.3-1.3l1-1.2l-1.3-3l0.2-1.6l1-2.2l-0.2-0.5l-1.1-0.5l-4,0.4l-1.8-2.1l-1.6-0.3l-3,0.2
				l-1.1-1l0.3-1.2l-0.2-1l-0.6-0.7l-0.3-1.1l-1.1-0.4l0.8-2.8L240.3,256.7L240.3,256.7z"/>
			<path id="XMLID_46_" class="st2" d="M601,188.8l-1.6,1.3l-0.1,0.5l0.8,2.3l-1.1,1l0,1.3l-0.5,0.7l-2.2-0.1l-0.4,0.6l0.8,1.5
				l-1.4,0.7l-1.1,1.7l0.1,1.7l-0.7,0.5l-0.9-0.2l-1.9,0.4l-0.5,0.8l-1.9,0.1l-1.4,1.6l-0.2,2.3l-2.9,1l-1.7-0.2l-0.7,0.6l-1.4-0.3
				l-2.4,0.4l-3.5-1.2l2-2.4l-0.2-1.8l-0.3-0.3l-1.6-0.4l-0.2-1.6l-0.8-2l1-1.4l-0.2-0.6l-0.7-0.3l1.5-4.8l2.1,0.9l2.1-0.4l0.7-1.3
				l1.8-0.4l1.5-0.9l0.6-2.3l1.9-0.5l0.5-0.8l0.9,0.6l2.1,0.1l2.6,0.9l2-0.8l0.7,0.4l0.6-0.1l0.7-1.1l1.6-0.1l0.7-1.7l0.8-0.7
				l0.8,0.4l-0.2,0.6l0.7,0.6l-0.1,2.4L601,188.8L601,188.8z M601.6,188.6l1.7-0.7l1.4-1.2l4,0.4l-2.2,0.7L601.6,188.6L601.6,188.6z
				"/>
			<path id="XMLID_45_" class="st2" d="M531,187.4l0.8,0.7l1.3-0.3l1.5,3.1l1.6,0.9l0.1,1.2l-1.2,1.1l-0.5,2.5l1.7,2.7l3.1,1.6
				l1.2,1.9l-0.4,1.9l0.4,0.5h0.4l0,1.1l0.8,0.9l-2.5-0.1l-1.7,2.4l-4.3-0.2l-7-5.5l-3.7-1.9l-2.9-0.7l-0.9-2.9l5.5-3l1-3.4l-0.2-2
				l1.3-0.7l1.2-1.7l0.9-0.4L531,187.4L531,187.4z"/>
			<path id="XMLID_44_" class="st2" d="M384,87.8l-0.4,2.6l2.5,2.5l-2.9,2.8l-9.2,3.4l-9.3-1.7l1.7-1.2l-0.1-0.7l-4.1-1.5l3-0.5
				l0.3-0.4l-0.1-1.2l-0.3-0.4l-4.7-0.9l1.3-2l3.5-0.6l3.8,2.7l0.4,0l3.6-2.2l3.3,1.1l4-2.2L384,87.8L384,87.8z"/>
			<path id="XMLID_43_" class="st2" d="M533.6,187.1l-1.3-2.2l0.4-1l-0.7-3l1-0.5l0.3,0.8l1.3,1.4l2.1,0.5l1.1-0.2l2.9-2.1l0.6-0.1
				l0.4,0.5l-0.7,1.2l0.1,0.5l1.6,1.5l0.7,0l0.7,1.8l2.6,0.8l1.9,1.5l3.7,0.5l3.9-0.8l0.5-0.7l2.2-0.6l1.7-1.5l1.5,0.1l1.2-0.5
				l1.6,0.2l2.8,1.5l1.9,0.3l2.8,2.5l1.8,0.2l0.2,2l-1.7,5.5l0.2,0.5l0.6,0.2l-0.8,1.5l0.8,2.2l0.2,1.7l0.3,0.3l1.6,0.4l0.2,1.3
				l-2.2,2.4l0,0.5l2.2,3l2.3,1.2l0.1,2.1l1.2,0.7l0.1,0.7l-3.3,1.3l-1.1,3l-9.7-1.7l-1-3.1l-1.4-0.7l-2.2,0.5l-2.5,1.3l-2.8-0.8
				l-2.5-2l-2.4-0.8l-3.4-6.1l-0.5-0.2l-1.2,0.4l-1.4-0.8l-0.5,0.1l-0.7,0.7l-1-1l0-1.3l-0.7-0.4l0.3-1.8l-1.3-2.1l-3.1-1.6
				l-1.6-2.4l0.5-1.9l1.3-1.3l-0.2-1.7l-1.7-1.1L533.6,187.1L533.6,187.1z"/>
			<path id="XMLID_42_" class="st2" d="M537.2,182.2l-0.3,0l-1.2-2.1l-0.9,0l-0.6-0.7l-0.7-0.1l-1-0.8l-1.6-0.6l0.2-1.1l-0.3-0.8
				l2.7-0.4l1.1,1l-0.2,0.9l1,0.8L535,179l0.1,0.6l2,1.2L537.2,182.2L537.2,182.2z"/>
			<path id="XMLID_41_" class="st2" d="M470.4,171.7l0.7,0l0.9,0.9l-0.2,2l0.4,1.3l1,0.8l-1.8,2.8l-0.2-0.6L470,178l-0.2-1.2
				l0.5-2.8l-0.5-1.5L470.4,171.7L470.4,171.7z"/>
			<path id="XMLID_38_" class="st2" d="M461.6,300.1l1.3,3.2l1.9,2.4l2.5-0.5l1.3,0.3l0.4-0.2l0.9-1.9l1.3-0.1l0.4-0.4h0.5l-0.1,0.4
				l0.4,0.5l2.7,0l0,1.2l0.5,1l-0.3,1.5l0.2,1.6l0.8,1l-0.1,2.9l0.5,0.4l4-0.4l-0.1,1.8l0.4,1.1l-0.2,1.4l-4.7,0l-0.4,0.4l-0.1,8.1
				l2.9,3.5l-3.8,0.9l-5.9-0.4l-1.9-1.2l-10.5,0.2l-1.3-1l-1.9-0.2l-2.4,0.8l-0.2-1.1l0.3-2.2l1-3.5l1.4-3.2l2.2-2.8l0.3-2.1
				l-0.1-1.5l-0.8-1.1l-1.2-2.9l0.9-1.6l-1.3-4.1l-1.2-1.5l2.5-0.6L461.6,300.1L461.6,300.1z M451.7,299l-0.5-1.3l1.3-1.1l0.3,0.3
				l-1,1L451.7,299L451.7,299z"/>
			<path id="XMLID_35_" class="st2" d="M249,429.3l-2.3-0.5l-5.8-0.4l-0.9-1.7l0.1-2.4l-0.5-0.4l-1.4,0.2l-0.7-0.9l-0.2-3.1l1.9-1.5
				l0.8-2l-0.3-1.7l1.3-2.7l0.9-4.2l-0.2-1.7l0.9-0.5l0.2-0.4l-0.3-1.2l-1-0.7l0.6-0.9l-0.1-0.5l-1-1.1l-0.5-3.1l1-0.9l-0.4-3.6
				l1.2-5.4l1.4-1l0.2-0.4l-0.8-2.8l0-2.4l1.8-1.8l0.1-2.6l1.4-2.9l0-2.6l-0.7-0.7l-1.1-4.5l1.5-2.7l-0.2-2.8l0.9-2.4l1.6-2.5
				l1.7-1.6l0.1-0.5l-0.6-0.8l0.4-0.9l-0.1-4.2l2.7-1.4l0.9-2.8l-0.2-0.7l1.8-2l2.9,0.6l1.4,1.8l0.7-0.1l0.9-1.9l2.4,0.1l5,4.8
				l2.2,0.5l3,1.9l2.5,1l0.3,0.8l-2.4,3.9l0.2,0.6l5.4,1.2l2.1-0.4l2.5-2.2l0.5-2.4l0.8-0.3l1,1.2l0,1.8l-3.7,2.5l-2.9,2.7L276,363
				l-1.3,5.1l0,2.7l-0.5,0.7l-0.4,3.3l3.1,2.6l-0.2,2.1l1.4,1.1l-0.1,1.1l-2.3,3.5l-3.6,1.5l-4.9,0.6l-2.7-0.3l-0.4,0.5l0.5,1.7
				l-0.5,2.1l0.4,1.4l-1.2,0.8L261,394l-2.3-1l-1.4,0.8l0.4,3.6l1.7,0.9l1.4-0.7l0.4,0.8l-2,0.9l-2,1.9l-1,4.6l-2.3,0.1l-2.1,1.8
				l-0.6,2.8l2.5,2.3l2.2,0.6l-0.7,2.3l-2.8,1.7l-1.7,3.9l-2.2,1.2l-1.2,1.7l0.8,3.8L249,429.3L249,429.3z M256.4,439.2l-2,0.2
				l-1.4-1.2l-3.8-0.1v-5.8l1.6,3.1l3.3,2.1l3.1,0.8L256.4,439.2L256.4,439.2z"/>
			<path id="XMLID_32_" class="st2" d="M706.3,353.5l0.3,0l0.2-0.5l-0.5-1.4l0.9,1.1l0.5,0.2l0.3-0.4l-0.1-1.6l-2-3.6l1.1-3.3
				l-0.2-1.6l0.3-0.6l0.4,1.1l0.4-0.2l1-1.7l1.9-0.8l1.3-1.2l1.8-0.9l1-0.2l0.9,0.3l1.9-1l1.5-0.3l1-0.8l1.4,0l2.8-0.8l1.4-1.2
				l0.7-1.5l1.4-1.3l0.3-2.6l1.3-1.6l0.8,1.7l0.5,0.2l1.1-0.5l0.2-0.6l-0.7-1l0.5-0.7l0.8,0.4l0.6-0.3l0.3-1.8l1.9-2.1l1.1-0.4
				l0.3-0.6l0.6,0.2l0.5-0.7l1.9-0.6l1.7,1.1l1.4,1.5l3.4,0.4l0.4-0.5l-0.5-1.2l1.1-1.8l1-0.6l0.1-0.6l-0.3-0.4l0.9-1.2l1.3-0.8
				l1.3,0.3l2.1-0.5l0.3-0.4l-0.1-1.3l-0.9-0.8l1.5,0.6l1.4,1.1l2.1,0.7l0.8-0.2l1.4,0.7l1.7-0.7l0.8,0.2l0.6-0.3l0.7,0.8l-1.3,1.9
				l-0.7,0.1l-0.4,0.5l0.2,0.9l-1.5,2.4l0.1,1.1l2.2,1.7l2,0.9l3,2.4l2,0.7l0.6,0.9l2.7,0.9l1.8-1.1l2.1-6l-0.4-3.6l0.3-1.7l0.5-0.9
				l-0.3-0.7l1.1-3.3l0.5-0.5l0.4,0.7l0.2,1.5l0.7,0.5l0.2,1l0.9,1.2l0.1,2.4l0.9,2l0.6,0.2l1.3-0.8l1.7,1.7l-0.2,1.1l0.5,2.2
				l0.4,1.3l0.7,0.5l0.6,2l-0.2,1.5l0.8,1.8l6,3.7l-0.1,0.8l1.4,1.6l1,2.8l0.6,0.2l0.7-0.4l0.8,0.9l0.6,0l0.5,2.4l4.8,4.7l0.7,2
				l-0.1,3.3l1.1,2.2l-0.1,2.2l-1.1,3.7l0,1.6L804,367l-1.1,2.4l-1.9,1.5l-1.7,3.5l-2.4,6.1l-0.2,2.8l-1.1,0.8l-2.9,0.2l-2.3,1.2
				l-2.5,2.3l-3.1-1.6l0.3-1.2l-0.5-0.5l-1.5,0.6l-2,1.9l-7.1-2.2l-1.5-1.6l-1.1-3.7l-1.5-1.3L768,378l0.6-1.2l-0.6-2.1l-0.7-0.1
				l-1.1,1.8l-0.9,0.2l0.6-0.8l0.4-1.6l0.9-1.3l-0.1-2.3l-0.7-0.2l-2,2.3l-1.5,0.9l-0.9,2l-1.4-0.8l0-1.5l-1.6-2l-1.1-0.9l0.2-0.3
				l-0.1-0.6l-3.2-1.7l-1.8-0.1l-2.5-1.4l-4.6,0.3l-6,1.9l-2.5-0.1l-2.6,1.4l-2.1,0.6l-1.5,2.6l-3.5,0.3l-2.3-0.5l-3.5,0.4l-1.6,1.5
				l-0.8,0l-2.4,1.6l-3.3-0.1l-3.7-2.2l0-1.1l1.2-0.5l0.5-0.9l0.2-3l-0.3-1.6l-1.3-2.9l-0.4-1.5l0.1-1.7l-1-1.7l-0.2-1l-1-1l-0.3-2
				L706.3,353.5L706.3,353.5z M785.5,393.7l2.7,1l3.2-1l1.1,0.1l0.2,3.1l-0.9,1.1l-0.2,1.6l-0.9-0.2l-1.6,1.9l-1.7-0.2l-1.4-2.4
				l-0.4-2l-1.4-2.5l0-0.8L785.5,393.7L785.5,393.7z"/>
			<path id="XMLID_31_" class="st2" d="M462.9,152.7l0,2.3h-1.1l-0.3,0.6l0.4,0.5l-1,2.1l-2,0.1l-1.3,0.7l-5.3-1l-0.5-0.9l-0.4-0.2
				l-2.5,0.6l-0.4,0.5l-3.2-0.8l0.4-0.9l1.1,0.8l0.6-0.2l0.3-0.6l1.9,0.1l1.9-0.6l1,0.1l0.7,0.6l0.6-0.2l0.3-0.8l-0.3-1.8l0.8-0.4
				l0.7-1.2l1.5,0.9l0.5-0.1l1.3-1.3l0.6-0.2l1.8,0.9l1.3-0.1L462.9,152.7L462.9,152.7z"/>
			<path id="XMLID_30_" class="st2" d="M623.7,207l-1.2,1l-1,2.6l0.2,0.5l8.1,3.9l3.4,0.4l1.6,1.4l4.9,0.9l2.2,0l0.4-0.3l0.3-1.2
				l-0.3-1.6l0.1-0.9l0.8-0.3l0.5,2.5l2.3,1l1.8-0.4l4.1,0.1l0.4-0.4l0.2-1.7l-0.5-0.7l1.4-0.3l2.3-2l2.7-1.6l1.9,0.6l1.8-1l0.8,1.1
				l-0.7,0.9l0.3,0.6l2.4,0.4l0.1,0.5l-0.8,0.8l0.1,1.1l-1.5-0.3l-3.2,1.9l-0.1,1.8l-1.3,2.1l-0.2,1.4l-0.9,1.8l-1.6-0.5l-0.5,0.4
				l-0.1,2.6l-0.6,1.1l0.2,0.8l-0.5,0.3l-1.2-3.7l-1.1-0.3l-0.4,0.3l-0.2,1l-0.7-0.7l0.5-1.1l1.2-0.3l1.2-2.3l-0.2-0.6l-1.6-0.5
				l-4.3-0.3l-0.2-1.6l-0.4-0.4l-1.1-0.1l-1.9-1.1l-0.6,0.2l-0.9,1.8l0.1,0.5l1.4,1.1l-1.1,0.7l-0.7,1.1l0.2,0.6l1.2,0.6l-0.3,1.5
				l0.9,1.9l0.4,2l-0.2,0.6l-4.6,0.5l-0.3,0.4l0.1,1.8l-1.2,1.4l-3.7,1.8l-2.8,3l-4.3,3.3l-0.2,1.3l-4.7,1.8l-0.8,2.2l0.6,5.3
				l-1.1,2.5l0,3.9l-1.2,0.3l-1.1,1.9l0.4,0.8l-1.7,0.5l-1,1.8l-0.7,0.5l-2.1-2.1l-2.1-6l-2.2-3.6l-1.1-4.8l-2.3-3.6l-1.8-8.2l0-3.1
				l-0.5-2.5l-0.6-0.3l-3.5,1.5l-1.5-0.3l-2.9-2.8l0.9-0.7l0.1-0.6l-0.7-1l-2.7-2.1l1.2-1.3l5.3,0l0.4-0.5l-0.5-2.3l-1.4-1.5
				l-0.3-1.9l-1.4-1.2l2.3-2.4l3.1,0.1l2.6-2.9l1.6-2.8l2.4-2.7l0.1-2l2-1.5l0-0.7l-1.9-1.3l-0.8-1.8l-0.8-2.2l0.9-0.9l3.6,0.7
				l2.9-0.4l2.3-2.2l2.3,2.9l-0.2,2.1l1,1.6l-0.1,0.8l-1.3-0.3l-0.5,0.5l0.7,3.1l2.6,2L623.7,207L623.7,207z"/>
			<path id="XMLID_29_" class="st2" d="M495.7,296.5l2.8-3.1l0-0.8l-0.6-1.3l0.7-0.5l0.1-1.5l-0.8-1.3l0.3-0.1l2.3,0l-0.5,2.8
				l0.8,1.3l0.5,0.1l1.1-0.5l1.2-0.1l0.6,0.2l1.4-0.6l0.1-0.7l-0.7-0.6l1.6-1.7l8.7,4.9l0.3,1.5l3.3,2.3l-1.1,2.8l0.1,1.6l1.6,1.1
				l-0.6,1.8l0,2.3l1.9,4l0.6,0.4l-1.5,1.1l-2.6,0.9l-1.4,0l-1.1,0.8l-2.3,0.4l-2.9-0.7l-0.8,0.1l-0.6-0.8l-0.3-2.8l-1.3-1.4
				l-3.3-0.8l-4-1.6l-1.2-2.4l-0.3-1.8l-1.8-1.5l0.4-1.1l-0.4-0.9l0.1-1l-0.5-0.6L495.7,296.5L495.7,296.5z"/>
			<path id="XMLID_26_" class="st2" d="M539.5,175.6l1.3,0.3l1.9-1.8l2.3,3.3l1.4,0.4l-1.3,0.2l-0.4,0.3l-0.8,3.1l-1,1l0.1,1.1
				l-1.3-1.1l0.7-1.2l0-0.5l-0.7-0.9l-1.5,0.2l-2.3,1.7l0-1.3l-2-1.4l0.5-0.6l-0.1-0.6l-1-0.8l0.3-0.4l-0.1-0.6l-1.1-0.9l1.9,0.7
				l1.7,0.1l0.4-0.9l-0.8-1.4l0.4,0.1L539.5,175.6L539.5,175.6z M533.9,180.5l0.6,0.5h0.7l0.6,1.2l-0.7-0.2L533.9,180.5L533.9,180.5
				z"/>
			<path id="XMLID_25_" class="st2" d="M405,135.2l0.4,2.1l-1.8,2.8l-4.2,1.9l-2.8-0.4l1.7-3l-1.2-3.5l4.6-3.7l0.3,1.2l-0.5,1.7
				l0.4,0.5l1.5,0L405,135.2L405,135.2z"/>
			<path id="XMLID_8_" class="st2" d="M757,288l0.7,4l2.8,1.8l0.5-0.1l2-2.6l2.7-1.4h2.1l3.9,1.7l2.5,0.5l0.1,15.1l-1.8-1.5
				l-2.5-0.5l-0.9,0.7l-2.3,0.1l0.7-1.3l1.5-0.6l0.2-0.5l-0.7-2.7l-1.2-2.2l-5-2.3l-2.1-0.2l-3.7-2.3l-0.6,0.1l-0.7,1.1l-0.5,0.1
				l-0.6-1.9l-1.2-0.8l1.8-0.6l1.7,0.1l0.4-0.5l-0.2-0.7l-0.4-0.3h-3.5l-1.1-1.5l-2.1-0.4l-0.5-0.6l2.7-0.5l1.3-0.8l3.7,0.9L757,288
				L757,288z M758.5,300.4l-0.6,0.8l-0.1-0.8l0.6-1.1L758.5,300.4L758.5,300.4z M747.9,293.1l0.3,0.7l-1.2-0.6l-4.7-0.1l0.3-0.6
				l2.8-0.1L747.9,293.1L747.9,293.1z M741.6,285.3l-0.7-2.9l0.6-2l0.4,0.9l1.2,0.2l0.2,0.7l-0.1,1.7l-0.8-0.2l-0.5,0.3L741.6,285.3
				L741.6,285.3z M739.6,293.6l-0.5,0.4l-1.3-0.4l-0.2-0.4l1.7-0.1L739.6,293.6L739.6,293.6z M721.9,284.6l-0.2,2l2.2,2.2l0.5,0
				l1.3-1.1l2.8-0.5l-0.9,1.2l-2.1,0.9l-0.2,0.6l2.2,3l-0.3,1.1l1.4,1.7l-2.3,0.9l-0.3-0.3l0.1-1.2l-1.6-1.3l0.2-2.2l-0.6-0.4
				l-1.7,0.8l-0.2,0.4l0.3,6.2l-1.1,0.3l-0.7-0.5l0.6-2.2l-0.4-2.4l-0.4-0.3l-0.8,0l-0.6-1.3l1-1.6l0.4-2L721.9,284.6L721.9,284.6z
				 M729.1,296.4l0.4,0.5l0,1.3l-0.9,0.5l-0.5-0.5L729.1,296.4L729.1,296.4z M729.5,287.1l0.3-0.1l0,0.1L729.5,287.1L729.5,287.1z
				 M722.2,284.1l0.2-0.3l1.9-1.7l1.8,0.7l3.2,0.4l2.9-0.1l2.4-1.7l-1.7,2.1l-1.7,0.4l-2.4-0.5l-4.2,0.1L722.2,284.1L722.2,284.1z
				 M731,310.6l1.1-1.9l2-0.8l0.1,0.6l-1.5,1.7L731,310.6z M728.6,306l-0.1,0.4L725,307l-2.9-0.3v-0.3l1.5-0.4l1.7,0.7l1.7-0.2
				L728.6,306L728.6,306z M723.4,310.4l-0.6,0l-2.3-1.2l1.1-0.2L723.4,310.4L723.4,310.4z M716.7,305.9l0.9,0.5l1.3-0.2l0.2,0.4
				l-4.7,0.7l0.4-0.7l1.2,0L716.7,305.9L716.7,305.9z M712.1,293.9l-0.4-0.2l-2.5,1l-1.1-1.4l-1.7-0.1l-1.2-0.8l-3,0.8l-1.1-1.2
				l-3.3-0.1l-0.4-3.1l-1.4-1l-1.1-2l-0.3-2.1l0.3-2.1l0.9-1l0.4,1.2l2.1,1.5l1.5-0.5l1.8,0.1l1.4-1.2l1-0.2l2.3,0.7l2.3-0.5
				l1.5-3.6l1-1l0.8-2.6l4.1,0.3l-1.1,1.8l0,0.5l1.7,2.2l-0.2,1.4l2.1,1.7l-2.3,0.4l-0.9,1.9l0.1,2.1l-2.4,1.9l-0.1,2.5L712.1,293.9
				L712.1,293.9z M693,302.1l0.4,0.3l4.8,0.3l0.8-1l4.2,1.1l1.1,1.7l3.7,0.5l2.1,1l-1.8,0.6l-2.8-1l-4.8-0.1l-5.2-1.4l-1.8-0.3
				l-1.1,0.3l-4.3-1l-0.7-1.1l-1.6-0.1l1.2-1.7l2.7,0.1l2.9,1.1L693,302.1L693,302.1z M685.9,299.3l-2.2,0l-2.1-2l-3.2-2l-2.9-3.5
				l-3.1-5.3l-2.2-2.1l-1.6-4.1l-2.3-1.7l-1.3-2.1l-2-1.5l-2.5-2.7l-0.1-0.7l4.8,0.5l2.2,2.4l3.3,2.7l2.4,2.7l2.7,0.2l2,1.6l1.5,2.2
				l1.6,1l-0.8,1.7l0.2,0.5l1.4,0.9l0.8,0.1l0.4,1.6l0.9,1.4l2,0.4l1,1.3l-0.6,3L685.9,299.3L685.9,299.3z"/>
			<path id="XMLID_7_" class="st2" d="M492.6,162.3l1.3-2.5l1.8,0.2l0.7-0.2l0.1-0.7l-0.3-0.8l-0.8-0.7l-0.3-1.2l-0.9-0.6l0-1.2
				l-1.1-0.9l-1.2-0.2l-2-1l-1.7,0.3l-0.7,0.5h-0.9l-0.8,0.8l-2.5,0.7l-1.2-0.7l-3.1-0.4l-0.9,0.4l-0.2-0.6l-1.1-0.7l0.4-0.9l1.3-1
				l-0.5-1.2l2-2.4l1.4-0.6l0.3-1.2l-1-2.4l0.8-0.1l1.3-0.8l1.8-0.1l2.5,0.3l2.9,0.8l1.9,0.1l0.9,0.4l1-0.4l0.8,0.7l2.2-0.2l0.9,0.3
				l0.5-0.3l0.2-1.5l0.6-0.5l2.9-0.1l0.8-0.7l3-0.2l1.2,1.5l-0.5,0.8l0.2,1l0.4,0.3l1.8,0.1l0.9,2.1l3.2,1.2l1.9-0.5l1.7,1.5l1.4,0
				l3.4,1l0,0.5l-1,1.6l0.5,2l-0.3,0.7l-2.4,0.3l-1.3,0.9l-0.2,1.4l-1.8,0.3l-1.6,1l-2.4,0.2l-2.2,1.2l-0.2,0.4l0.3,2.3l1.2,0.8
				l2.1-0.1l-0.1,0.3l-2.7,0.5l-3.2,1.7L505,165l0.4-1.1l-0.3-0.5l-2.2-0.7l2.4-1.1l0.1-0.7l-0.9-0.8l-3.6-0.7l-0.1-0.9l-0.5-0.3
				l-2.6,0.6l-0.9,1.7l-1.7,2l-0.9-0.4L492.6,162.3L492.6,162.3z"/>
			<path id="XMLID_6_" class="st2" d="M549.5,221.6l-0.8-0.2l-0.1-1.6l0.8-1.3l0.5,0.5l0,1.3L549.5,221.6L549.5,221.6z"/>
			<path id="XMLID_5_" class="st2" d="M508.7,318.9l-0.3-2.6l0.5-2.1l3.6,0.6l2.5-0.4l1-0.8l1.5,0l2.7-1l1.7-1.2l0.5,9.3l0.4,1.2
				l-0.7,1.7l-0.9,1.7l-1.5,1.5l-5.2,2.3l-2.8,2.7l-1,0.5l-1.7,1.8l-1,0.6l-0.4,2.4l1.2,1.9l0.5,2.2l0.4,0.3l-0.1,2.1l-0.4,1.2
				l0.5,0.7l-0.3,0.7l-0.9,0.8l-5.1,2.4l-1.2,1.4l0.2,1.1l0.6,0.4l-0.1,0.7l-1.2,0l-0.7-3l0.4-3.1l-1.8-5.4l2.5-2.8l0.7-1.9l0.4-0.4
				l0.3-1.5l-0.4-0.9l0.6-3.7l0-3.3l-1.5-1.2l-1.2-0.2l-1.7-1.2l-1.9,0l-0.3-2.1l7.1-2l1.3,1.1l0.9-0.1l0.7,0.4l0.1,0.7l-0.5,1.3
				l0.2,1.8l1.8,1.8l0.7-0.1l0.7-1.7l1.2-0.9l-0.3-3.5l-1.1-1.9L508.7,318.9L508.7,318.9z"/>
		</g>
		<g id="XMLID_3_">
		</g>
		<g id="XMLID_2_">
		</g>
	</g>
</g>
<g id="Layer_2">
	<path id="XMLID_332_" class="st3" d="M299.9,534.4l-3-0.4l-2.2-1.3l-3.1-0.6l-6.7-4.5l-2.8-3.1l-2.1-3.8l-0.8-2.2l0.8-2.5l-1.5-2.6
		l-0.4-6.4l1.2-3.5l3.1-2.8l-0.3-0.8l-3.8-0.9l2.4-3l0.9-5.6l2.8,1.1l0.6-0.4l1.5-7.6l-0.3-0.6l-2-1l-0.7,0.4l-0.8,4l-1-0.2
		l1.8-11.3l1.4-2.7l-0.9-3.4l-0.2-3.4l1.2-0.4l3.1-8.4l0.9-2.5l1.3-5.2l-0.7-5.1l0.9-2.8l-0.3-3.9l1.8-4l2.5-19.8l-0.8-9.5l-0.2-0.4
		l-0.3-0.5l-2.6-1.5l-0.4-1.4l-7.9-4.4l-3.5-2.1l-2.2-1.8l-1.1-2.2l0.4-1.1c0,0-2.6-4.1-2.6-4.1s-5.8-11.6-5.8-11.6l-1.3-1.4
		l-1.1-2.4l-4-2.9l0.8-1.4l-1.4-2.7l0.8-1.8l1.7-1.4l0.4-0.4l0.5-0.5l1.5-2.5l-0.7-1.3l-0.8-0.1l-0.8,1.1l-1.1-0.8l0.5-0.7l-0.4-2.4
		l1-0.6l0.5-1.9l1.1-1.8l0-1.2l3.2-1.6l0.1-0.6l0.1-0.5l1-0.6l-0.2-1.4l0.5-0.8l1.6-0.4l2.4-3.4l-0.1-0.7l-0.8-0.6l0.5-1.6l-0.6-2.5
		l0.6-1l-0.5-2.7l-1.2-1.7l0.2-0.6l1-0.1l0.6-0.9l-0.5-2l1.7,0l2.1-2l1.2-0.3l0.3-0.4l0.6-3.4l1.5-1.1l1.7,0l0.6-0.6l2.3,0.2
		l3.4-2.2l1.5-1.5l1.1,0.6l-0.3,0.5l-2.1,0.8l-0.6,1.3l0.4,0l0.7,0l0.6,0.9l0,1.3l-1.3,2.2l1.1,2.4l0.4,0.3l1.8-0.5l0.7-2.2l-1-1.4
		l-0.1-1.8l3.3-1.1l0.4-0.6l-0.4-1.2l0.4-0.3l0.8,1.5l2.4,0.3l1.7,1.5l0.1,0.8l0.5,0.5l5.8-0.2l1.7,1.3l2.4,0.4l2-1l0.3-0.8l4-0.2
		l-0.1,0.5l1,1.5l2.7,0.5l2,1.4l0.5,2.3l0.5,0.4l1.9,0.2l0.5,0.3l1,0.5l1.1,0.6l1.8,1.8l0,1.4l0.4,0.4l1.1,0.1l2.3,2.1l1.1,0.5
		l3,0.5l0.8-0.6l2.1-0.2l2.4,0.6l0.5,0.2l3.3,1l3.1,2.4l0.4,0.9l0.3,0.2l0.5,0.3l0.5-0.1l2.3,6.7l1.5,0.6l0.1,1.5l-2.1,2.4l0,0.7
		l1.2,1l5,0.3l0.1,2.7l0.8,0.3l2.1-1.8l8.3,2.8l1.3,1.5l-0.4,1.4l0.5,0.6l3.4-0.9l5.8,1.6l4.5-0.2l4.4,2.4l3.6,3.3l2.5,1.1l2.6,0.1
		l0.7,0.7l1.6,5.3l-1.1,4.7l-5.8,6.3l-1.9,3.5l-2,2.4l-1,0.5l-0.9,2.4l0.3,5.7l-1.1,6.7l-1,1.3l-0.5,4l-3.1,4.3l-0.5,3l-2.2,1.2
		l-0.8,1.9l-3.1,0.1l-4.7,1.3l-2.1,1.4l-3.5,1l-3.6,2.6l-2.6,3.4l-0.4,2.4l0.5,2l-0.5,3.2l-0.6,1.3l-2.2,1.9l-3.3,5.8l-4.6,4.1
		l-1.4,3.1l-1.5,1.4l-0.4,0.5l-0.4,0.4l-1,1.7l-3.1,1.8l-2.2-0.6l-1.5,0.4l-3-1.5l-1.7,0.1l-0.5,0.9l-0.5,0.9l1.9,1.6l0,2.7l1.6,1.3
		l-0.1,1.2l-2.6,4.4l-4.3,1.8l-6,0.8l-3.3-0.4l-0.6,0.6l0.8,1.8l-0.7,2.6l0.5,1.5l-1.4,1.3l-2.8,0.5l-2.8-1.3l-1.7,1l0.5,4.2
		l2.1,1.2l1.5-0.8l0.4,0.9l-2.3,1.1l-2.5,2.2l-1.2,5.5l-2.8,0.1l-2.6,2.2l-0.7,3.3l2.9,2.8l2.6,0.8l-0.8,2.7l-3.4,2.2l-2,4.6
		l-2.6,1.5l-1.4,2l0.9,4.5l1.2,1.5l0.3,3.5l1.9,3.6l3.9,2.5l3.6,0.9l-0.8,1.3l-2.4,0.2l-3,0.4L299.9,534.4z"/>
	<polyline id="XMLID_335_" class="st4" points="267.9,343.3 268.6,343.7 271.4,345.2 272.2,346.3 274.3,346.8 275.6,346.5 
		278.4,348 278.7,350.1 277.7,352.2 274.4,355.4 270.9,356.5 269.1,358.9 268.6,361.1 266.9,362.4 266.6,362.2 265.4,361 263.7,361 
		262.9,360.5 263.4,359.2 263.5,358.3 	"/>
	<path id="XMLID_336_" class="st4" d="M293.6,403.3l1.2-0.7l0.8-1.3l0.4-0.7l1.5-3l-1.1-2.5l0.6-1.2l-0.3-0.9l1-1.8l0.2-4.4l0.5-1.4
		l-0.7-1.5l-1.6-3.3l-2,0.4l-1.1-0.4v-4.4l-2.6,1.6l-2.4-0.1l-0.9-1.3l-2-0.4l-0.2-0.3l0.2-1.1l-1.5-1.9l-1.2-2.4l0.6-0.8l0.2-1.1
		l0.7-0.3l0.9-0.8l0-1.4l0.5-1.2l0.8-1.5l2.5-1.6c0,0,2.2-0.7,2.3-0.7s1.3-0.5,1.3-0.5l2.2-0.2l-1.4-1.3l-0.6-0.7l1.3-1.8l0.1-0.8
		l-2-1.3l-1.6,0.3l-1.5-0.5l-1.7,0.6l-2-0.3l-1.7-3l-1.4-0.9l-1.1-1.4l-1.8-1.4l-0.9,0.1"/>
	<polyline id="XMLID_337_" class="st4" points="280.5,521.7 281.2,522.3 282.5,523.5 286.6,526.5 290.8,528 291.8,526.5 
		293.3,523.3 296.5,521.6 295.9,520.6 288.7,519.9 287.5,517.7 287.4,514.8 285.5,514.8 284.5,513.6 284.1,509.6 286.4,507.7 
		287.4,505.2 287.1,503.3 288.7,500 289.7,494.8 289.5,492.9 290.7,492 290.4,490.8 289.2,489.9 290,488.4 288.6,487 287.9,483.1 
		289.1,481.9 288.7,477.6 290.2,471 291.9,469.5 291,466.3 291.1,463.2 293.3,460.8 293.3,457.9 294.9,454.5 295,451.8 294.2,450.8 
		292.9,445 294.6,441.4 294.5,438.2 295.5,435.6 297.3,432.5 299.4,430.3 298.7,429 299.2,428 299.3,422.8 302.5,421.2 303.3,418.4 
		303.3,417.5 303.1,417.3 303,417.2 301.2,417.6 300.8,417.2 299.7,413.2 298.2,409.9 298.4,408.9 298.9,406.6 297.5,405.3 297,403 
		296,401.6 295.5,401.3 	"/>
	<path id="XMLID_338_" class="st4" d="M296.5,521.8l1.8,0.6l0.2,3.1c0,0,0.1,6.4,0.1,6.4c0,0,4.3,0,4.3,0l0.8,1.3"/>
	<polyline id="XMLID_339_" class="st4" points="330.8,456 330.4,455.5 329.3,454.2 329.4,451.6 330.2,450.5 330.1,447.5 
		331.6,441.7 332,441.1 332.8,440 338.8,433.8 343.5,430.7 343.7,428.1 342.3,426.3 340.8,426.5 340.2,429.5 337.5,432 335.1,432.5 
		329.1,431.3 328.8,430.9 331.5,426.3 331.2,424.9 324.5,421.4 321.9,420.7 316.6,415.8 315.8,415 312.5,414.8 311.5,416.9 
		311.1,417.1 309.4,415 305.8,414.3 304.2,416 303.2,417.4 	"/>
	<polyline id="XMLID_340_" class="st4" points="344.2,452.8 343.8,451.8 343.8,451.2 344.9,449.6 343.1,447.5 337.9,443.5 
		336.5,443.5 333.7,441.1 332,441.1 	"/>
	<path id="XMLID_341_" class="st4" d="M316.6,415.8l0.3-1.8l0.7-2.3l0.3-1.9l1.6-2.4l4.4-0.8l3.1-0.1c0,0,2.6,1.5,2.8,1.5
		s0.3,0.7,0.3,0.7l0.9,1.9l-0.1,4.3l2.8,0.7l1.6-0.5l1.8,0.8l0.7,0.8l0.5,3.9l0.9,0.4l1.5-0.4l1.2,0.6l0,1.6l-0.9,3.5"/>
	<polyline id="XMLID_333_" class="st4" points="330,408.8 331,408 330.7,406.4 331.6,405 332,403 331.3,401 329.6,399.8 
		329.4,398.6 329.7,397.2 324.3,396.9 323,393.8 323.8,392.9 322.8,389.1 320.9,388.4 319,388.3 317.4,387.2 315.9,386.8 
		314.7,385.6 311.5,385.2 308.4,382.6 308.3,377.1 304.6,377.5 300.6,379.8 299.4,380.8 295.9,380.8 	"/>
	<polyline id="XMLID_343_" class="st4" points="324.9,322.6 324.4,322.9 322.8,324.3 322.9,325.4 323.5,326.4 321.2,327.3 
		321,328.5 320.4,329.5 320.5,329.8 322.1,331.9 322.7,332.6 321.6,333.8 316.8,335.2 315.4,336.1 311.3,335.3 311.1,335.5 
		311.7,340 313.9,340.2 314.3,340.9 312.6,341.6 311.7,343.1 308.6,344.2 307.8,345.1 305.5,345.3 303.3,343.6 301.9,341.5 
		300.5,342.3 295.6,342.3 294.9,343 295.2,344.2 296.7,344.6 296.6,345.4 294.4,346 294.3,348 295.7,349.2 296.2,351 295.1,358.6 
		294.5,360.3 	"/>
	<polyline id="XMLID_342_" class="st4" points="287.8,313.6 285.7,315.9 285,318.6 284.7,319.8 286.1,320.4 286.4,321.3 
		287.1,322.4 287.1,325 288.7,326.4 292.4,326.2 293.9,326.5 296.1,328.9 301.3,328.6 302.3,329.2 301.4,331.4 301,333.9 
		302.1,336.8 302.4,337.6 301.2,338.8 302.2,340.1 303.3,341.8 303.3,343.6 	"/>
	<polyline id="XMLID_345_" class="st4" points="349.5,335.2 349.2,335.7 347.8,338 347.3,339.4 345.7,341.1 344.6,341.3 
		343.5,340.5 342.1,341 339.3,340 336.4,340.2 336.7,341.5 336.2,342.1 334.7,341.9 332.6,341.8 328.7,343.7 327.3,343.5 
		325.6,342.1 324.6,339.3 324.9,337.1 325.8,335.4 325.6,334.7 324.3,333.7 324.5,332.6 323.8,331.8 322.1,331.9 	"/>
	<polyline id="XMLID_346_" class="st4" points="333.1,329.9 332.9,330.5 332.7,332.1 331.1,332.9 330.3,335.2 331.6,337.3 
		332.7,337.7 333.1,339.2 334.7,341.9 	"/>
	<polyline id="XMLID_344_" class="st4" points="341.1,340.7 341.1,340.7 341.3,340 341.7,339.1 342.5,336.8 341.4,334.9 
		341.1,333.2 341.4,332.3 342.4,330.6 	"/>
</g>
</svg>
