<svg width="200" height="50" viewBox="0 0 200 50" fill="none" xmlns="http://www.w3.org/2000/svg">
<g clip-path="url(#clip0_314_1421)">
<path d="M66.8971 44.9492L64.7403 44.9459V42.0232L66.8668 42.0273V42.5628L65.4711 42.5595V43.1738H66.8028V43.7118L65.4711 43.7085V44.4121L66.8971 44.4137V44.9492ZM73.0394 44.9541H72.4276L70.8104 43.0786V44.9508H70.0831V42.0272L70.7497 42.0288L72.312 43.819V42.0321L73.0394 42.0337V44.9541ZM78.9594 42.5726L77.9016 42.571V44.9556H77.1741V42.5693L76.1162 42.5677V42.0339L78.9594 42.0355V42.5726ZM84.1905 44.9648L82.0347 44.9606V42.0371L84.1585 42.042V42.5759L82.7627 42.5742V43.1876H84.0954V43.7247L82.7627 43.7231V44.425L84.1905 44.4267V44.9648ZM88.6763 42.0436C89.2782 42.0436 89.6342 42.4487 89.6342 42.8851C89.6342 43.2073 89.4677 43.4459 89.1338 43.6009C89.434 43.7502 89.5233 44.1111 89.9342 44.9696L89.1338 44.9663C88.8198 44.3415 88.705 43.779 88.3089 43.779L88.1006 43.7774V44.9663L87.3716 44.9648V42.0421L88.6763 42.0436ZM88.1006 43.241L88.4852 43.2443C88.687 43.2443 88.8846 43.1591 88.8846 42.9104C88.8846 42.6922 88.742 42.5792 88.4689 42.5792H88.1006V43.241ZM95.3278 42.5824L94.2708 42.5808V44.9663H93.5426V42.5792L92.4839 42.5776V42.0436L95.3278 42.0485V42.5824H95.3278ZM100.969 44.9746L100.183 44.9712L99.9448 44.3948L98.6376 44.3915L98.4178 44.9712L97.6453 44.9696L98.8237 42.0486L99.6691 42.0502L100.969 44.9746ZM99.2575 42.7473L98.8295 43.8814L99.7291 43.883L99.2575 42.7473ZM104.687 44.9762L103.956 44.9746V42.0519H104.687V44.9762ZM110.943 44.9828L110.33 44.9812L108.715 43.1032V44.9795L107.987 44.9779V42.0535L108.654 42.0576L110.214 43.8446V42.0593H110.943V44.9828ZM116.734 42.0641H117.371V44.9878L116.642 44.9862V43.1607L115.851 44.0758H115.74L114.952 43.159V44.9828H114.224V42.0591L114.858 42.0608L115.797 43.1474L116.734 42.0641ZM122.806 44.9909L120.649 44.9878V42.0641L122.775 42.0691V42.6046L121.378 42.603V43.2123L122.71 43.2164V43.7519L121.378 43.7503V44.4522L122.806 44.4555V44.9909H122.806ZM128.947 44.9984L128.334 44.9968L126.719 43.1205V44.9951L125.99 44.9909V42.0691L126.658 42.0707L128.219 43.8609V42.0724L128.947 42.074V44.9984H128.947ZM134.868 42.6143L133.809 42.6128V44.9998H133.081V42.6111L132.021 42.6095V42.074L134.868 42.0788V42.6143Z" fill="#AFC5D6"/>
<path d="M108.946 32.6279C108.941 33.1092 109.193 33.2085 109.221 33.5127V36.0736L109.175 36.1025C109.03 36.2049 108.966 36.2566 108.949 36.2738C108.951 36.2853 108.956 36.3156 108.956 36.3575C108.956 36.3912 108.951 36.428 108.946 36.4771L108.931 36.5675H104.826L104.795 36.5142C104.739 36.4182 104.689 36.3526 104.627 36.2672L103.271 36.1221C103.009 36.4132 102.584 36.6855 102.233 36.806L102.216 36.8109H102.199C101.167 36.8109 100.59 36.8602 99.9956 36.8602C99.7208 36.9119 98.9778 37.362 98.407 37.3686H98.3619L98.3315 37.335C98.1117 37.0979 98.0544 36.8429 98.056 36.6296C98.056 36.428 98.0978 36.2565 98.0978 36.1679V35.0797L98.1429 35.0494C98.261 34.9675 98.3234 34.9404 98.394 34.8493C98.4472 34.7821 98.4726 34.6615 98.4726 34.5337C98.4726 34.2736 98.3766 33.9899 98.3766 33.9899L98.3512 33.9136L98.4152 33.8685C98.6654 33.6906 98.8121 33.625 98.9277 33.3929C98.9696 33.3027 98.9901 33.1732 98.9901 33.042C98.9901 32.7755 98.9213 32.5082 98.9213 32.5082L98.9007 32.4344L98.9615 32.3942C99.0803 32.3137 99.141 32.2835 99.2099 32.1958C99.2582 32.1334 99.282 32.0269 99.282 31.907C99.282 31.6667 99.1942 31.4084 99.1942 31.4084L99.1893 31.3896V31.3731C99.2066 31.2215 99.3911 30.9467 99.4665 30.681C99.5337 30.4473 99.5608 30.152 99.5608 29.8634C99.5608 29.2836 99.4616 28.7399 99.4616 28.7178C99.4665 28.4537 99.3107 28.397 99.1943 28.0911C98.9901 27.5115 98.9261 26.8061 98.9261 26.123C98.9261 24.7544 99.1894 23.4677 99.1943 23.4472L100.827 19.1107C100.816 19.0509 100.662 19.0082 100.561 18.8008C100.54 18.7466 100.529 18.6941 100.529 18.6491C100.532 18.5498 100.553 18.4949 100.553 18.3957V18.3523L100.585 18.3219C100.582 18.3187 100.968 17.9307 100.963 17.5125C100.963 17.364 100.96 17.2804 100.96 17.1968C100.96 17.1541 100.96 17.1123 100.963 17.0558C101.025 16.7359 101.697 15.9167 101.781 15.1409C101.793 15.0417 101.796 14.9187 101.796 14.8014C101.796 14.5661 101.781 14.348 101.781 14.3414C101.801 14.079 102.903 11.545 103.691 10.7578V9.7884L103.736 9.75798C103.791 9.72602 103.978 9.57192 103.963 9.48903V9.4825C103.961 9.40383 103.955 9.45215 103.815 9.28652H102.37L102.342 9.23236C102.269 9.10929 102.24 9.04784 102.154 8.96011C102.048 8.8544 101.9 8.81422 101.724 8.81422C101.367 8.81261 100.978 8.98231 100.795 8.99053C100.743 8.9724 100.537 9.1487 100.364 9.55302C100.182 9.95319 100.004 10.5528 99.8749 11.3351C99.6183 12.9694 99.3476 13.1908 98.9983 13.1974C98.9409 13.1974 98.8942 13.1909 98.8507 13.1942C98.7326 13.1991 98.6506 13.1991 98.4981 13.4361L98.4308 13.5452L98.3364 13.4615C98.216 13.3525 98.0593 13.2065 98.0092 13.1762L97.9403 13.1286L97.9682 13.0498C98.0723 12.7817 98.1027 12.5914 98.1027 12.4455C98.1076 12.1585 97.9682 12.0051 97.9616 11.6861C97.9739 11.4311 98.2101 11.2055 98.3717 11.0514V5.98409L98.4693 5.97756C98.5579 5.97103 98.7712 5.97103 99.3025 5.97103C100.362 5.97103 102.678 5.97756 107.679 5.97756H107.74L107.772 6.02919C107.938 6.30313 107.947 6.28516 107.957 6.28024C107.975 6.28024 108.03 6.27118 108.109 6.27118C108.126 6.27118 108.149 6.27118 108.172 6.27363L108.264 6.28669V6.63601L108.239 6.66643C107.997 6.93945 107.904 7.90219 107.11 8.70175C107.123 8.79448 107.146 8.99698 107.146 9.21431C107.146 9.3602 107.137 9.51277 107.101 9.64889C106.966 10.1729 106.825 10.2622 106.292 10.7658C106.307 10.8593 106.335 11.061 106.335 11.2775C106.335 11.4276 106.322 11.5801 106.282 11.7163C106.093 12.1862 105.758 11.9746 105.74 12.5142C105.74 12.5142 105.588 13.5524 105.45 14.2117C105.311 14.8653 104.974 15.245 104.979 15.7452C104.979 15.819 104.987 15.8945 105.002 15.9986L104.92 18.6728L104.878 18.7032C104.48 18.9402 104.552 20.4728 103.833 21.2421V22.1744L103.827 22.1908C103.607 22.7706 103.187 22.737 103.016 23.484V26.5256L102.197 28.8793C102.205 28.9678 102.229 29.3024 102.229 29.6649C102.229 29.8748 102.221 30.093 102.194 30.2833C102.083 31.0304 101.59 31.9405 101.341 32.3637C101.279 32.4629 101.248 32.5171 101.22 32.5605C101.223 32.5819 101.225 32.6057 101.225 32.6279C101.22 32.9279 101.007 33.4356 100.966 33.5364C100.948 33.7307 100.8 34.0014 100.72 34.1539C100.824 34.2564 100.854 34.295 100.931 34.2917C100.945 34.2999 101.019 34.2228 101.112 34.0498L101.162 33.9646L101.248 34.008C101.418 34.0883 101.567 34.1138 101.721 34.1138C102.024 34.1171 102.346 33.9998 102.75 33.9998C102.859 33.9793 102.875 33.9055 102.906 33.694C102.933 33.4996 102.961 33.2274 103.173 33.0002C103.583 32.5672 104.492 32.4746 104.689 32.3187C105.795 31.5512 106.253 31.9087 106.977 30.7294L107.045 30.6187L107.139 30.7065C107.233 30.7934 107.306 30.8722 107.389 30.9747H108.761L108.793 31.0256C108.932 31.2659 109.213 31.4356 109.221 31.8185C109.166 32.1006 108.954 32.0062 108.946 32.6279ZM115.88 27.1137C115.878 28.6103 115.851 30.0734 115.761 30.4391L115.753 30.4776L115.719 30.5015C115.575 30.5851 115.372 31.2083 115.173 31.8636C114.968 32.5032 114.747 33.1887 114.397 33.5562V35.1134L114.356 35.1455C114.042 35.3382 113.991 36.5338 113.581 37.0176V37.9901L113.535 38.0238C113.444 38.0862 113.386 38.133 113.309 38.2034V39.4648L113.266 39.4985C113.034 39.6509 113.059 39.7978 112.793 39.8108C112.723 39.8157 112.676 39.7623 112.654 39.7321C112.629 39.7403 112.579 39.7567 112.505 39.7994L112.35 39.8846L112.354 38.1887L111.531 35.503V34.6936C111.581 34.0852 110.189 33.6136 110.169 32.3335V32.2917L110.196 32.2613C110.194 32.2531 111.862 30.4761 111.939 28.056V28.0512C111.984 27.8896 111.237 27.3541 110.442 26.9343C109.686 26.5061 108.912 26.1281 108.66 25.8763H108.169L108.402 26.5644V28.043C108.766 28.1398 108.997 28.5867 109.226 28.6121C109.284 28.6137 109.372 28.6843 109.367 28.7663C109.327 29.0082 108.998 29.2164 108.943 29.5511L108.93 29.6413L108.835 29.6347C108.834 29.6347 107.997 29.5814 107.317 29.5814C106.976 29.5814 106.667 29.5962 106.555 29.6314C105.258 30.0645 103.782 30.6188 103.78 30.6188L103.699 30.6508L103.652 30.577C103.3 29.9825 103.598 30.1473 103.269 29.6766L103.228 29.6142L103.271 29.556C103.77 28.8844 103.888 28.7663 104.239 28.4504C104.245 28.284 104.279 27.7017 104.489 27.3427C104.769 26.9227 105.387 26.8014 105.329 26.6554C105.34 26.625 105.261 26.5514 105.1 26.4471L105.047 26.4103L105.055 26.3479C105.055 26.3479 105.154 25.4811 105.244 25.0063C105.276 24.8783 105.283 24.7996 105.316 24.7258C105.278 24.6102 105.188 24.292 105.184 23.9746C105.188 23.777 105.22 23.572 105.352 23.4154C105.443 23.3113 105.529 23.2662 105.601 23.2128V22.0286L105.646 21.9982C105.84 21.8465 105.861 21.8416 105.872 21.6423C105.859 21.548 105.877 21.5947 105.789 21.5431C105.698 21.5128 105.571 21.3889 105.582 21.1667C105.582 21.1077 105.587 21.0412 105.603 20.9551C105.636 20.7936 105.648 20.6631 105.648 20.5525C105.649 20.2884 105.577 20.1155 105.576 19.8702C105.576 19.7612 105.59 19.6455 105.635 19.511C105.767 19.0912 105.975 18.9165 106.154 18.5737C106.153 18.5705 106.464 17.9184 106.464 17.0402V16.9803L106.516 16.9499C107.134 16.6326 106.766 15.25 107.245 14.1503C107.486 13.6279 107.661 13.1326 107.992 12.8144C107.997 12.7816 108.001 12.7488 108.001 12.7193C108.004 12.5257 107.905 12.3593 107.9 12.1478C107.896 12.0485 107.93 11.9395 108.009 11.8443C108.101 11.7246 108.199 11.6828 108.273 11.627C108.321 11.449 108.575 10.6092 108.862 10.0885C109.034 9.78679 109.034 9.61709 109.396 9.2833V8.09409L109.44 8.06206C109.614 7.93084 109.606 7.90703 109.646 7.82675C109.687 7.73733 109.764 7.62832 110.013 7.46922L110.033 7.45693L110.056 7.4537C110.31 7.42328 110.342 7.20026 110.345 6.83444C110.345 6.73526 110.343 6.63109 110.343 6.52699C110.345 6.15064 110.406 5.68402 110.933 5.68157C111.848 5.72582 111.739 7.21501 111.847 7.36512C112.576 8.96011 112.776 8.70506 112.809 9.10615V9.918C112.802 10.6077 113.797 13.1778 113.805 13.1909L114.664 16.5687C114.749 16.6425 114.819 16.7065 114.9 16.763L114.947 16.7918V17.9826C115.169 18.1941 115.239 18.3622 115.239 18.5082C115.239 18.6255 115.202 18.7034 115.206 18.7534C115.207 18.8092 115.223 18.8829 115.448 19.0494L115.491 19.0797V20.6829L115.412 20.6986C115.411 20.7199 115.411 20.7486 115.411 20.7806C115.404 21.3686 115.694 23.4728 115.773 23.7082L115.794 23.7213L115.8 23.7705C115.851 24.2083 115.88 25.663 115.88 27.1137ZM109.05 23.0324C109.05 23.2259 109.042 23.3891 109.01 23.5096L109 23.5481C109.151 23.5334 109.321 23.5211 109.495 23.5211C109.747 23.5211 110.021 23.5432 110.293 23.6039C111.089 23.7769 111.527 24.3255 112.051 24.4855C112.112 24.4888 112.17 24.4888 112.224 24.4888H112.283C112.293 24.114 112.324 22.7339 112.324 21.6366C112.324 21.0289 112.313 20.5001 112.285 20.2984C112.112 20.099 112.125 19.721 112.073 19.3077C112.034 18.8731 111.954 18.4212 111.771 18.2646C111.45 17.9538 111.027 18.1202 110.642 17.7307C110.434 17.502 110.265 17.1296 110.147 16.8139L110.105 18.0449L110.103 18.0965L110.059 18.1252C109.87 18.2597 109.826 18.4697 109.755 18.6943C109.699 18.8911 109.574 19.1158 109.28 19.1667C109.268 19.4955 109.24 20.5993 109.008 20.9454C108.991 21.0446 108.984 21.1841 108.984 21.3432C108.984 21.8416 109.05 22.5387 109.05 23.0324ZM97.7658 27.9264L97.651 27.9584C97.2312 28.0543 97.4247 28.3938 97.072 28.7662C97.0228 28.8432 96.9859 29.3697 96.9917 29.9709C96.9917 31.1887 97.0819 32.8362 97.0852 32.8378L97.0901 32.9484H96.9794C96.8704 32.9353 96.111 33.2355 95.9773 33.4889L95.9453 33.5381H92.8298L92.7995 33.4889C92.6249 33.2052 92.6199 33.2133 92.6026 33.2223C92.5658 33.2175 92.4599 33.2436 92.2738 33.2436C91.9376 33.2502 91.8539 33.3602 91.7481 33.4937C91.657 33.6266 91.5431 33.8316 91.2405 33.8316H91.2307C91.2242 33.8267 90.6189 33.7176 90.3171 33.3929H88.1924L88.1619 33.3429C88.0176 33.0927 87.8848 33.1108 87.875 32.8427C87.9054 32.7065 87.9709 32.6892 88.0612 32.5753C88.1349 32.4982 88.2194 32.4146 88.2835 32.3571V30.5818L88.3268 30.5514C88.5819 30.3637 88.5638 30.3801 88.5638 30.3317C88.5638 30.2932 88.5564 30.2243 88.5548 30.1218C88.5516 30.1202 88.5548 30.1152 88.5434 30.0881C88.5352 30.0611 88.5212 30.0241 88.5016 29.979C88.4663 29.8913 88.4171 29.779 88.3605 29.665C88.2547 29.4402 88.1013 29.1984 88.0547 29.1729L87.9677 29.1106L88.0293 29.0269C88.1604 28.8473 88.2006 28.6858 88.2006 28.5431C88.2022 28.2561 88.035 28.0494 88.035 28.0494L88.0144 28.0255L88.0111 27.9985C87.9889 27.8591 87.9792 27.7115 87.9792 27.5606C87.9808 26.6954 88.285 25.6827 88.2835 25.1651V25.1102L88.2819 25.0544L88.3269 25.0208C88.6008 24.8666 88.5081 23.9727 88.8395 23.288C89.1412 22.7 89.8063 21.9439 89.7948 21.9628C89.8851 21.7996 89.7694 20.9451 90.9503 19.6732C91.0127 19.3714 91.5047 16.9375 91.9812 16.2019C92.0352 16.1346 92.1731 16.0477 92.3543 15.9083C92.4747 15.8156 92.5946 15.7287 92.6536 15.6844C92.6799 15.5286 92.8381 15.0866 93.7451 14.2469C93.7066 14.0993 93.6122 13.7163 93.6106 13.2899C93.6106 13.0159 93.6491 12.7273 93.7681 12.4665L93.7804 12.4402L93.8017 12.4263C94.3896 12.0065 94.7423 11.0478 95.6682 10.181V8.33846L92.6683 8.30896C92.2198 8.7321 91.034 8.77719 91.0257 10.3427V10.4468H90.9183C90.8258 10.4436 90.5518 10.5304 90.3303 10.6699C90.1008 10.8094 89.9278 11.0013 89.9343 11.1522V13.3655C89.922 13.5803 89.7596 13.8107 89.3734 14.4521L89.3061 14.5611L89.2136 14.4742C89.0158 14.2963 88.9519 14.1282 88.9552 13.992C88.9568 13.8879 88.9789 13.8108 88.9765 13.7551C88.9749 13.683 88.9617 13.6075 88.7469 13.4492L88.7084 13.4246L88.7018 13.3787C88.7018 13.3787 88.6222 12.8095 88.555 12.4553C88.5255 12.247 88.5099 12.0469 88.4746 12.0485L88.4058 12.0034L88.4345 11.9264C88.4345 11.9248 88.6879 11.2514 88.6879 10.6446C88.6879 10.3411 88.6223 10.064 88.4599 9.8991C88.3672 9.80646 88.3098 9.76459 88.2023 9.69084L88.1556 9.65888V7.06083L88.1778 7.03371C88.1762 7.0321 88.4393 6.67626 88.4312 6.42766L88.4296 6.37358L88.414 6.25466H88.5337C92.3863 6.25466 92.7407 6.28669 96.5227 6.28669H96.6269V7.7931C96.603 8.02687 96.8753 8.06213 96.8991 8.45492V13.4425L96.8622 13.4745C96.6072 13.6918 96.526 14.0625 96.5276 14.4085C96.526 14.798 96.6221 15.1359 96.6221 15.1359L96.6458 15.2081L96.5834 15.2499C95.7872 15.8042 95.3805 18.016 94.9024 18.5835V19.8669L94.8383 19.8956C94.8367 19.8972 93.7346 20.3704 93.532 20.9421C93.4812 21.0724 93.4614 21.2528 93.4614 21.4324C93.4614 21.7866 93.537 22.1344 93.537 22.1344L93.5549 22.2197L93.4745 22.2533C92.5725 22.5911 91.1234 26.6439 91.1522 26.8768V27.6141L91.039 27.6248L91.098 27.6798L91.0898 27.692C91.0784 27.7101 91.0594 27.7453 91.0391 27.7938C90.9972 27.8863 90.9422 28.0258 90.8782 28.1939C90.7504 28.5318 90.5871 28.9886 90.4183 29.4583C90.0952 30.3416 89.7613 31.256 89.5399 31.5963C89.6892 31.8112 89.7007 31.8096 89.7105 31.8014C89.7376 31.803 89.8221 31.7849 89.9557 31.7849C90.1976 31.793 90.2984 31.6488 91.3448 31.1297C91.5705 31.0527 91.8386 31.2068 92.6397 30.8362C92.766 30.8 93.0899 30.1924 93.4828 29.6233C93.8674 29.0755 94.3701 28.5229 95.0451 28.4711C95.0868 28.1841 95.2599 27.5945 95.5436 27.3173L95.6412 27.2246L95.7068 27.3394C95.7568 27.4296 95.7986 27.4885 95.8512 27.5592C96.7179 27.1574 96.3334 26.7325 96.7852 26.1831L96.8147 26.1463H97.5864L97.5807 26.2552C97.5807 26.2552 97.5774 26.3636 97.5774 26.5243C97.5741 26.8851 97.6013 27.542 97.7201 27.8175L97.7658 27.9264ZM74.4892 29.7592C74.4876 30.0897 74.6795 30.7499 74.6795 31.378C74.6795 31.5239 74.6714 31.6683 74.6442 31.8094C74.5384 32.3686 74.1858 33.1599 74.1752 33.1797C74.1752 33.1813 73.611 33.9932 73.3895 34.5557C73.1205 35.2323 73.0098 36.423 73.0098 36.423L73.005 36.4855L72.9492 36.5125C72.9475 36.5141 71.8159 37.0348 71.1909 37.4982C70.6317 37.9082 70.0658 38.2675 69.9314 38.6456L69.91 38.707L69.8493 38.7161C69.8493 38.7161 68.5085 38.9055 68.114 39.0597C68.0608 39.0785 68.0387 39.0901 68.0403 39.0941C67.9632 39.1909 67.8787 39.2532 67.7771 39.2564C67.4646 39.1974 67.3908 38.8366 67.1808 38.8621C67.0997 38.8605 66.9669 38.9104 66.7773 39.0941C66.6429 39.3778 66.2329 39.3861 65.7834 39.3991C65.1126 39.3991 64.3065 39.2754 64.1269 39.2434C64.0334 39.29 63.9252 39.2933 63.8013 39.295C63.5053 39.295 63.1232 39.2311 62.9116 39.2335C62.8607 39.2311 62.8205 39.2368 62.8049 39.2417L62.7484 39.3401L62.6524 39.2516C62.5319 39.1441 62.3752 38.998 62.3252 38.9694L62.1506 38.8538L62.3449 38.7833C62.3449 38.7808 62.978 38.5349 63.1715 38.3494L63.1683 38.3478L63.1715 38.3447C63.1765 38.3364 63.183 38.3192 63.1937 38.2995C63.2117 38.2545 63.2355 38.1888 63.2625 38.1076C63.3126 37.9453 63.3749 37.723 63.4388 37.4696C63.5692 36.9677 63.7054 36.3527 63.7947 35.891C63.7947 34.2934 63.8899 33.4742 63.8899 32.6362C63.8899 32.2196 63.8669 31.7947 63.7964 31.2593C63.771 31.0624 63.6857 29.5896 63.5561 28.5228C63.5561 26.7981 63.6554 25.0285 63.6554 23.982C63.6554 23.7836 63.6504 23.6089 63.6414 23.4695L63.6382 23.3686L63.7374 23.3604C63.9539 23.3432 64.0449 23.1718 64.0671 23.1185L64.0048 21.7531L63.7949 21.3128L63.8236 19.3175C63.8606 19.0273 64.0853 18.7279 64.082 18.732C64.1057 18.7 64.1287 18.5081 64.1254 18.3154C64.1254 18.0513 64.1024 17.766 64.0933 17.684L63.7948 17.192V10.25L63.8382 10.2181C64.0982 10.0303 64.0932 10.0303 64.0884 9.99506C64.09 9.94904 64.0687 9.83672 64.0687 9.64075C64.0687 9.44232 64.0802 9.34629 64.0802 9.31764L64.0737 9.31925C64.0465 9.29467 63.9965 9.24873 63.9219 9.15846C63.8654 9.16338 63.7776 9.16829 63.6891 9.17321C63.6751 9.20033 63.6488 9.23398 63.5931 9.23882C63.5193 9.22245 63.5037 9.20686 63.4742 9.17974H63.4652C63.4332 9.17974 63.4168 9.18228 63.3799 9.17321C63.375 9.16499 63.3192 9.17813 63.2979 9.06912C63.3094 9.01911 63.3225 8.99698 63.3364 8.98546C63.2756 8.92154 63.2199 8.85924 63.2003 8.83051L62.2966 7.9661C62.1777 7.76929 62.1186 7.72749 62.0964 7.71436C62.0767 7.71029 61.9776 7.5979 62.0046 7.53313C62.0046 7.47736 62.0078 7.39862 62.0078 7.24859C62.0111 6.98854 61.9955 6.9181 62.0644 6.81876C62.1235 6.74993 62.1587 6.74993 62.2965 6.53014L62.3269 6.47767H63.7808C63.9776 6.33993 64.3942 6.29975 64.8715 6.22915C65.3832 6.16524 65.9105 6.12675 66.0885 6.12675L67.5301 6.17592C68.9841 6.1743 69.5196 6.03487 70.2855 6.03318C70.625 6.03318 71.008 6.06114 71.5304 6.14557L71.5992 6.15541L71.6156 6.22262C71.7231 6.64584 72.1381 6.82537 72.3414 7.00007C72.3782 6.99515 72.4325 6.99023 72.4997 6.99023C72.6809 6.99023 72.9581 7.02219 73.2099 7.19358C74.1202 7.81354 74.6155 9.29951 74.6203 10.0819C74.6203 10.8667 74.7967 11.5974 74.7983 12.1813C74.7983 12.524 74.7327 12.8283 74.5302 13.0242L73.5173 14.921C73.1376 15.6329 72.2355 16.7195 71.9297 17.0819C71.9502 17.1188 72.0478 17.2517 72.2405 17.3558C72.4603 17.4838 72.7817 17.6043 73.1729 17.6445C73.4165 17.6838 73.5354 17.8864 73.5256 18.0676C73.5207 18.4277 73.2419 18.827 73.2115 18.8656C73.2067 18.8672 73.1893 18.8926 73.1893 18.9484C73.1877 19.019 73.218 19.1231 73.2599 19.1986C73.3042 19.2789 73.3575 19.3059 73.3608 19.3043C73.3608 19.3043 73.3722 19.3092 73.4059 19.2592L73.4732 19.1502L73.5657 19.2404C73.9857 19.6521 74.0398 19.7677 74.0496 19.88C74.0579 19.9169 73.9742 19.8447 74.3031 20.0989L74.3604 20.1408L74.3449 20.2096C74.3449 20.2113 74.1185 21.1281 74.1185 22.0737C74.1185 22.5452 74.1751 23.0208 74.3367 23.3873C74.4122 23.6121 74.8706 23.7293 74.9148 24.0738C74.9148 24.1492 74.8828 24.2181 74.8288 24.2804C74.8288 24.3796 74.832 24.6413 74.832 24.9217C74.832 25.1021 74.8304 25.2866 74.8288 25.4458C74.8288 25.4826 74.8272 25.5163 74.8272 25.5532C74.8272 26.4133 74.987 27.2343 74.987 27.9854C74.987 28.5733 74.8862 29.1221 74.5212 29.5944C74.5064 29.6108 74.4876 29.6666 74.4892 29.7592ZM70.7514 10.9373C70.7596 10.9069 70.7325 10.8479 70.8113 10.8061L71.2065 10.5272C70.7564 10.3747 70.3652 10.6478 69.9854 9.87529L69.8608 9.87368L68.6536 10.0467L68.7274 9.87529C68.7388 9.84579 68.7471 9.81544 68.7488 9.78518C68.7183 9.80154 68.6815 9.81882 68.6463 9.83188C68.5815 10.0271 68.5913 10.1189 68.5864 10.2181C68.5897 10.3428 68.5142 10.4633 68.3158 10.5725V15.7871C68.4233 15.7519 68.5159 15.7387 68.5946 15.7387H68.6061C68.7537 15.7387 68.8603 15.8043 68.9005 15.8299C69.4425 15.6666 69.2146 14.3349 70.7613 14.1504C70.7596 14.0126 70.7531 13.7903 70.7531 13.5419C70.7728 12.9277 70.7515 12.1749 71.0196 11.8796C70.9523 11.6892 70.758 11.1472 70.7514 10.9373ZM70.9744 29.5173C70.981 29.3337 71.0768 29.1713 71.0703 29.0556C71.0671 28.9827 71.0548 28.9343 70.9523 28.862L70.8178 28.7801L70.9457 28.689C71.0212 28.6332 71.0449 28.575 71.0482 28.4709C71.0581 28.1502 70.689 27.5836 70.6808 27.0497C70.6792 26.8094 70.7678 26.5643 71.0064 26.3781C70.9966 25.7385 70.9024 25.6539 70.8113 25.5572C70.6957 25.4457 70.5497 25.285 70.5595 24.7084C70.5677 24.41 70.8317 23.8654 70.8268 23.5496C70.8235 23.4324 70.7981 23.3832 70.7497 23.3602L70.6586 23.3093L70.7038 23.2191C70.7563 23.1182 70.7743 23.0223 70.7743 22.9288C70.7759 22.591 70.516 22.299 70.5144 22.299L70.3651 22.1326L70.5865 22.1219C70.6201 22.1203 70.643 22.1154 70.6537 22.1121C70.643 22.0465 70.4569 21.8447 70.4405 21.6487C70.4373 21.5896 70.4693 21.5175 70.5127 21.4937C70.5431 21.4625 70.5529 21.4371 70.5529 21.3952C70.5726 21.1804 70.1143 20.7482 70.1249 20.7589C69.6025 20.4727 69.003 19.897 68.9956 19.8904L68.3222 19.195C68.3305 19.5494 68.3427 20.1922 68.3427 20.7802C68.3427 21.2083 68.3362 21.6068 68.314 21.8487L68.3107 21.8808L68.2902 21.9053C68.1893 22.0266 68.141 22.2818 68.1427 22.5671C68.1411 23.1362 68.3107 23.8012 68.3107 23.8012L68.3172 23.8251L68.0286 25.2323L67.9761 25.2545C67.84 25.3119 67.7851 25.389 67.7695 25.5349L67.7663 25.5685C67.7695 25.7096 67.8351 25.812 67.9761 25.871L68.0418 25.8972V31.0432L68.0146 31.0752C67.872 31.2302 67.785 31.2638 67.7678 31.3908C67.7514 31.4901 67.7398 31.554 67.7259 31.6008C67.7079 31.6279 67.7243 31.6598 67.6825 31.6918C67.6891 31.9558 67.6973 32.5635 67.6973 33.8649C67.6989 33.8649 67.7194 34.5351 67.7342 34.8187L67.7614 34.8441C67.7851 34.8728 67.7851 34.8982 67.7851 34.9113C67.7646 35.0344 67.6268 35.2525 67.4776 35.5461C67.4071 35.6773 67.3365 35.8068 67.2808 35.9037C67.4907 35.8757 67.8121 35.8217 68.0098 35.7462L68.6462 35.1697L68.6814 35.1681C69.1423 35.1598 69.7196 34.1889 70.1059 33.8936C70.4971 33.5731 70.3191 32.4643 70.4888 31.5589L70.4971 31.5187L70.5225 31.5H70.5241C70.5274 31.4901 70.5356 31.4721 70.5479 31.45C70.566 31.4048 70.5913 31.3392 70.6168 31.2638C70.67 31.1088 70.7307 30.9005 70.7914 30.6873C70.9071 30.264 71.0095 29.7926 71.0079 29.6663V29.6647C70.9843 29.6165 70.9744 29.564 70.9744 29.5173ZM127.274 34.1892C127.324 34.2802 127.378 34.4114 127.378 34.5861C127.378 34.7273 127.346 34.8879 127.266 35.0896C127.116 35.434 127.212 35.5317 126.559 38.7037L126.535 38.8169L126.428 38.7848C126.415 38.7741 125.435 38.4906 125.183 38.2544C123.732 36.8429 123.351 36.7611 122.739 36.7594C122.622 36.7594 122.492 36.7594 122.348 36.7594L122.323 36.761L122.24 36.769L122.212 36.697C122.199 36.6616 122.195 36.6296 122.195 36.5943C122.203 36.1024 123.011 34.2596 123.157 33.4691C123.223 33.1377 123.27 31.7527 123.27 30.8154C123.27 30.389 123.258 30.0428 123.24 29.9306V29.9183C123.24 29.7771 123.072 28.6102 122.803 27.4883C122.556 26.3616 122.122 25.243 121.836 25.2209L121.745 25.1971L121.757 25.1036C121.839 24.4533 122.017 23.5652 122.016 23.2208C122.019 23.1568 122.012 23.1247 122.009 23.1215C121.607 22.3588 120.798 20.8409 120.331 20.6326C120.348 20.7721 120.362 20.8861 120.362 21.005C120.362 21.2674 120.285 21.5175 120.039 22.0399C119.93 22.258 119.77 22.4819 119.775 22.646L119.777 22.6698L119.782 22.6985L119.772 22.7206V22.7591C119.77 23.4759 120.472 29.1982 120.474 29.7337V29.7452L120.48 29.8092L120.423 29.8428L120.405 29.8634C120.389 29.8814 120.368 29.9067 120.351 29.9388C120.311 29.9995 120.277 30.0798 120.277 30.1569L120.28 30.1807C120.264 30.2423 120.484 30.3956 120.517 30.6638C120.544 30.9999 120.572 31.3944 120.572 31.7978C120.572 32.3825 120.519 32.9805 120.327 33.4438C120.362 34.0449 120.613 35.5464 120.613 36.2565C120.613 36.3525 120.61 36.437 120.596 36.5075L120.593 36.5305L120.578 36.5511C120.484 36.6905 120.44 36.6954 120.335 36.7643C120.348 36.8767 120.378 37.0431 120.378 37.3079C120.378 37.6712 120.324 38.2182 120.12 39.094L120.039 39.4392L119.918 39.1055C119.318 37.4727 118.381 36.4871 117.592 35.8522C116.801 35.1888 116.162 34.9937 116.107 34.5894C116.12 34.5738 117.061 31.205 117.479 30.8073C117.514 30.7499 117.54 30.59 117.538 30.4104C117.538 30.1537 117.501 29.8512 117.473 29.6568C117.392 29.5846 117.335 29.5337 117.239 29.4714L117.191 29.4385L117.194 29.3779C117.197 29.3205 117.197 28.4471 117.197 27.3253C117.197 25.1939 117.194 22.136 117.194 21.8169C117.093 21.6315 117.145 21.3511 117.093 21.2709L117.096 21.2692L117.054 21.2421L116.923 20.0752C116.809 19.9088 116.739 19.5947 116.695 19.5898L116.648 19.5594L116.646 19.5077C116.646 19.5045 116.639 19.2166 116.639 18.9296C116.639 18.8025 116.639 18.6746 116.646 18.5721C116.588 18.4712 116.586 18.3524 116.559 18.2072C116.539 18.0432 116.508 17.8652 116.482 17.8029L116.484 17.7963L116.434 17.7627L116.439 17.7019C116.439 17.7019 116.439 17.67 116.439 17.6101C116.443 17.433 116.42 17.0353 116.31 16.8123C116.203 16.6712 116.233 16.4744 116.205 16.2128C116.196 15.9823 116.173 15.724 116.151 15.6666L116.117 15.6445L116.102 14.2389C115.877 14.0142 115.818 13.8863 115.818 13.769C115.818 13.7231 115.827 13.6937 115.825 13.683C115.827 13.6814 115.832 13.6362 115.599 13.468L115.563 13.441L115.558 13.3975C115.516 13.067 115.494 12.5996 115.494 12.1314C115.494 11.6606 115.516 11.1924 115.558 10.8619L115.559 10.8267L115.585 10.8013C116.035 10.361 117.288 9.73271 118.122 8.57231C117.91 8.49526 117.349 8.34929 117.236 8.32717C117.226 8.33531 117.208 8.35751 117.189 8.38294C117.15 8.43134 117.096 8.51008 116.989 8.54204C116.893 8.56908 116.817 8.61425 116.697 8.61587C116.612 8.61587 116.527 8.59121 116.429 8.53382L116.379 8.50509L116.376 8.44855C116.355 8.01804 115.87 7.47268 115.363 7.04954C114.896 6.65099 114.463 6.37704 114.318 6.25481L113.322 6.03833L113.341 5.83006L117.291 5.72105C117.647 5.55619 117.721 5.53076 117.979 5.53568C118.247 5.52093 118.302 5.63816 118.442 5.83006H119.881L119.897 5.8588C119.913 5.86532 119.934 5.87524 119.963 5.88346C120.024 5.90888 120.111 5.93923 120.215 5.9728C120.423 6.04494 120.699 6.1319 120.972 6.21963C121.509 6.38941 122.042 6.5485 122.038 6.55181C122.106 6.55181 122.197 6.54858 122.299 6.54858C122.397 6.54858 122.511 6.55181 122.63 6.56909C123.102 6.6314 123.528 6.93976 123.875 7.22431C124.198 7.5097 124.506 7.76806 124.524 7.7467H124.591L125.987 10.694C126.03 10.8236 126.036 11.0434 126.036 11.3083C126.036 11.8142 125.998 12.4342 125.998 12.4342L125.99 12.4858L125.952 12.5146C125.948 12.5146 125.885 12.6425 125.849 12.7835C125.806 12.9091 125.784 13.0279 125.722 13.1206C125.727 13.2756 125.729 13.4461 125.729 13.6077C125.729 13.9587 125.722 14.2695 125.717 14.2949C125.206 16.3033 124.261 17.9171 122.516 17.9828C122.517 18.2279 122.524 18.3772 122.524 18.4781C122.527 18.6896 122.467 18.7339 122.351 18.8447C122.376 18.8463 122.398 18.8463 122.421 18.8463C122.626 18.8495 122.799 18.7708 123.028 18.7668C123.352 18.7668 123.706 18.9488 124.294 19.6589C124.687 19.8385 124.59 20.3207 124.645 20.5036C124.662 20.5725 124.674 20.5774 124.694 20.5839C124.904 20.6618 125.019 20.707 125.097 20.7504C125.176 20.7873 125.235 20.8849 125.226 20.9504C125.224 20.9889 125.219 21.0144 125.223 21.0447C125.223 21.103 125.232 21.1907 125.31 21.3564C125.393 21.5663 125.42 22.2002 125.522 22.2708C125.631 22.475 125.634 23.1015 125.665 23.769C125.679 24.4087 125.738 25.1057 125.777 25.1122V25.1138C125.848 25.1762 125.831 25.2344 125.858 25.3106C125.875 25.3992 125.889 25.5034 125.913 25.6059C125.952 25.824 126.036 25.9552 126.086 25.9453C126.103 25.9453 126.14 25.9347 126.199 25.8994L126.293 25.8396L126.345 25.9363C126.482 26.2054 126.823 28.9198 126.864 29.1363L126.87 29.1796L126.849 29.2165C126.782 29.2854 126.681 30.0899 126.681 30.2194C126.7 30.2498 126.795 30.2851 126.96 30.3254L127.002 30.3351L127.024 30.372C127.128 30.5466 127.376 31.0896 127.391 31.3732L127.403 31.4119L127.373 31.4553C127.283 31.5864 127.267 31.6554 127.266 31.734C127.262 31.8817 127.37 32.1155 127.37 32.646C127.37 32.9773 127.33 33.4218 127.198 34.0671L127.211 34.0852C127.226 34.1105 127.249 34.1458 127.274 34.1892ZM122.291 14.6365C122.291 14.343 122.351 14.0444 122.351 14.0387L122.378 13.9116L122.441 13.9403C122.452 13.9165 122.466 13.8829 122.477 13.8492C122.511 13.7771 122.518 13.7 122.578 13.6327L122.582 13.0619C122.582 13.0619 122.614 12.9472 122.614 12.7438C122.614 12.4871 122.561 12.1008 122.327 11.6745C122.323 11.6695 121.91 11.0865 121.418 10.5018C120.934 9.91293 120.319 9.33646 120.086 9.35697C120.024 9.35536 119.968 9.35367 119.915 9.35367H119.857V17.4166C119.936 17.4231 120.058 17.4297 120.181 17.4297C120.286 17.4313 120.398 17.4248 120.484 17.4084C120.928 17.3288 121.398 17.0066 121.51 16.8573C121.762 16.5465 122.118 15.2984 122.303 14.8417C122.293 14.7759 122.291 14.7071 122.291 14.6365ZM137.646 17.8921C137.643 18.4859 137.623 18.9952 137.539 19.242L137.527 19.2739L137.5 19.2945C137.426 19.3208 137.292 19.7915 137.126 20.0014C137.121 20.0637 137.119 20.1326 137.119 20.2014C137.119 20.527 137.165 20.9133 137.165 21.2881C137.165 21.6153 137.131 21.9343 136.99 22.1999C136.753 22.7421 136.456 23.0382 136.351 23.1365L136.175 24.4806C135.918 25.1423 136.073 25.2728 135.974 25.468C135.992 25.7246 136.13 27.7723 136.13 29.3091C136.13 29.984 136.105 30.5548 136.021 30.8779C135.835 31.3092 135.811 31.7808 135.811 32.2802C135.811 32.4148 135.813 32.55 135.813 32.6879C135.811 33.2053 135.792 33.7449 135.585 34.2582L135.298 35.7949C135.06 36.4551 135.055 36.5978 134.732 36.989C134.588 37.2851 134.526 37.3736 134.441 37.4343C134.364 37.4902 134.351 37.468 134.215 37.6204C134.095 37.9362 133.537 38.0239 132.896 38.229C132.215 38.415 131.437 38.6102 131.058 38.817C131.027 38.8252 131.003 38.8269 130.979 38.8269C130.69 38.8094 130.317 38.4774 130.181 38.4955L130.163 38.4988C130.048 38.707 129.745 38.7513 129.388 38.8366C129.008 38.9121 128.569 38.958 128.292 38.958C128.165 38.9564 128.09 38.9564 128.011 38.9202L127.888 38.8539L127.988 38.7546C128.386 38.3528 128.79 37.6812 128.861 36.8816C128.862 36.8397 128.864 36.7931 128.864 36.7438C128.867 36.1174 128.545 35.2513 128.544 35.2513L128.508 35.1554L128.603 35.1186C128.994 34.9775 129.816 34.5928 129.758 34.4469C129.758 34.3657 129.742 34.3304 129.738 34.3255L129.726 34.3222L129.699 34.3189C129.647 34.3189 129.54 34.3222 129.483 34.1984L129.165 33.4137L128.609 32.1318L129.114 27.1361C128.485 26.4504 127.902 24.484 127.888 24.2953V23.4842C127.911 23.2496 127.64 23.2143 127.615 22.828C127.615 22.828 127.55 21.8465 127.55 21.0978C127.553 20.7738 127.556 20.5115 127.598 20.3458C127.529 20.2818 127.474 20.2358 127.39 20.1793L127.338 20.1456L127.45 18.2431C127.39 18.1331 127.386 17.9922 127.35 17.8126C127.319 17.6149 127.285 17.3976 127.254 17.3156L127.258 17.3041L127.208 17.2705V11.7064L127.258 11.6745C127.345 11.6138 127.402 11.5597 127.482 11.4916V9.34468L127.529 9.31272C127.617 9.25449 127.675 9.19879 127.755 9.1315V7.60366C127.474 7.3347 125.418 5.38135 125.322 5.26404L125.186 5.09272H126.76L126.792 5.14596C126.846 5.24353 126.894 5.30591 126.957 5.38949H127.878L127.896 5.47392C127.877 5.74541 129.19 5.90043 129.815 6.5671H130.713L130.745 6.61872C130.838 6.77705 130.923 6.86071 131.045 7.0099H131.941L131.973 7.06244C132.029 7.16001 132.075 7.22393 132.138 7.30436H133.306L133.337 7.35598C133.392 7.45524 133.437 7.51923 133.501 7.59951H134.769L134.801 7.65044C135.208 8.31549 136.004 8.74846 136.17 9.0609C137.098 11.0077 136.909 11.1775 137.226 11.38L137.272 11.412L137.197 14.2288C137.264 14.3346 137.292 14.4905 137.352 14.6774C137.41 14.8783 137.477 15.1006 137.509 15.144L137.54 15.1662L137.544 15.2194C137.545 15.2196 137.646 16.7064 137.646 17.8921ZM133.513 22.5239C133.511 21.7661 133.908 21.4406 134.048 21.3512C134.096 21.069 134.293 19.7423 134.692 19.3863V16.6859C134.492 16.5112 134.405 16.1421 134.309 15.7707C134.215 15.3795 134.13 14.9564 134.1 14.9244C133.784 14.4554 133.125 14.2913 133.061 13.5623C132.412 13.4918 132.324 12.9292 132.071 12.9809C131.55 12.9793 131.283 12.9407 130.89 12.9407C130.766 12.9407 130.63 12.944 130.472 12.9539L130.362 13.9756L130.439 14.3282C130.439 14.3282 130.554 17.2952 130.554 18.4072C130.553 18.5048 130.553 18.5819 130.553 18.6458L130.559 18.6524C130.588 18.7048 130.62 18.7721 130.648 18.8369C130.709 18.9714 130.763 19.1009 130.766 19.1009L130.771 19.1215V19.1412C130.749 19.4708 131.105 20.787 131.261 20.819L131.317 20.8493L131.278 33.8752C131.681 33.3816 132.588 32.1202 132.585 30.8557C132.585 30.8106 132.585 30.7646 132.585 30.686C132.891 29.6411 133.228 29.2919 133.33 28.6973L133.329 28.6727C133.334 28.3463 133.324 23.3218 133.518 22.6584C133.516 22.6124 133.513 22.5673 133.513 22.5239ZM87.1911 33.7866L87.0222 33.7193C86.8319 33.6439 86.7327 33.6332 86.622 33.6315C86.567 33.6315 86.5064 33.6373 86.4343 33.6373H86.3784L86.3588 33.6102L86.3268 33.6054C86.2677 33.6054 86.1382 33.6283 85.9119 33.7422L85.856 33.771L85.806 33.7356C85.7291 33.6741 85.2599 33.6184 84.7376 33.6233C83.9264 33.62 82.9039 33.7176 82.63 33.8299C82.2421 34.2063 82.1379 34.2998 81.9936 34.317H81.9887C81.9281 34.317 81.8846 34.2785 81.8764 34.2686V34.267C81.7017 34.2146 81.6911 34.0767 81.5 33.958L81.4074 33.8923L81.4763 33.8063C82.2627 32.8221 81.824 33.1198 82.7261 32.5155C82.9377 31.8717 82.9632 29.6534 82.9574 28.9827V28.726L83.0033 28.6973C83.2517 28.5095 83.2379 28.5095 83.2419 28.4438C83.2436 28.3971 83.233 28.3143 83.2297 28.1938C83.2534 27.9969 82.9664 27.8329 82.9574 27.3088C82.9664 26.9423 83.0804 26.4116 83.3189 26.1461L83.2297 14.5011L83.2698 14.4692C83.3576 14.3987 83.4248 14.3559 83.4682 14.3281C83.4888 14.3158 83.5018 14.3076 83.5084 14.3044L83.5051 14.2724C83.5132 14.2272 83.4329 14.2116 83.2787 14.1231L83.2345 14.0911L82.8835 8.16454C82.8179 7.90541 82.5834 7.82014 82.3079 7.73894C82.084 7.67172 81.7971 7.6118 81.728 7.35598C81.4731 7.35437 81.3705 7.33793 81.2819 7.24206C81.2072 7.15509 81.1974 7.0805 80.9391 6.89436L80.8498 6.83037L80.917 6.74509C81.0179 6.61388 81.1507 6.44579 81.1827 6.39087L81.2213 6.31712L81.3016 6.34009C81.5754 6.4196 82.8368 6.47291 84.0259 6.4713C85.1173 6.47291 86.199 6.4229 86.409 6.3417L86.4894 6.30974L86.5353 6.38925C86.6362 6.55903 86.7248 6.63931 86.8659 6.81569L86.8897 6.8445V7.4053L86.8125 7.42497C86.1475 7.60542 85.4267 8.21808 85.4414 8.72726C85.4504 9.13157 85.4939 9.10284 85.5226 9.12666C85.603 9.1537 85.7342 9.27754 85.7121 9.61217C85.7187 9.87537 85.5743 10.0198 85.4684 10.0976C85.3579 10.1879 85.3095 10.21 85.3036 10.3494C85.3036 11.2261 85.4282 13.5886 85.4282 15.5912C85.4282 16.5605 85.3979 17.447 85.3126 18.0497C85.4044 18.1456 85.4012 18.2818 85.4348 18.4244C85.4619 18.5958 85.4889 18.7869 85.5226 18.8541L85.5308 18.8713L85.5727 18.8959L85.7218 19.7612L85.6668 19.7996C85.5578 19.8751 85.4971 19.912 85.4134 20.0047C85.2584 20.1712 85.2117 20.4196 85.2117 20.6697C85.2117 20.9297 85.2601 21.1716 85.2617 21.325C85.2584 21.4021 85.233 21.4595 85.233 21.6407C85.233 21.7883 85.2518 22.013 85.3241 22.346C85.3561 22.5223 85.3225 22.8881 85.3626 23.0816C85.3725 23.1456 85.3847 23.162 85.3897 23.1603L85.4331 23.1841L85.4397 23.2342C85.4668 23.412 85.4749 23.595 85.4749 23.7614C85.4749 24.0977 85.4413 24.3683 85.4397 24.3716L85.4331 24.4183L85.393 24.4455C85.2856 24.5176 85.2298 24.5594 85.138 24.6521C84.9551 24.8416 84.9059 24.9793 84.9043 25.1392C84.8976 25.4632 85.1666 25.9133 85.1683 26.708V26.817C85.1913 26.9713 85.457 27.7437 85.5423 27.8429L85.5849 27.8749L85.4381 29.9455L85.3931 29.9742C85.2774 30.0529 85.2184 30.0834 85.1463 30.176C85.0584 30.2834 85.0339 30.3802 85.0306 30.495C85.0306 30.6639 85.106 30.8706 85.1651 31.1182C85.3898 32.0466 85.3127 31.5291 87.0168 32.7583L87.052 32.7838L87.1911 33.7866ZM96.8539 39.727H93.034L93.0045 39.673C92.9487 39.5786 92.9003 39.5154 92.838 39.4312H91.9442L91.9138 39.3811C91.7531 39.1269 91.6908 39.1236 91.635 39.1203C91.5997 39.1186 91.5465 39.1326 91.4743 39.1359C91.3381 39.1359 91.1815 39.0686 90.9987 38.8415H88.3801C87.9521 38.8169 87.843 38.5748 87.7676 38.4487C87.2247 38.4052 83.8206 38.3986 82.0206 38.3986H80.8914H80.8332L80.8011 38.3494C80.7052 38.1477 80.0253 37.9451 80.0048 37.9566H79.0126C78.8141 38.0862 77.425 38.9907 77.3093 39.3622L77.2756 39.4435L77.192 39.4279C77.1904 39.4279 76.3154 39.2836 75.5815 39.2836C75.2149 39.282 74.8794 39.3253 74.7416 39.4147L74.6473 39.473L74.5948 39.3778C74.5316 39.268 74.4808 39.2065 74.3536 39.1187L74.261 39.0515L74.3298 38.9662C74.5242 38.7162 74.5061 38.8605 74.5816 38.4972L74.5915 38.4455L75.391 38.0208C75.7034 37.7116 75.6599 37.8462 76.3537 37.2146V35.9502L76.4005 35.9198C76.4709 35.8779 76.6325 35.7837 76.6276 35.6394C76.6292 35.5254 76.548 35.4648 76.3988 35.3557L76.3536 35.3237V33.0767L76.4004 33.0447C76.488 32.9857 76.548 32.9315 76.6275 32.8627V31.8991L76.6709 31.8672C76.9259 31.681 76.9054 31.6974 76.9054 31.6474C76.9054 31.6105 76.8989 31.54 76.8989 31.4391C76.9005 31.084 76.6389 30.8814 76.3987 30.7117L76.3535 30.6797L76.3445 26.9296L76.4101 26.9025C76.5939 26.8147 76.5299 26.8475 76.6233 26.6958C76.575 26.3417 76.5586 26.0079 76.5586 25.7183C76.5586 25.1205 76.6274 24.7121 76.6291 24.7088L76.6356 24.6637L76.6725 24.6383C76.7595 24.58 76.8201 24.5259 76.8988 24.4587V21.4999L76.9464 21.4696C77.0079 21.4376 77.2588 21.0883 77.2482 20.8258V20.7791C77.2318 20.5544 77.0235 20.2871 76.9464 20.242L76.8988 20.2116V16.0736C76.8218 16.003 76.7644 15.9522 76.6725 15.8915L76.6274 15.862V13.6126L76.6708 13.5807C76.8824 13.4314 76.9743 13.2904 77.176 13.1026C77.19 12.9459 77.2334 12.367 77.2334 11.8479C77.2334 11.5641 77.2179 11.2951 77.1826 11.1402C77.0989 11.0664 77.0415 11.0164 76.9464 10.9524L76.852 10.8868L76.9226 10.7999C77.0415 10.6573 77.3859 9.75345 77.3777 9.49356V9.47259C77.3137 8.7132 76.9143 7.9661 76.9053 7.95304C76.8939 7.85218 76.5766 7.78496 76.3618 7.79471C76.3183 7.79471 76.2813 7.79633 76.2527 7.79633L76.2305 7.83981L76.1345 7.78642C75.8156 7.54619 76.2404 7.38464 74.761 6.30459L74.6724 6.2373L74.7413 6.15203C74.9355 5.9052 74.9159 6.04624 74.9914 5.68134L75.0078 5.59768H75.4949L75.5268 5.65015C75.5828 5.74694 75.6277 5.81086 75.6917 5.89129H77.8814L77.9118 5.94215C78.2242 6.44564 78.4177 6.50802 78.5415 6.50802C78.6325 6.50963 78.7129 6.46461 78.8343 6.46131C78.8761 6.46131 78.9245 6.47276 78.995 6.52361C78.9983 6.52361 79.8487 7.57984 80.203 7.82998L80.2465 7.86032V10.6231L80.2013 10.655C80.0044 10.8059 79.9824 10.8092 79.9742 11.011V11.0273L79.9709 11.0347C79.9709 11.0527 79.9947 11.243 80.4744 11.5899L80.5171 11.6202V12.9102L80.4712 12.9439C80.3826 13.0029 80.3235 13.0512 80.2465 13.1218V18.9279C80.4916 19.1444 80.6327 19.1551 80.7787 19.4453C80.9083 19.716 80.9337 20.4261 80.9386 21.3094C80.9386 23.061 80.7909 25.3958 80.7909 25.3958L80.7868 25.4482L80.7451 25.4778C80.6533 25.5384 80.5958 25.5878 80.5171 25.6583V27.628C80.599 27.6969 80.6696 27.7576 80.7466 27.811L80.7819 27.8348L80.7884 27.8781C80.809 27.9873 80.8123 28.1857 80.8138 28.4185C80.8138 28.8795 80.7909 29.4486 80.7909 29.4503L80.7867 29.5339L80.7031 29.5478C80.3686 29.6011 80.3955 29.8209 80.2563 30.2408C80.4629 30.5352 80.5219 30.4868 80.5171 30.7582V30.8461C80.5383 31.1765 80.4613 31.2217 80.2465 31.4103V32.6699L80.2013 32.7035C80.1087 32.7659 80.0496 32.8142 79.9742 32.8815V34.7356L79.9291 34.7676C79.7544 34.8955 79.761 34.9488 79.6954 35.1539C79.6807 35.2006 79.6757 35.2309 79.6757 35.2449C79.5993 35.2613 79.9594 35.2646 79.9742 36.0501C80.4744 36.0608 80.8459 36.1223 81.3093 36.1223C81.5446 36.1223 81.8071 36.1059 82.1243 36.0591C82.3507 35.7098 82.463 35.6713 82.9083 35.3892C82.9484 35.3802 82.992 35.3736 83.0347 35.3736C83.4996 35.3818 84.336 35.7967 85.2594 35.795C85.6999 35.795 86.1534 35.7024 86.5879 35.4293C86.6471 35.2595 86.8184 35.2514 87.0431 35.1923C87.2949 35.1439 87.6426 35.1071 88.0658 35.0799C88.9056 35.0259 90.0298 35.0078 91.1714 35.0078C93.6021 35.0078 96.1139 35.0931 96.1163 35.0931L96.2164 35.0947V38.5849L96.2197 38.5833C96.2287 38.5996 96.2403 38.6268 96.2534 38.6571C96.282 38.7227 96.3263 38.8095 96.3763 38.9122C96.4773 39.1122 96.6117 39.3623 96.7437 39.5625L96.8539 39.727ZM138.822 6.88944C138.822 7.23053 138.656 7.69062 137.526 7.69062C136.392 7.69062 136.214 7.23053 136.214 6.88944V5.80118C136.214 5.46823 136.392 5 137.526 5C138.656 5 138.822 5.46823 138.822 5.80118V6.88944ZM138.594 5.78074C138.594 5.52247 138.417 5.21487 137.526 5.21487C136.63 5.21487 136.446 5.52239 136.446 5.78074V6.90995C136.446 7.16823 136.63 7.48235 137.526 7.48235C138.417 7.48235 138.594 7.17484 138.594 6.91487V5.78074ZM137.183 6.57693V7.13128C137.183 7.16162 137.171 7.18705 137.138 7.18705H137.002C136.963 7.18705 136.952 7.16162 136.952 7.13128V5.60928C136.952 5.5724 136.963 5.55435 137.002 5.55435H137.585C138.055 5.55435 138.17 5.78067 138.17 5.99224V6.14066C138.17 6.29814 138.095 6.47283 137.856 6.54497L138.11 7.13128C138.118 7.16162 138.095 7.18705 138.06 7.18705H137.917C137.887 7.18705 137.875 7.16162 137.864 7.13128L137.628 6.57693H137.585H137.183ZM137.183 5.73888V6.3924H137.559C137.825 6.3924 137.937 6.26288 137.937 6.12675V6.00453C137.937 5.86847 137.831 5.73888 137.559 5.73888H137.183Z" fill="#AFC5D6"/>
</g>
<defs>
<clipPath id="clip0_314_1421">
<rect width="76.8222" height="40" fill="white" transform="translate(62 5)"/>
</clipPath>
</defs>
</svg>
