<svg width="200" height="50" viewBox="0 0 200 50" fill="none" xmlns="http://www.w3.org/2000/svg">
<g clip-path="url(#clip0_314_1370)">
<path d="M50 42.2148H69.3876V44.9902H50V42.2148Z" fill="#AFC5D6"/>
<path d="M50 36.8914H69.3876V39.6765H50V36.8914Z" fill="#AFC5D6"/>
<path d="M55.5309 31.5776H63.8469V34.3628H55.5309V31.5776Z" fill="#AFC5D6"/>
<path d="M55.5309 26.2642H63.8469V29.0494H55.5309V26.2642Z" fill="#AFC5D6"/>
<path d="M55.5309 20.9507H63.8469V23.7359H55.5309V20.9507Z" fill="#AFC5D6"/>
<path d="M55.5309 15.6272H63.8469V18.4124H55.5309V15.6272Z" fill="#AFC5D6"/>
<path d="M69.3876 10.3135H50V13.0987H69.3876V10.3135Z" fill="#AFC5D6"/>
<path d="M69.3876 5H50V7.7852H69.3876V5Z" fill="#AFC5D6"/>
<path d="M72.1531 39.6766H101.97C102.474 38.8173 102.849 37.879 103.077 36.8914H72.1531V39.6766Z" fill="#AFC5D6"/>
<path d="M99.6494 26.2642H77.6938V29.0494H101.97C101.338 27.9826 100.558 27.0444 99.6494 26.2642Z" fill="#AFC5D6"/>
<path d="M77.6938 20.9507V23.7359H99.6494C100.578 22.9556 101.358 22.0173 101.97 20.9507H77.6938Z" fill="#AFC5D6"/>
<path d="M101.97 10.3135H72.1531V13.0987H103.077C102.82 12.111 102.444 11.1728 101.97 10.3135Z" fill="#AFC5D6"/>
<path d="M92.805 5H72.1531V7.7852H99.9259C98.0691 6.06664 95.5507 5 92.805 5Z" fill="#AFC5D6"/>
<path d="M86 15.6272H77.6938V18.4124H86V15.6272Z" fill="#AFC5D6"/>
<path d="M94.316 18.4124H103.007C103.254 17.5236 103.383 16.5852 103.383 15.6272H94.316V18.4124Z" fill="#AFC5D6"/>
<path d="M77.6938 31.5776H86V34.3628H77.6938V31.5776Z" fill="#AFC5D6"/>
<path d="M94.316 31.5776V34.3628H103.383C103.383 33.4048 103.254 32.4666 103.007 31.5776H94.316Z" fill="#AFC5D6"/>
<path d="M72.1531 44.9704L92.805 45C95.5704 45 98.0691 43.9334 99.9358 42.2148H72.1531V44.9704Z" fill="#AFC5D6"/>
<path d="M105.398 42.2148H119.244V44.9902H105.398V42.2148Z" fill="#AFC5D6"/>
<path d="M105.398 36.8914H119.244V39.6765H105.398V36.8914Z" fill="#AFC5D6"/>
<path d="M110.928 31.5776H119.244V34.3628H110.928V31.5776Z" fill="#AFC5D6"/>
<path d="M110.928 26.2642H119.244V29.0494H110.928V26.2642Z" fill="#AFC5D6"/>
<path d="M123.096 10.3135H105.398V13.0987H124.054L123.096 10.3135Z" fill="#AFC5D6"/>
<path d="M121.259 5H105.398V7.7852H122.217L121.259 5Z" fill="#AFC5D6"/>
<path d="M135.857 42.2148H149.714V44.9902H135.857V42.2148Z" fill="#AFC5D6"/>
<path d="M135.857 36.8914H149.714V39.6765H135.857V36.8914Z" fill="#AFC5D6"/>
<path d="M135.857 31.5776H144.173V34.3628H135.857V31.5776Z" fill="#AFC5D6"/>
<path d="M135.857 26.2642H144.173V29.0494H135.857V26.2642Z" fill="#AFC5D6"/>
<path d="M135.857 23.7359H144.173V20.9507H135.857H128.331L127.551 23.2026L126.77 20.9507H119.244H110.928V23.7359H119.244V21.1778L120.123 23.7359H134.978L135.857 21.1778V23.7359Z" fill="#AFC5D6"/>
<path d="M144.173 15.6272H130.168L129.21 18.4124H144.173V15.6272Z" fill="#AFC5D6"/>
<path d="M133.852 5L132.894 7.7852H149.714V5H133.852Z" fill="#AFC5D6"/>
<path d="M127.551 44.9704L128.509 42.2148H126.593L127.551 44.9704Z" fill="#AFC5D6"/>
<path d="M125.714 39.6765H129.388L130.375 36.8914H124.736L125.714 39.6765Z" fill="#AFC5D6"/>
<path d="M123.847 34.3628H131.254L132.232 31.5776H122.869L123.847 34.3628Z" fill="#AFC5D6"/>
<path d="M121.99 29.0494H133.121L134.069 26.2642H121.032L121.99 29.0494Z" fill="#AFC5D6"/>
<path d="M110.928 18.4124H125.891L124.933 15.6272H110.928V18.4124Z" fill="#AFC5D6"/>
<path d="M131.057 13.0987H149.714V10.3135H132.005L131.057 13.0987Z" fill="#AFC5D6"/>
</g>
<defs>
<clipPath id="clip0_314_1370">
<rect width="99.7136" height="40" fill="white" transform="translate(50 5)"/>
</clipPath>
</defs>
</svg>
