<svg width="200" height="50" viewBox="0 0 200 50" fill="none" xmlns="http://www.w3.org/2000/svg">
<g clip-path="url(#clip0_314_1413)">
<path d="M86.2 14.2001V35.8001H82.45V18.8501H82.4L75.7 35.8001H73.2L66.35 18.8501H66.3V35.8001H62.85V14.2001H68.25L74.45 30.2001H74.55L81.1 14.2001H86.2ZM89.3 15.8501C89.3 15.2501 89.5 14.7501 89.95 14.3501C90.4 13.9501 90.9 13.7501 91.5 13.7501C92.15 13.7501 92.7 13.9501 93.1 14.3501C93.5 14.7501 93.75 15.2501 93.75 15.8501C93.75 16.4501 93.55 16.9501 93.1 17.3501C92.65 17.7501 92.15 17.9501 91.5 17.9501C90.85 17.9501 90.35 17.7501 89.95 17.3501C89.55 16.9001 89.3 16.4001 89.3 15.8501ZM93.35 20.3001V35.8001H89.7V20.3001H93.35ZM104.4 33.1501C104.95 33.1501 105.55 33.0501 106.2 32.7501C106.85 32.5001 107.45 32.1501 108 31.7501V35.1501C107.4 35.5001 106.75 35.7501 106 35.9001C105.25 36.0501 104.45 36.1501 103.55 36.1501C101.25 36.1501 99.4 35.4501 98 34.0001C96.55 32.5501 95.85 30.7001 95.85 28.5001C95.85 26.0001 96.6 23.9501 98.05 22.3501C99.5 20.7501 101.55 19.9501 104.25 19.9501C104.95 19.9501 105.65 20.0501 106.3 20.2001C107 20.3501 107.55 20.6001 107.95 20.8001V24.3001C107.4 23.9001 106.8 23.5501 106.25 23.3501C105.65 23.1501 105.05 23.0001 104.45 23.0001C103 23.0001 101.85 23.4501 100.95 24.4001C100.05 25.3501 99.65 26.6001 99.65 28.2001C99.65 29.7501 100.1 31.0001 100.95 31.8501C101.8 32.7001 102.95 33.1501 104.4 33.1501ZM118.35 20.0501C118.65 20.0501 118.9 20.0501 119.15 20.1001C119.4 20.1501 119.6 20.2001 119.75 20.2501V23.9501C119.55 23.8001 119.3 23.6501 118.9 23.5501C118.5 23.4501 118.1 23.3501 117.55 23.3501C116.65 23.3501 115.9 23.7501 115.3 24.5001C114.7 25.2501 114.35 26.4001 114.35 28.0001V35.8001H110.7V20.3001H114.35V22.7501H114.4C114.75 21.9001 115.25 21.2501 115.9 20.7501C116.6 20.3001 117.4 20.0501 118.35 20.0501ZM119.95 28.3001C119.95 25.7501 120.7 23.7001 122.1 22.2001C123.55 20.7001 125.55 19.9501 128.1 19.9501C130.5 19.9501 132.4 20.6501 133.75 22.1001C135.1 23.5501 135.8 25.5001 135.8 27.9501C135.8 30.4501 135.05 32.4501 133.65 33.9501C132.2 35.4501 130.25 36.2001 127.75 36.2001C125.35 36.2001 123.45 35.5001 122.05 34.1001C120.65 32.6501 119.95 30.7001 119.95 28.3001ZM123.75 28.1501C123.75 29.7501 124.1 31.0001 124.85 31.8501C125.6 32.7001 126.65 33.1501 128 33.1501C129.3 33.1501 130.35 32.7501 131.05 31.8501C131.75 31.0001 132.1 29.7501 132.1 28.0501C132.1 26.4001 131.75 25.1501 131.05 24.2501C130.35 23.4001 129.3 22.9501 128.05 22.9501C126.7 22.9501 125.7 23.4001 124.95 24.3001C124.1 25.2501 123.75 26.5001 123.75 28.1501ZM141.25 24.4001C141.25 24.9001 141.4 25.3501 141.75 25.6501C142.1 25.9501 142.8 26.3001 143.95 26.7501C145.4 27.3501 146.45 28.0001 147 28.7001C147.6 29.4501 147.9 30.3001 147.9 31.3501C147.9 32.8001 147.35 33.9501 146.2 34.8501C145.1 35.7501 143.55 36.1501 141.65 36.1501C141 36.1501 140.3 36.0501 139.5 35.9001C138.7 35.7501 138.05 35.5501 137.5 35.3001V31.7001C138.15 32.1501 138.9 32.5501 139.65 32.8001C140.4 33.0501 141.1 33.2001 141.75 33.2001C142.55 33.2001 143.2 33.1001 143.55 32.8501C143.95 32.6001 144.15 32.2501 144.15 31.7001C144.15 31.2001 143.95 30.8001 143.55 30.4001C143.15 30.0501 142.35 29.6501 141.25 29.2001C139.9 28.6501 138.95 28.0001 138.4 27.3001C137.85 26.6001 137.55 25.7001 137.55 24.6001C137.55 23.2001 138.1 22.0501 139.2 21.1501C140.3 20.2501 141.75 19.8001 143.5 19.8001C144.05 19.8001 144.65 19.8501 145.3 20.0001C145.95 20.1501 146.55 20.3001 147 20.4501V24.0001C146.5 23.7001 145.95 23.4001 145.3 23.1501C144.65 22.9001 144 22.8001 143.4 22.8001C142.7 22.8001 142.15 22.9501 141.8 23.2001C141.45 23.5501 141.25 23.9001 141.25 24.4001ZM149.45 28.3001C149.45 25.7501 150.2 23.7001 151.6 22.2001C153.05 20.7001 155.05 19.9501 157.6 19.9501C160 19.9501 161.9 20.6501 163.25 22.1001C164.6 23.5501 165.3 25.5001 165.3 27.9501C165.3 30.4501 164.55 32.4501 163.15 33.9501C161.7 35.4501 159.75 36.2001 157.25 36.2001C154.85 36.2001 152.95 35.5001 151.55 34.1001C150.2 32.6501 149.45 30.7001 149.45 28.3001ZM153.25 28.1501C153.25 29.7501 153.6 31.0001 154.35 31.8501C155.1 32.7001 156.15 33.1501 157.5 33.1501C158.8 33.1501 159.85 32.7501 160.55 31.8501C161.25 31.0001 161.6 29.7501 161.6 28.0501C161.6 26.4001 161.25 25.1501 160.55 24.2501C159.85 23.4001 158.8 22.9501 157.55 22.9501C156.2 22.9501 155.2 23.4001 154.45 24.3001C153.65 25.2501 153.25 26.5001 153.25 28.1501ZM177.45 23.3001H172V35.8001H168.3V23.3001H165.7V20.3001H168.3V18.1501C168.3 16.5501 168.85 15.2001 169.9 14.1501C170.95 13.1001 172.3 12.6001 173.95 12.6001C174.4 12.6001 174.8 12.6501 175.15 12.6501C175.5 12.6501 175.8 12.7501 176.05 12.8501V16.0001C175.95 15.9501 175.7 15.8501 175.4 15.7501C175.1 15.6501 174.75 15.6001 174.35 15.6001C173.6 15.6001 173 15.8501 172.6 16.3001C172.2 16.7501 172 17.5001 172 18.4001V20.2501H177.45V16.7501L181.1 15.6501V20.2501H184.8V23.2501H181.1V30.5001C181.1 31.4501 181.3 32.1001 181.6 32.5001C181.95 32.9001 182.5 33.1001 183.25 33.1001C183.45 33.1001 183.7 33.0501 184 32.9501C184.3 32.8501 184.55 32.7501 184.75 32.6001V35.6001C184.5 35.7501 184.15 35.8501 183.6 35.9501C183.05 36.0501 182.55 36.1001 182 36.1001C180.45 36.1001 179.3 35.7001 178.55 34.9001C177.8 34.1001 177.4 32.8501 177.4 31.2001L177.45 23.3001Z" fill="#AFC5D6"/>
<path d="M33.1 7H16V24.1H33.1V7Z" fill="#AFC5D6"/>
<path d="M52 7H34.9V24.1H52V7Z" fill="#AFC5D6"/>
<path d="M33.1 25.8999H16V42.9999H33.1V25.8999Z" fill="#AFC5D6"/>
<path d="M52 25.8999H34.9V42.9999H52V25.8999Z" fill="#AFC5D6"/>
</g>
<defs>
<clipPath id="clip0_314_1413">
<rect width="168.8" height="36" fill="white" transform="translate(16 7)"/>
</clipPath>
</defs>
</svg>
