<svg width="200" height="50" viewBox="0 0 200 50" fill="none" xmlns="http://www.w3.org/2000/svg">
<g clip-path="url(#clip0_314_1425)">
<path d="M63.9626 34.86V37.9221H67.7375C67.7379 38.5431 67.5775 39.1537 67.272 39.6944C66.9526 40.2331 66.4799 40.6644 65.9143 40.9333C65.238 41.2423 64.4997 41.3916 63.7565 41.3697C62.8983 41.3936 62.053 41.1568 61.332 40.6909C60.6277 40.202 60.0843 39.5152 59.7706 38.7173C59.3794 37.7197 59.1923 36.6537 59.2202 35.5825C59.1916 34.5195 59.3831 33.4621 59.7827 32.4767C60.1094 31.6914 60.6568 31.0176 61.3587 30.5371C62.0662 30.0777 62.8961 29.8428 63.7395 29.8631C64.1786 29.8592 64.6161 29.9172 65.039 30.0352C65.4153 30.143 65.7704 30.3144 66.0888 30.5419C66.3913 30.7598 66.6524 31.03 66.8598 31.3396C67.0768 31.6708 67.2404 32.0341 67.3447 32.4161H71.5318C71.4223 31.5374 71.137 30.6898 70.693 29.9237C70.2512 29.1678 69.6714 28.5017 68.9837 27.9598C68.2631 27.3965 67.4501 26.9626 66.581 26.6773C65.6371 26.3701 64.6497 26.2178 63.6571 26.2263C62.4957 26.2167 61.3433 26.4307 60.2628 26.8567C59.2246 27.2701 58.2859 27.8989 57.5085 28.7017C56.6952 29.5501 56.0669 30.5582 55.6635 31.6621C55.2028 32.9395 54.9785 34.2901 55.0016 35.6479C55.0016 37.5778 55.3685 39.2418 56.1023 40.64C56.7962 41.9866 57.8647 43.1039 59.179 43.8573C61.8796 45.2981 65.1033 45.3737 67.8684 44.0609C69.0483 43.4623 70.0306 42.5364 70.6978 41.394C71.3848 40.2318 71.7274 38.8418 71.7258 37.2239V34.8575L63.9626 34.86ZM116.097 44.7543V26.4639H128.624V29.8485H120.23V33.912H127.016V37.2966H120.23V41.3697H128.643V44.7543H116.097ZM140.785 31.8318C140.748 31.1956 140.434 30.6074 139.927 30.2219C139.42 29.8364 138.715 29.6449 137.82 29.6449C137.303 29.6276 136.788 29.7099 136.302 29.8873C135.936 30.021 135.614 30.2544 135.374 30.5613C135.165 30.8418 135.052 31.1817 135.051 31.5311C135.04 31.8096 135.106 32.0858 135.243 32.3288C135.387 32.5704 135.586 32.774 135.825 32.9228C136.105 33.1042 136.406 33.25 136.722 33.3568C137.09 33.4851 137.466 33.5912 137.847 33.6744L139.454 34.0478C140.242 34.2153 141.01 34.4656 141.745 34.7945C142.383 35.0788 142.972 35.4617 143.491 35.9292C143.966 36.3618 144.344 36.8897 144.601 37.4784C144.87 38.1138 145.003 38.7985 144.992 39.4883C145.019 40.5326 144.719 41.5592 144.133 42.4244C143.515 43.2836 142.66 43.9448 141.673 44.3276C140.442 44.8029 139.129 45.0303 137.81 44.9968C136.472 45.0254 135.14 44.794 133.89 44.3155C132.837 43.9065 131.931 43.1901 131.291 42.2595C130.672 41.3447 130.349 40.2036 130.321 38.8361H134.305C134.315 39.9176 134.997 40.8786 136.014 41.2461C136.574 41.459 137.17 41.5627 137.769 41.5516C138.319 41.5636 138.866 41.474 139.384 41.2873C139.793 41.143 140.155 40.8919 140.434 40.56C140.679 40.2512 140.813 39.8684 140.814 39.4738C140.818 39.1199 140.696 38.7763 140.47 38.504C140.193 38.2019 139.849 37.9686 139.466 37.8227C138.925 37.6022 138.366 37.4287 137.796 37.3039L135.839 36.8311C134.279 36.4593 133.049 35.8726 132.147 35.0709C131.245 34.2692 130.797 33.183 130.804 31.8124C130.775 30.7606 131.092 29.7285 131.705 28.8739C132.348 28.0048 133.213 27.3254 134.21 26.9076C135.359 26.4202 136.598 26.1798 137.847 26.2021C139.089 26.1742 140.323 26.4149 141.464 26.9076C142.433 27.3292 143.265 28.0127 143.867 28.8812C144.445 29.7513 144.749 30.7749 144.74 31.8196L140.785 31.8318ZM113.148 44.7543H109.058V30.8498L108.639 30.845L104.507 44.7544H100.42L96.3999 30.845L95.8787 30.8498V44.7543H91.7885V26.4639H98.7396L102.25 38.7222H102.675L106.185 26.4639H113.148V44.7543ZM85.3491 44.7543H89.7786L83.6374 26.4664H78.0247L71.8737 44.7543H76.3105L77.5058 40.7442H84.1538L85.3491 44.7543ZM78.4562 37.5536L80.4492 30.8498H81.2007L83.2034 37.5536H78.4562ZM72.892 5.24957H77.0258V23.54H72.892V5.24957ZM96.6569 14.3948C96.6569 16.4023 96.2763 18.0994 95.515 19.4862C94.8078 20.8251 93.7316 21.9332 92.4141 22.6793C89.6631 24.1469 86.3616 24.1469 83.6107 22.6793C82.2928 21.9304 81.2167 20.8199 80.5098 19.4789C79.7485 18.0792 79.3678 16.3821 79.3678 14.3875C79.3678 12.3929 79.7485 10.6918 80.5098 9.28393C81.2155 7.94907 82.288 6.84373 83.601 6.09814C86.3528 4.63395 89.6525 4.63395 92.4044 6.09814C93.722 6.84423 94.7981 7.95234 95.5053 9.2912C96.2666 10.6877 96.6472 12.3889 96.6472 14.3948M92.4407 14.3948C92.4721 13.3186 92.2883 12.2471 91.9001 11.2429C91.5929 10.4581 91.0585 9.78277 90.3654 9.30333C88.9192 8.41431 87.0959 8.41431 85.6497 9.30333C84.9558 9.78314 84.4199 10.4582 84.1101 11.2429C83.381 13.2809 83.381 15.5086 84.1101 17.5466C84.4189 18.3319 84.955 19.0073 85.6497 19.4862C87.0959 20.3752 88.9192 20.3752 90.3654 19.4862C91.0593 19.0076 91.5939 18.332 91.9001 17.5466C92.288 16.5424 92.4718 15.4709 92.4407 14.3948ZM64.205 17.1636L66.3289 23.54H70.8651L68.5037 16.6714H65.296L65.1045 16.0798C65.7155 15.961 66.7604 15.7767 67.6866 15.1464C69.0034 14.2506 69.7964 12.7652 69.808 11.1726C69.8358 10.0889 69.5622 9.01875 69.0176 8.08138C68.4855 7.1737 67.6956 6.44459 66.7483 5.98661C65.6376 5.47225 64.4224 5.22324 63.1988 5.25926H55.8211V23.54H59.9573V17.1636H64.205ZM64.1274 13.3789C63.5644 13.5859 62.9669 13.6831 62.3672 13.665H59.9573V8.6075H62.36C62.96 8.59023 63.5575 8.69242 64.1177 8.90813C64.5607 9.08433 64.9349 9.39899 65.1845 9.8052C65.439 10.2147 65.5656 10.6908 65.5482 11.1726C65.5679 11.6472 65.4428 12.1165 65.1894 12.5182C64.9385 12.9131 64.5657 13.2153 64.1274 13.3789ZM97.0473 5.24957V8.64386H104.151L104.345 9.23787C103.744 9.35424 102.728 9.53365 101.816 10.1349V23.5448H105.906V8.63417H110.663V5.23987L97.0473 5.24957Z" fill="#AFC5D6"/>
</g>
<defs>
<clipPath id="clip0_314_1425">
<rect width="89.9934" height="40" fill="white" transform="translate(55 5)"/>
</clipPath>
</defs>
</svg>
